%FSLAX42Y42*%
%MOMM*%
G71*
G01*
G75*
G04 Layer_Color=16711935*
%ADD10R,2.00X1.10*%
%ADD11R,0.80X1.10*%
%ADD12R,0.85X0.95*%
%ADD13R,1.00X0.90*%
%ADD14R,1.55X0.60*%
%ADD15R,0.90X1.00*%
%ADD16R,1.80X1.30*%
%ADD17R,1.45X0.45*%
%ADD18R,0.45X0.45*%
G04:AMPARAMS|DCode=19|XSize=0.65mm|YSize=0.6mm|CornerRadius=0.02mm|HoleSize=0mm|Usage=FLASHONLY|Rotation=180.000|XOffset=0mm|YOffset=0mm|HoleType=Round|Shape=RoundedRectangle|*
%AMROUNDEDRECTD19*
21,1,0.65,0.57,0,0,180.0*
21,1,0.62,0.60,0,0,180.0*
1,1,0.03,-0.31,0.28*
1,1,0.03,0.31,0.28*
1,1,0.03,0.31,-0.28*
1,1,0.03,-0.31,-0.28*
%
%ADD19ROUNDEDRECTD19*%
%ADD20R,1.50X2.00*%
G04:AMPARAMS|DCode=21|XSize=0.5mm|YSize=0.25mm|CornerRadius=0mm|HoleSize=0mm|Usage=FLASHONLY|Rotation=180.000|XOffset=0mm|YOffset=0mm|HoleType=Round|Shape=RoundedRectangle|*
%AMROUNDEDRECTD21*
21,1,0.50,0.25,0,0,180.0*
21,1,0.50,0.25,0,0,180.0*
1,1,0.00,-0.25,0.12*
1,1,0.00,0.25,0.12*
1,1,0.00,0.25,-0.12*
1,1,0.00,-0.25,-0.12*
%
%ADD21ROUNDEDRECTD21*%
%ADD22R,0.70X1.30*%
G04:AMPARAMS|DCode=23|XSize=0.5mm|YSize=0.25mm|CornerRadius=0mm|HoleSize=0mm|Usage=FLASHONLY|Rotation=270.000|XOffset=0mm|YOffset=0mm|HoleType=Round|Shape=RoundedRectangle|*
%AMROUNDEDRECTD23*
21,1,0.50,0.25,0,0,270.0*
21,1,0.50,0.25,0,0,270.0*
1,1,0.00,-0.12,-0.25*
1,1,0.00,-0.12,0.25*
1,1,0.00,0.12,0.25*
1,1,0.00,0.12,-0.25*
%
%ADD23ROUNDEDRECTD23*%
%ADD24R,1.30X0.70*%
G04:AMPARAMS|DCode=25|XSize=0.3mm|YSize=1.4mm|CornerRadius=0mm|HoleSize=0mm|Usage=FLASHONLY|Rotation=45.000|XOffset=0mm|YOffset=0mm|HoleType=Round|Shape=Rectangle|*
%AMROTATEDRECTD25*
4,1,4,0.39,-0.60,-0.60,0.39,-0.39,0.60,0.60,-0.39,0.39,-0.60,0.0*
%
%ADD25ROTATEDRECTD25*%

G04:AMPARAMS|DCode=26|XSize=0.3mm|YSize=1.4mm|CornerRadius=0mm|HoleSize=0mm|Usage=FLASHONLY|Rotation=315.000|XOffset=0mm|YOffset=0mm|HoleType=Round|Shape=Rectangle|*
%AMROTATEDRECTD26*
4,1,4,-0.60,-0.39,0.39,0.60,0.60,0.39,-0.39,-0.60,-0.60,-0.39,0.0*
%
%ADD26ROTATEDRECTD26*%

%ADD27R,1.00X0.75*%
%ADD28R,0.80X0.80*%
%ADD29R,6.00X2.00*%
%ADD30R,1.30X2.70*%
%ADD31R,0.80X0.80*%
%ADD32R,0.90X0.95*%
%ADD33R,0.90X0.95*%
%ADD34R,0.95X0.85*%
G04:AMPARAMS|DCode=35|XSize=0.95mm|YSize=0.85mm|CornerRadius=0mm|HoleSize=0mm|Usage=FLASHONLY|Rotation=315.000|XOffset=0mm|YOffset=0mm|HoleType=Round|Shape=Rectangle|*
%AMROTATEDRECTD35*
4,1,4,-0.64,0.04,-0.04,0.64,0.64,-0.04,0.04,-0.64,-0.64,0.04,0.0*
%
%ADD35ROTATEDRECTD35*%

G04:AMPARAMS|DCode=36|XSize=5.5mm|YSize=2mm|CornerRadius=0mm|HoleSize=0mm|Usage=FLASHONLY|Rotation=225.000|XOffset=0mm|YOffset=0mm|HoleType=Round|Shape=Rectangle|*
%AMROTATEDRECTD36*
4,1,4,1.24,2.65,2.65,1.24,-1.24,-2.65,-2.65,-1.24,1.24,2.65,0.0*
%
%ADD36ROTATEDRECTD36*%

%ADD37C,1.50*%
%ADD38R,0.80X1.50*%
%ADD39R,1.50X0.80*%
%ADD40R,0.60X1.45*%
%ADD41C,0.25*%
%ADD42C,0.76*%
%ADD43C,0.50*%
%ADD44R,1.55X1.85*%
%ADD45R,1.50X1.50*%
%ADD46O,1.00X1.52*%
%ADD47R,1.00X1.52*%
%ADD48R,1.50X1.50*%
%ADD49O,1.52X1.00*%
%ADD50R,1.52X1.00*%
%ADD51C,0.70*%
%ADD52C,0.80*%
%ADD53C,1.27*%
%ADD54C,3.00*%
%ADD55C,0.50*%
%ADD56C,1.02*%
%ADD57C,0.51*%
%ADD58C,0.10*%
%ADD59C,0.20*%
%ADD60C,0.25*%
%ADD61C,0.60*%
%ADD62C,0.15*%
%ADD63R,2.20X1.30*%
%ADD64R,1.00X1.30*%
%ADD65R,1.05X1.15*%
%ADD66R,1.20X1.10*%
%ADD67R,1.75X0.80*%
%ADD68R,1.10X1.20*%
%ADD69R,2.00X1.50*%
%ADD70R,1.65X0.65*%
%ADD71R,0.65X0.65*%
G04:AMPARAMS|DCode=72|XSize=0.85mm|YSize=0.8mm|CornerRadius=0.12mm|HoleSize=0mm|Usage=FLASHONLY|Rotation=180.000|XOffset=0mm|YOffset=0mm|HoleType=Round|Shape=RoundedRectangle|*
%AMROUNDEDRECTD72*
21,1,0.85,0.57,0,0,180.0*
21,1,0.62,0.80,0,0,180.0*
1,1,0.23,-0.31,0.28*
1,1,0.23,0.31,0.28*
1,1,0.23,0.31,-0.28*
1,1,0.23,-0.31,-0.28*
%
%ADD72ROUNDEDRECTD72*%
%ADD73R,1.70X2.20*%
G04:AMPARAMS|DCode=74|XSize=0.7mm|YSize=0.45mm|CornerRadius=0.1mm|HoleSize=0mm|Usage=FLASHONLY|Rotation=180.000|XOffset=0mm|YOffset=0mm|HoleType=Round|Shape=RoundedRectangle|*
%AMROUNDEDRECTD74*
21,1,0.70,0.25,0,0,180.0*
21,1,0.50,0.45,0,0,180.0*
1,1,0.21,-0.25,0.12*
1,1,0.21,0.25,0.12*
1,1,0.21,0.25,-0.12*
1,1,0.21,-0.25,-0.12*
%
%ADD74ROUNDEDRECTD74*%
%ADD75R,0.90X1.50*%
G04:AMPARAMS|DCode=76|XSize=0.7mm|YSize=0.45mm|CornerRadius=0.1mm|HoleSize=0mm|Usage=FLASHONLY|Rotation=270.000|XOffset=0mm|YOffset=0mm|HoleType=Round|Shape=RoundedRectangle|*
%AMROUNDEDRECTD76*
21,1,0.70,0.25,0,0,270.0*
21,1,0.50,0.45,0,0,270.0*
1,1,0.21,-0.12,-0.25*
1,1,0.21,-0.12,0.25*
1,1,0.21,0.12,0.25*
1,1,0.21,0.12,-0.25*
%
%ADD76ROUNDEDRECTD76*%
%ADD77R,1.50X0.90*%
G04:AMPARAMS|DCode=78|XSize=0.5mm|YSize=1.6mm|CornerRadius=0mm|HoleSize=0mm|Usage=FLASHONLY|Rotation=45.000|XOffset=0mm|YOffset=0mm|HoleType=Round|Shape=Rectangle|*
%AMROTATEDRECTD78*
4,1,4,0.39,-0.74,-0.74,0.39,-0.39,0.74,0.74,-0.39,0.39,-0.74,0.0*
%
%ADD78ROTATEDRECTD78*%

G04:AMPARAMS|DCode=79|XSize=0.5mm|YSize=1.6mm|CornerRadius=0mm|HoleSize=0mm|Usage=FLASHONLY|Rotation=315.000|XOffset=0mm|YOffset=0mm|HoleType=Round|Shape=Rectangle|*
%AMROTATEDRECTD79*
4,1,4,-0.74,-0.39,0.39,0.74,0.74,0.39,-0.39,-0.74,-0.74,-0.39,0.0*
%
%ADD79ROTATEDRECTD79*%

%ADD80R,1.20X0.95*%
%ADD81R,1.00X1.00*%
%ADD82R,6.20X2.20*%
%ADD83R,1.50X2.90*%
%ADD84R,1.00X1.00*%
%ADD85R,1.10X1.15*%
%ADD86R,1.10X1.15*%
%ADD87R,1.15X1.05*%
G04:AMPARAMS|DCode=88|XSize=1.15mm|YSize=1.05mm|CornerRadius=0mm|HoleSize=0mm|Usage=FLASHONLY|Rotation=315.000|XOffset=0mm|YOffset=0mm|HoleType=Round|Shape=Rectangle|*
%AMROTATEDRECTD88*
4,1,4,-0.78,0.04,-0.04,0.78,0.78,-0.04,0.04,-0.78,-0.78,0.04,0.0*
%
%ADD88ROTATEDRECTD88*%

G04:AMPARAMS|DCode=89|XSize=5.7mm|YSize=2.2mm|CornerRadius=0mm|HoleSize=0mm|Usage=FLASHONLY|Rotation=225.000|XOffset=0mm|YOffset=0mm|HoleType=Round|Shape=Rectangle|*
%AMROTATEDRECTD89*
4,1,4,1.24,2.80,2.80,1.24,-1.24,-2.80,-2.80,-1.24,1.24,2.80,0.0*
%
%ADD89ROTATEDRECTD89*%

%ADD90C,1.70*%
%ADD91R,1.00X1.70*%
%ADD92R,1.70X1.00*%
%ADD93R,0.80X1.65*%
%ADD94R,1.75X2.05*%
%ADD95R,1.70X1.70*%
%ADD96O,1.20X1.73*%
%ADD97R,1.20X1.73*%
%ADD98R,1.70X1.70*%
%ADD99O,1.73X1.20*%
%ADD100R,1.73X1.20*%
%ADD101C,0.90*%
%ADD102C,1.00*%
%ADD103C,1.47*%
%ADD104C,3.20*%
%ADD105C,0.70*%
G04:AMPARAMS|DCode=106|XSize=2mm|YSize=1mm|CornerRadius=0.5mm|HoleSize=0mm|Usage=FLASHONLY|Rotation=270.000|XOffset=0mm|YOffset=0mm|HoleType=Round|Shape=RoundedRectangle|*
%AMROUNDEDRECTD106*
21,1,2.00,0.00,0,0,270.0*
21,1,1.00,1.00,0,0,270.0*
1,1,1.00,0.00,-0.50*
1,1,1.00,0.00,0.50*
1,1,1.00,0.00,0.50*
1,1,1.00,0.00,-0.50*
%
%ADD106ROUNDEDRECTD106*%
%ADD107R,2.20X1.60*%
%ADD108C,0.15*%
D41*
X4535Y12138D02*
X6225D01*
X4535Y12338D02*
X6225D01*
X4560D02*
Y12592D01*
Y11883D02*
Y12138D01*
Y12338D02*
X4611Y12490D01*
X4509D02*
X4560Y12338D01*
X4509Y11985D02*
X4560Y12138D01*
X4611Y11985D01*
X6350Y12125D02*
Y12493D01*
X6150Y12125D02*
Y12493D01*
X5896Y12468D02*
X6150D01*
X6350D02*
X6604D01*
X5998Y12518D02*
X6150Y12468D01*
X5998Y12417D02*
X6150Y12468D01*
X6350D02*
X6502Y12417D01*
X6350Y12468D02*
X6502Y12518D01*
X4382Y9862D02*
X4745D01*
X4382Y10062D02*
X4745D01*
X4408Y9862D02*
Y9962D01*
Y10062D01*
Y9862D02*
X4458Y10015D01*
X4357D02*
X4408Y9862D01*
X4357Y9910D02*
X4408Y10062D01*
X4458Y9910D01*
X6150Y10250D02*
Y11200D01*
X6122Y10250D02*
Y11130D01*
X6136Y10275D02*
X6150D01*
X6122D02*
X6136D01*
X5998Y10326D02*
X6150Y10275D01*
X5998Y10224D02*
X6150Y10275D01*
X6122D02*
X6275Y10224D01*
X6122Y10275D02*
X6275Y10326D01*
X4465Y11097D02*
X6070D01*
X4465Y11180D02*
X6072D01*
X4490D02*
Y11434D01*
Y10843D02*
Y11097D01*
Y11180D02*
X4541Y11332D01*
X4439D02*
X4490Y11180D01*
X4439Y10945D02*
X4490Y11097D01*
X4541Y10945D01*
D108*
X4377Y12032D02*
Y11930D01*
X4276Y12032D01*
X4250D01*
X4225Y12006D01*
Y11956D01*
X4250Y11930D01*
X4377Y12083D02*
X4352D01*
Y12108D01*
X4377D01*
Y12083D01*
X4250Y12210D02*
X4225Y12235D01*
Y12286D01*
X4250Y12311D01*
X4352D01*
X4377Y12286D01*
Y12235D01*
X4352Y12210D01*
X4250D01*
Y12362D02*
X4225Y12387D01*
Y12438D01*
X4250Y12463D01*
X4352D01*
X4377Y12438D01*
Y12387D01*
X4352Y12362D01*
X4250D01*
X6044Y12650D02*
X5943D01*
X6044Y12752D01*
Y12777D01*
X6019Y12803D01*
X5968D01*
X5943Y12777D01*
X6095Y12650D02*
Y12676D01*
X6120D01*
Y12650D01*
X6095D01*
X6222Y12777D02*
X6247Y12803D01*
X6298D01*
X6324Y12777D01*
Y12676D01*
X6298Y12650D01*
X6247D01*
X6222Y12676D01*
Y12777D01*
X6374D02*
X6400Y12803D01*
X6451D01*
X6476Y12777D01*
Y12676D01*
X6451Y12650D01*
X6400D01*
X6374Y12676D01*
Y12777D01*
X4292Y9967D02*
Y9865D01*
X4191Y9967D01*
X4166D01*
X4140Y9941D01*
Y9890D01*
X4166Y9865D01*
X4292Y10017D02*
X4267D01*
Y10043D01*
X4292D01*
Y10017D01*
X4166Y10144D02*
X4140Y10170D01*
Y10220D01*
X4166Y10246D01*
X4267D01*
X4292Y10220D01*
Y10170D01*
X4267Y10144D01*
X4166D01*
Y10297D02*
X4140Y10322D01*
Y10373D01*
X4166Y10398D01*
X4267D01*
X4292Y10373D01*
Y10322D01*
X4267Y10297D01*
X4166D01*
X5789Y10137D02*
X5814Y10163D01*
X5865D01*
X5890Y10137D01*
Y10036D01*
X5865Y10010D01*
X5814D01*
X5789Y10036D01*
Y10137D01*
X5941Y10010D02*
Y10036D01*
X5967D01*
Y10010D01*
X5941D01*
X6170D02*
X6068D01*
X6170Y10112D01*
Y10137D01*
X6144Y10163D01*
X6094D01*
X6068Y10137D01*
X6220D02*
X6246Y10163D01*
X6297D01*
X6322Y10137D01*
Y10112D01*
X6297Y10086D01*
X6322Y10061D01*
Y10036D01*
X6297Y10010D01*
X6246D01*
X6220Y10036D01*
Y10061D01*
X6246Y10086D01*
X6220Y10112D01*
Y10137D01*
X6246Y10086D02*
X6297D01*
X4180Y10831D02*
X4155Y10857D01*
Y10908D01*
X4180Y10933D01*
X4282D01*
X4307Y10908D01*
Y10857D01*
X4282Y10831D01*
X4180D01*
X4307Y10984D02*
X4282D01*
Y11009D01*
X4307D01*
Y10984D01*
X4180Y11111D02*
X4155Y11136D01*
Y11187D01*
X4180Y11212D01*
X4206D01*
X4231Y11187D01*
X4256Y11212D01*
X4282D01*
X4307Y11187D01*
Y11136D01*
X4282Y11111D01*
X4256D01*
X4231Y11136D01*
X4206Y11111D01*
X4180D01*
X4231Y11136D02*
Y11187D01*
X4307Y11365D02*
Y11263D01*
X4206Y11365D01*
X4180D01*
X4155Y11339D01*
Y11289D01*
X4180Y11263D01*
M02*
