%FSLAX42Y42*%
%MOMM*%
G71*
G01*
G75*
G04 Layer_Color=16711935*
%ADD10R,2.00X1.10*%
%ADD11R,0.80X1.10*%
%ADD12R,0.85X0.95*%
%ADD13R,1.00X0.90*%
%ADD14R,1.55X0.60*%
%ADD15R,0.90X1.00*%
%ADD16R,1.80X1.30*%
%ADD17R,1.45X0.45*%
%ADD18R,0.45X0.45*%
G04:AMPARAMS|DCode=19|XSize=0.65mm|YSize=0.6mm|CornerRadius=0.02mm|HoleSize=0mm|Usage=FLASHONLY|Rotation=180.000|XOffset=0mm|YOffset=0mm|HoleType=Round|Shape=RoundedRectangle|*
%AMROUNDEDRECTD19*
21,1,0.65,0.57,0,0,180.0*
21,1,0.62,0.60,0,0,180.0*
1,1,0.03,-0.31,0.28*
1,1,0.03,0.31,0.28*
1,1,0.03,0.31,-0.28*
1,1,0.03,-0.31,-0.28*
%
%ADD19ROUNDEDRECTD19*%
%ADD20R,1.50X2.00*%
G04:AMPARAMS|DCode=21|XSize=0.5mm|YSize=0.25mm|CornerRadius=0mm|HoleSize=0mm|Usage=FLASHONLY|Rotation=180.000|XOffset=0mm|YOffset=0mm|HoleType=Round|Shape=RoundedRectangle|*
%AMROUNDEDRECTD21*
21,1,0.50,0.25,0,0,180.0*
21,1,0.50,0.25,0,0,180.0*
1,1,0.00,-0.25,0.12*
1,1,0.00,0.25,0.12*
1,1,0.00,0.25,-0.12*
1,1,0.00,-0.25,-0.12*
%
%ADD21ROUNDEDRECTD21*%
%ADD22R,0.70X1.30*%
G04:AMPARAMS|DCode=23|XSize=0.5mm|YSize=0.25mm|CornerRadius=0mm|HoleSize=0mm|Usage=FLASHONLY|Rotation=270.000|XOffset=0mm|YOffset=0mm|HoleType=Round|Shape=RoundedRectangle|*
%AMROUNDEDRECTD23*
21,1,0.50,0.25,0,0,270.0*
21,1,0.50,0.25,0,0,270.0*
1,1,0.00,-0.12,-0.25*
1,1,0.00,-0.12,0.25*
1,1,0.00,0.12,0.25*
1,1,0.00,0.12,-0.25*
%
%ADD23ROUNDEDRECTD23*%
%ADD24R,1.30X0.70*%
G04:AMPARAMS|DCode=25|XSize=0.3mm|YSize=1.4mm|CornerRadius=0mm|HoleSize=0mm|Usage=FLASHONLY|Rotation=45.000|XOffset=0mm|YOffset=0mm|HoleType=Round|Shape=Rectangle|*
%AMROTATEDRECTD25*
4,1,4,0.39,-0.60,-0.60,0.39,-0.39,0.60,0.60,-0.39,0.39,-0.60,0.0*
%
%ADD25ROTATEDRECTD25*%

G04:AMPARAMS|DCode=26|XSize=0.3mm|YSize=1.4mm|CornerRadius=0mm|HoleSize=0mm|Usage=FLASHONLY|Rotation=315.000|XOffset=0mm|YOffset=0mm|HoleType=Round|Shape=Rectangle|*
%AMROTATEDRECTD26*
4,1,4,-0.60,-0.39,0.39,0.60,0.60,0.39,-0.39,-0.60,-0.60,-0.39,0.0*
%
%ADD26ROTATEDRECTD26*%

%ADD27R,1.00X0.75*%
%ADD28R,0.80X0.80*%
%ADD29R,6.00X2.00*%
%ADD30R,1.30X2.70*%
%ADD31R,0.80X0.80*%
%ADD32R,0.90X0.95*%
%ADD33R,0.90X0.95*%
%ADD34R,0.95X0.85*%
G04:AMPARAMS|DCode=35|XSize=0.95mm|YSize=0.85mm|CornerRadius=0mm|HoleSize=0mm|Usage=FLASHONLY|Rotation=315.000|XOffset=0mm|YOffset=0mm|HoleType=Round|Shape=Rectangle|*
%AMROTATEDRECTD35*
4,1,4,-0.64,0.04,-0.04,0.64,0.64,-0.04,0.04,-0.64,-0.64,0.04,0.0*
%
%ADD35ROTATEDRECTD35*%

G04:AMPARAMS|DCode=36|XSize=5.5mm|YSize=2mm|CornerRadius=0mm|HoleSize=0mm|Usage=FLASHONLY|Rotation=225.000|XOffset=0mm|YOffset=0mm|HoleType=Round|Shape=Rectangle|*
%AMROTATEDRECTD36*
4,1,4,1.24,2.65,2.65,1.24,-1.24,-2.65,-2.65,-1.24,1.24,2.65,0.0*
%
%ADD36ROTATEDRECTD36*%

%ADD37C,1.50*%
%ADD38R,0.80X1.50*%
%ADD39R,1.50X0.80*%
%ADD40R,0.60X1.45*%
%ADD41C,0.25*%
%ADD42C,0.76*%
%ADD43C,0.50*%
%ADD44R,1.55X1.85*%
%ADD45R,1.50X1.50*%
%ADD46O,1.00X1.52*%
%ADD47R,1.00X1.52*%
%ADD48R,1.50X1.50*%
%ADD49O,1.52X1.00*%
%ADD50R,1.52X1.00*%
%ADD51C,0.70*%
%ADD52C,0.80*%
%ADD53C,1.27*%
%ADD54C,3.00*%
%ADD55C,0.50*%
%ADD56C,1.02*%
%ADD57C,0.51*%
%ADD58C,0.10*%
%ADD59C,0.20*%
%ADD60C,0.25*%
%ADD61C,0.60*%
%ADD62C,0.15*%
%ADD63R,2.20X1.30*%
%ADD64R,1.00X1.30*%
%ADD65R,1.05X1.15*%
%ADD66R,1.20X1.10*%
%ADD67R,1.75X0.80*%
%ADD68R,1.10X1.20*%
%ADD69R,2.00X1.50*%
%ADD70R,1.65X0.65*%
%ADD71R,0.65X0.65*%
G04:AMPARAMS|DCode=72|XSize=0.85mm|YSize=0.8mm|CornerRadius=0.12mm|HoleSize=0mm|Usage=FLASHONLY|Rotation=180.000|XOffset=0mm|YOffset=0mm|HoleType=Round|Shape=RoundedRectangle|*
%AMROUNDEDRECTD72*
21,1,0.85,0.57,0,0,180.0*
21,1,0.62,0.80,0,0,180.0*
1,1,0.23,-0.31,0.28*
1,1,0.23,0.31,0.28*
1,1,0.23,0.31,-0.28*
1,1,0.23,-0.31,-0.28*
%
%ADD72ROUNDEDRECTD72*%
%ADD73R,1.70X2.20*%
G04:AMPARAMS|DCode=74|XSize=0.7mm|YSize=0.45mm|CornerRadius=0.1mm|HoleSize=0mm|Usage=FLASHONLY|Rotation=180.000|XOffset=0mm|YOffset=0mm|HoleType=Round|Shape=RoundedRectangle|*
%AMROUNDEDRECTD74*
21,1,0.70,0.25,0,0,180.0*
21,1,0.50,0.45,0,0,180.0*
1,1,0.21,-0.25,0.12*
1,1,0.21,0.25,0.12*
1,1,0.21,0.25,-0.12*
1,1,0.21,-0.25,-0.12*
%
%ADD74ROUNDEDRECTD74*%
%ADD75R,0.90X1.50*%
G04:AMPARAMS|DCode=76|XSize=0.7mm|YSize=0.45mm|CornerRadius=0.1mm|HoleSize=0mm|Usage=FLASHONLY|Rotation=270.000|XOffset=0mm|YOffset=0mm|HoleType=Round|Shape=RoundedRectangle|*
%AMROUNDEDRECTD76*
21,1,0.70,0.25,0,0,270.0*
21,1,0.50,0.45,0,0,270.0*
1,1,0.21,-0.12,-0.25*
1,1,0.21,-0.12,0.25*
1,1,0.21,0.12,0.25*
1,1,0.21,0.12,-0.25*
%
%ADD76ROUNDEDRECTD76*%
%ADD77R,1.50X0.90*%
G04:AMPARAMS|DCode=78|XSize=0.5mm|YSize=1.6mm|CornerRadius=0mm|HoleSize=0mm|Usage=FLASHONLY|Rotation=45.000|XOffset=0mm|YOffset=0mm|HoleType=Round|Shape=Rectangle|*
%AMROTATEDRECTD78*
4,1,4,0.39,-0.74,-0.74,0.39,-0.39,0.74,0.74,-0.39,0.39,-0.74,0.0*
%
%ADD78ROTATEDRECTD78*%

G04:AMPARAMS|DCode=79|XSize=0.5mm|YSize=1.6mm|CornerRadius=0mm|HoleSize=0mm|Usage=FLASHONLY|Rotation=315.000|XOffset=0mm|YOffset=0mm|HoleType=Round|Shape=Rectangle|*
%AMROTATEDRECTD79*
4,1,4,-0.74,-0.39,0.39,0.74,0.74,0.39,-0.39,-0.74,-0.74,-0.39,0.0*
%
%ADD79ROTATEDRECTD79*%

%ADD80R,1.20X0.95*%
%ADD81R,1.00X1.00*%
%ADD82R,6.20X2.20*%
%ADD83R,1.50X2.90*%
%ADD84R,1.00X1.00*%
%ADD85R,1.10X1.15*%
%ADD86R,1.10X1.15*%
%ADD87R,1.15X1.05*%
G04:AMPARAMS|DCode=88|XSize=1.15mm|YSize=1.05mm|CornerRadius=0mm|HoleSize=0mm|Usage=FLASHONLY|Rotation=315.000|XOffset=0mm|YOffset=0mm|HoleType=Round|Shape=Rectangle|*
%AMROTATEDRECTD88*
4,1,4,-0.78,0.04,-0.04,0.78,0.78,-0.04,0.04,-0.78,-0.78,0.04,0.0*
%
%ADD88ROTATEDRECTD88*%

G04:AMPARAMS|DCode=89|XSize=5.7mm|YSize=2.2mm|CornerRadius=0mm|HoleSize=0mm|Usage=FLASHONLY|Rotation=225.000|XOffset=0mm|YOffset=0mm|HoleType=Round|Shape=Rectangle|*
%AMROTATEDRECTD89*
4,1,4,1.24,2.80,2.80,1.24,-1.24,-2.80,-2.80,-1.24,1.24,2.80,0.0*
%
%ADD89ROTATEDRECTD89*%

%ADD90C,1.70*%
%ADD91R,1.00X1.70*%
%ADD92R,1.70X1.00*%
%ADD93R,0.80X1.65*%
%ADD94R,1.75X2.05*%
%ADD95R,1.70X1.70*%
%ADD96O,1.20X1.73*%
%ADD97R,1.20X1.73*%
%ADD98R,1.70X1.70*%
%ADD99O,1.73X1.20*%
%ADD100R,1.73X1.20*%
%ADD101C,0.90*%
%ADD102C,1.00*%
%ADD103C,1.47*%
%ADD104C,3.20*%
%ADD105C,0.70*%
D90*
X12805Y9393D02*
D03*
X8836Y10005D02*
D03*
X9090D02*
D03*
X11418Y11325D02*
D03*
X8831Y11327D02*
D03*
X14748Y11285D02*
D03*
X9807Y10003D02*
D03*
X10061D02*
D03*
X6675Y11114D02*
D03*
Y10860D02*
D03*
Y10606D02*
D03*
Y10351D02*
D03*
Y10097D02*
D03*
X14888Y9368D02*
D03*
D95*
X12805Y9647D02*
D03*
X11418Y11071D02*
D03*
X6675Y11368D02*
D03*
X14888Y9622D02*
D03*
D96*
X7223Y4081D02*
D03*
X7731Y4078D02*
D03*
X7350Y4335D02*
D03*
X7858D02*
D03*
X7477Y4081D02*
D03*
X7985Y4080D02*
D03*
X7604Y4335D02*
D03*
X5863Y4194D02*
D03*
X5355Y4197D02*
D03*
X5736Y3940D02*
D03*
X5228D02*
D03*
X5609Y4194D02*
D03*
X5101Y4194D02*
D03*
X5482Y3940D02*
D03*
X5012Y11754D02*
D03*
X5520Y11751D02*
D03*
X5139Y12008D02*
D03*
X5647D02*
D03*
X5266Y11754D02*
D03*
X5774Y11753D02*
D03*
X5393Y12008D02*
D03*
D97*
X8112Y4335D02*
D03*
X4974Y3940D02*
D03*
X5901Y12008D02*
D03*
D98*
X8582Y10005D02*
D03*
X9085Y11327D02*
D03*
X15002Y11285D02*
D03*
X9553Y10003D02*
D03*
D99*
X5208Y9297D02*
D03*
X5205Y8789D02*
D03*
X5462Y9170D02*
D03*
Y8662D02*
D03*
X5208Y9043D02*
D03*
X5208Y8535D02*
D03*
X5462Y8916D02*
D03*
X5203Y7535D02*
D03*
X5200Y7027D02*
D03*
X5457Y7408D02*
D03*
Y6900D02*
D03*
X5203Y7281D02*
D03*
X5203Y6773D02*
D03*
X5457Y7154D02*
D03*
D100*
X5462Y8408D02*
D03*
X5457Y6646D02*
D03*
D101*
X10738Y7995D02*
D03*
X10886Y8144D02*
D03*
D102*
X13960Y10540D02*
D03*
X13510Y10412D02*
D03*
X9585Y8388D02*
D03*
X10832Y9680D02*
D03*
X5202Y10466D02*
D03*
X5691Y5584D02*
D03*
X8520Y7605D02*
D03*
X8843Y7109D02*
D03*
X9994Y8664D02*
D03*
X10035Y8797D02*
D03*
X8612Y7722D02*
D03*
X11450Y5428D02*
D03*
X11153D02*
D03*
X10928D02*
D03*
X10728D02*
D03*
X10538D02*
D03*
X10332D02*
D03*
X9762D02*
D03*
X9470D02*
D03*
X8953Y5553D02*
D03*
X10935Y8030D02*
D03*
X10093Y7478D02*
D03*
X9893Y7285D02*
D03*
X9085Y6358D02*
D03*
X9310Y6210D02*
D03*
X9168Y6238D02*
D03*
X7715Y5128D02*
D03*
X8783Y6713D02*
D03*
X8232Y11203D02*
D03*
X7965Y8497D02*
D03*
X8722Y7497D02*
D03*
X11890Y9880D02*
D03*
X11893Y10130D02*
D03*
X12228Y10093D02*
D03*
X8400Y8822D02*
D03*
X8262Y8938D02*
D03*
X8722Y9575D02*
D03*
X6993Y5750D02*
D03*
X7857Y8572D02*
D03*
X6283Y8653D02*
D03*
X6353Y8538D02*
D03*
X7457Y5755D02*
D03*
X7935Y5745D02*
D03*
X8402Y5753D02*
D03*
X5992Y6512D02*
D03*
X5912Y6444D02*
D03*
X5819Y7512D02*
D03*
X5814Y7242D02*
D03*
X5812Y6994D02*
D03*
X5807Y6739D02*
D03*
X5809Y8461D02*
D03*
X5804Y8681D02*
D03*
X5799Y8918D02*
D03*
X5799Y9139D02*
D03*
X9528Y6838D02*
D03*
X9397Y6765D02*
D03*
X8497Y7160D02*
D03*
X11380Y5142D02*
D03*
X11670Y5360D02*
D03*
X12555Y4397D02*
D03*
X7233Y5127D02*
D03*
X12455Y4515D02*
D03*
X10020Y4635D02*
D03*
X8182Y5127D02*
D03*
X9253Y7838D02*
D03*
X9250Y7740D02*
D03*
X11803Y5272D02*
D03*
X10007Y4958D02*
D03*
X9607Y4962D02*
D03*
X9194Y4962D02*
D03*
X6770Y5133D02*
D03*
X11930Y5660D02*
D03*
X11178Y9910D02*
D03*
X8507Y8690D02*
D03*
X11005Y10660D02*
D03*
X11022Y11430D02*
D03*
X10900D02*
D03*
X10768D02*
D03*
X10778Y10657D02*
D03*
X9488Y10910D02*
D03*
X9490Y10662D02*
D03*
X9488Y10790D02*
D03*
X8772Y10668D02*
D03*
X8770Y10800D02*
D03*
Y10925D02*
D03*
X10562Y7715D02*
D03*
X10798Y7858D02*
D03*
X10685Y7793D02*
D03*
X9678Y8315D02*
D03*
X13630Y11060D02*
D03*
X13765Y10845D02*
D03*
X13760Y11062D02*
D03*
X13682Y11200D02*
D03*
X13677Y10412D02*
D03*
X5859Y10818D02*
D03*
X5096Y5242D02*
D03*
X13760Y10953D02*
D03*
X13632D02*
D03*
X13635Y10845D02*
D03*
X13638Y10738D02*
D03*
X13765Y10745D02*
D03*
D103*
X10597Y9812D02*
D03*
X9318Y9828D02*
D03*
X13012Y8570D02*
D03*
X7630Y8122D02*
D03*
X10825Y4035D02*
D03*
X7357Y11580D02*
D03*
X12238Y5480D02*
D03*
X11500Y8038D02*
D03*
X9840Y9368D02*
D03*
X7785Y6882D02*
D03*
X7780Y6662D02*
D03*
X7962D02*
D03*
X7788Y9183D02*
D03*
Y9365D02*
D03*
X8007Y9360D02*
D03*
X7270Y8020D02*
D03*
X12725Y8210D02*
D03*
X13125Y8222D02*
D03*
X9988Y9732D02*
D03*
X8593Y4425D02*
D03*
X9168Y8167D02*
D03*
X11665Y9568D02*
D03*
X12925Y8220D02*
D03*
X13898Y9640D02*
D03*
Y10075D02*
D03*
X13682Y11345D02*
D03*
X13968D02*
D03*
D104*
X14798Y12028D02*
D03*
Y4028D02*
D03*
X6797D02*
D03*
Y12028D02*
D03*
X5100Y11250D02*
D03*
X5775Y4845D02*
D03*
X5100D02*
D03*
X5775Y11250D02*
D03*
D105*
X6378Y11180D02*
D03*
X6120Y11012D02*
D03*
Y11097D02*
D03*
X6122Y11180D02*
D03*
X6378Y11100D02*
D03*
Y11015D02*
D03*
X6370Y4730D02*
D03*
Y4815D02*
D03*
X6120Y4895D02*
D03*
X6117Y4815D02*
D03*
Y4728D02*
D03*
X6370Y4895D02*
D03*
X6375Y3803D02*
D03*
X6122Y3635D02*
D03*
Y3722D02*
D03*
X6125Y3803D02*
D03*
X6375Y3722D02*
D03*
Y3638D02*
D03*
Y12318D02*
D03*
X6122Y12150D02*
D03*
Y12238D02*
D03*
X6125Y12318D02*
D03*
X6375Y12238D02*
D03*
Y12153D02*
D03*
M02*
