G04 Layer_Color=128*
%FSLAX42Y42*%
%MOMM*%
G71*
G01*
G75*
%ADD110C,0.05*%
D110*
X14843Y9368D02*
X14933D01*
X14888Y9323D02*
Y9413D01*
X14843Y9622D02*
X14933D01*
X14888Y9577D02*
Y9667D01*
X6630Y10097D02*
X6720D01*
X6675Y10053D02*
Y10143D01*
X6630Y10351D02*
X6720D01*
X6675Y10307D02*
Y10396D01*
X6630Y10606D02*
X6720D01*
X6675Y10561D02*
Y10650D01*
X6630Y10860D02*
X6720D01*
X6675Y10814D02*
Y10904D01*
X6630Y11114D02*
X6720D01*
X6675Y11068D02*
Y11158D01*
X6630Y11368D02*
X6720D01*
X6675Y11322D02*
Y11412D01*
X10015Y10003D02*
X10106D01*
X10061Y9957D02*
Y10047D01*
X9761Y10003D02*
X9851D01*
X9807Y9957D02*
Y10047D01*
X9507Y10003D02*
X9597D01*
X9553Y9957D02*
Y10047D01*
X10866Y8144D02*
X10906D01*
X10886Y8124D02*
Y8164D01*
X10718Y7995D02*
X10758D01*
X10738Y7975D02*
Y8015D01*
X5417Y6646D02*
X5497D01*
X5457Y6606D02*
Y6686D01*
X5417Y7154D02*
X5497D01*
X5457Y7114D02*
Y7194D01*
X5163Y6773D02*
X5243D01*
X5203Y6733D02*
Y6813D01*
X5163Y7281D02*
X5243D01*
X5203Y7241D02*
Y7321D01*
X5417Y6900D02*
X5497D01*
X5457Y6860D02*
Y6940D01*
X5417Y7408D02*
X5497D01*
X5457Y7368D02*
Y7448D01*
X5160Y7027D02*
X5240D01*
X5200Y6987D02*
Y7067D01*
X5163Y7535D02*
X5243D01*
X5203Y7495D02*
Y7575D01*
X5422Y8408D02*
X5502D01*
X5462Y8368D02*
Y8448D01*
X5422Y8916D02*
X5502D01*
X5462Y8876D02*
Y8956D01*
X5168Y8535D02*
X5248D01*
X5208Y8495D02*
Y8575D01*
X5168Y9043D02*
X5248D01*
X5208Y9003D02*
Y9083D01*
X5422Y8662D02*
X5502D01*
X5462Y8622D02*
Y8702D01*
X5422Y9170D02*
X5502D01*
X5462Y9130D02*
Y9210D01*
X5165Y8789D02*
X5245D01*
X5205Y8749D02*
Y8829D01*
X5168Y9297D02*
X5248D01*
X5208Y9257D02*
Y9337D01*
X14703Y11285D02*
X14793D01*
X14748Y11240D02*
Y11330D01*
X14957Y11285D02*
X15047D01*
X15002Y11240D02*
Y11330D01*
X8786Y11327D02*
X8876D01*
X8831Y11282D02*
Y11372D01*
X9040Y11327D02*
X9130D01*
X9085Y11282D02*
Y11372D01*
X5861Y12008D02*
X5941D01*
X5901Y11968D02*
Y12048D01*
X5353Y12008D02*
X5433D01*
X5393Y11968D02*
Y12048D01*
X5734Y11753D02*
X5814D01*
X5774Y11713D02*
Y11793D01*
X5226Y11754D02*
X5306D01*
X5266Y11714D02*
Y11794D01*
X5607Y12008D02*
X5687D01*
X5647Y11968D02*
Y12048D01*
X5099Y12008D02*
X5179D01*
X5139Y11968D02*
Y12048D01*
X5480Y11751D02*
X5560D01*
X5520Y11711D02*
Y11791D01*
X4972Y11754D02*
X5052D01*
X5012Y11714D02*
Y11794D01*
X11373Y11325D02*
X11463D01*
X11418Y11280D02*
Y11370D01*
X11373Y11071D02*
X11463D01*
X11418Y11026D02*
Y11116D01*
X9046Y10005D02*
X9136D01*
X9090Y9960D02*
Y10050D01*
X8792Y10005D02*
X8882D01*
X8836Y9960D02*
Y10050D01*
X8538Y10005D02*
X8628D01*
X8582Y9960D02*
Y10050D01*
X4934Y3940D02*
X5014D01*
X4974Y3900D02*
Y3980D01*
X5442Y3940D02*
X5522D01*
X5482Y3900D02*
Y3980D01*
X5061Y4194D02*
X5141D01*
X5101Y4154D02*
Y4234D01*
X5569Y4194D02*
X5649D01*
X5609Y4154D02*
Y4234D01*
X5188Y3940D02*
X5268D01*
X5228Y3900D02*
Y3980D01*
X5696Y3940D02*
X5776D01*
X5736Y3900D02*
Y3980D01*
X5315Y4197D02*
X5395D01*
X5355Y4157D02*
Y4237D01*
X5823Y4194D02*
X5903D01*
X5863Y4154D02*
Y4234D01*
X8072Y4335D02*
X8152D01*
X8112Y4294D02*
Y4374D01*
X7564Y4335D02*
X7644D01*
X7604Y4294D02*
Y4374D01*
X7945Y4080D02*
X8025D01*
X7985Y4040D02*
Y4120D01*
X7437Y4081D02*
X7517D01*
X7477Y4040D02*
Y4121D01*
X7818Y4335D02*
X7898D01*
X7858Y4294D02*
Y4374D01*
X7310Y4335D02*
X7390D01*
X7350Y4294D02*
Y4374D01*
X7691Y4078D02*
X7771D01*
X7731Y4038D02*
Y4117D01*
X7183Y4081D02*
X7263D01*
X7223Y4040D02*
Y4121D01*
X12760Y9393D02*
X12850D01*
X12805Y9348D02*
Y9438D01*
X12760Y9647D02*
X12850D01*
X12805Y9602D02*
Y9692D01*
X6350Y12153D02*
X6400D01*
X6375Y12128D02*
Y12178D01*
X6350Y12238D02*
X6400D01*
X6375Y12212D02*
Y12262D01*
X6100Y12318D02*
X6150D01*
X6125Y12293D02*
Y12343D01*
X6097Y12238D02*
X6147D01*
X6122Y12212D02*
Y12262D01*
X6097Y12150D02*
X6147D01*
X6122Y12125D02*
Y12175D01*
X6350Y12318D02*
X6400D01*
X6375Y12293D02*
Y12343D01*
X6350Y3638D02*
X6400D01*
X6375Y3612D02*
Y3662D01*
X6350Y3722D02*
X6400D01*
X6375Y3697D02*
Y3747D01*
X6100Y3803D02*
X6150D01*
X6125Y3778D02*
Y3828D01*
X6097Y3722D02*
X6147D01*
X6122Y3697D02*
Y3747D01*
X6097Y3635D02*
X6147D01*
X6122Y3610D02*
Y3660D01*
X6350Y3803D02*
X6400D01*
X6375Y3778D02*
Y3828D01*
X6345Y4895D02*
X6395D01*
X6370Y4870D02*
Y4920D01*
X6092Y4728D02*
X6142D01*
X6117Y4703D02*
Y4753D01*
X6092Y4815D02*
X6142D01*
X6117Y4790D02*
Y4840D01*
X6095Y4895D02*
X6145D01*
X6120Y4870D02*
Y4920D01*
X6345Y4815D02*
X6395D01*
X6370Y4790D02*
Y4840D01*
X6345Y4730D02*
X6395D01*
X6370Y4705D02*
Y4755D01*
X6353Y11015D02*
X6403D01*
X6378Y10990D02*
Y11040D01*
X6353Y11100D02*
X6403D01*
X6378Y11075D02*
Y11125D01*
X6097Y11180D02*
X6147D01*
X6122Y11155D02*
Y11205D01*
X6095Y11097D02*
X6145D01*
X6120Y11072D02*
Y11122D01*
X6095Y11012D02*
X6145D01*
X6120Y10988D02*
Y11038D01*
X6353Y11180D02*
X6403D01*
X6378Y11155D02*
Y11205D01*
X5648Y11250D02*
X5902D01*
X5775Y11123D02*
Y11377D01*
X13745Y10745D02*
X13785D01*
X13765Y10725D02*
Y10765D01*
X13618Y10738D02*
X13657D01*
X13638Y10718D02*
Y10757D01*
X13615Y10845D02*
X13655D01*
X13635Y10825D02*
Y10865D01*
X13612Y10953D02*
X13652D01*
X13632Y10932D02*
Y10972D01*
X13740Y10953D02*
X13780D01*
X13760Y10932D02*
Y10972D01*
X4973Y4845D02*
X5227D01*
X5100Y4718D02*
Y4972D01*
X5648Y4845D02*
X5902D01*
X5775Y4718D02*
Y4972D01*
X5076Y5242D02*
X5116D01*
X5096Y5222D02*
Y5262D01*
X5839Y10818D02*
X5879D01*
X5859Y10798D02*
Y10838D01*
X4973Y11250D02*
X5227D01*
X5100Y11123D02*
Y11377D01*
X13657Y10412D02*
X13698D01*
X13677Y10393D02*
Y10432D01*
X13662Y11200D02*
X13702D01*
X13682Y11180D02*
Y11220D01*
X13740Y11062D02*
X13780D01*
X13760Y11043D02*
Y11082D01*
X13745Y10845D02*
X13785D01*
X13765Y10825D02*
Y10865D01*
X13610Y11060D02*
X13650D01*
X13630Y11040D02*
Y11080D01*
X13932Y11345D02*
X14003D01*
X13968Y11309D02*
Y11381D01*
X13647Y11345D02*
X13718D01*
X13682Y11309D02*
Y11381D01*
X13862Y10075D02*
X13933D01*
X13898Y10039D02*
Y10111D01*
X13862Y9640D02*
X13933D01*
X13898Y9604D02*
Y9676D01*
X12889Y8220D02*
X12961D01*
X12925Y8184D02*
Y8256D01*
X9657Y8315D02*
X9697D01*
X9678Y8295D02*
Y8335D01*
X10665Y7793D02*
X10705D01*
X10685Y7772D02*
Y7812D01*
X10778Y7858D02*
X10818D01*
X10798Y7838D02*
Y7878D01*
X10543Y7715D02*
X10582D01*
X10562Y7695D02*
Y7735D01*
X11629Y9568D02*
X11701D01*
X11665Y9532D02*
Y9603D01*
X9132Y8167D02*
X9203D01*
X9168Y8131D02*
Y8202D01*
X8750Y10925D02*
X8790D01*
X8770Y10905D02*
Y10945D01*
X8750Y10800D02*
X8790D01*
X8770Y10780D02*
Y10820D01*
X8753Y10668D02*
X8793D01*
X8772Y10647D02*
Y10688D01*
X9468Y10790D02*
X9507D01*
X9488Y10770D02*
Y10810D01*
X9470Y10662D02*
X9510D01*
X9490Y10643D02*
Y10682D01*
X9468Y10910D02*
X9507D01*
X9488Y10890D02*
Y10930D01*
X10757Y10657D02*
X10797D01*
X10778Y10638D02*
Y10678D01*
X10747Y11430D02*
X10788D01*
X10768Y11410D02*
Y11450D01*
X10880Y11430D02*
X10920D01*
X10900Y11410D02*
Y11450D01*
X11003Y11430D02*
X11043D01*
X11022Y11410D02*
Y11450D01*
X10985Y10660D02*
X11025D01*
X11005Y10640D02*
Y10680D01*
X8488Y8690D02*
X8528D01*
X8507Y8670D02*
Y8710D01*
X11157Y9910D02*
X11197D01*
X11178Y9890D02*
Y9930D01*
X11910Y5660D02*
X11950D01*
X11930Y5640D02*
Y5680D01*
X6750Y5133D02*
X6790D01*
X6770Y5113D02*
Y5153D01*
X9174Y4962D02*
X9214D01*
X9194Y4942D02*
Y4982D01*
X9588Y4962D02*
X9628D01*
X9607Y4942D02*
Y4983D01*
X9988Y4958D02*
X10028D01*
X10007Y4938D02*
Y4978D01*
X11782Y5272D02*
X11822D01*
X11803Y5253D02*
Y5292D01*
X9230Y7740D02*
X9270D01*
X9250Y7720D02*
Y7760D01*
X9232Y7838D02*
X9272D01*
X9253Y7818D02*
Y7857D01*
X8162Y5127D02*
X8202D01*
X8182Y5107D02*
Y5147D01*
X10000Y4635D02*
X10040D01*
X10020Y4615D02*
Y4655D01*
X12435Y4515D02*
X12475D01*
X12455Y4495D02*
Y4535D01*
X7213Y5127D02*
X7253D01*
X7233Y5107D02*
Y5147D01*
X12535Y4397D02*
X12575D01*
X12555Y4378D02*
Y4417D01*
X11650Y5360D02*
X11690D01*
X11670Y5340D02*
Y5380D01*
X11360Y5142D02*
X11400D01*
X11380Y5122D02*
Y5162D01*
X8478Y7160D02*
X8518D01*
X8497Y7140D02*
Y7180D01*
X9378Y6765D02*
X9418D01*
X9397Y6745D02*
Y6785D01*
X9507Y6838D02*
X9547D01*
X9528Y6818D02*
Y6858D01*
X5779Y9139D02*
X5819D01*
X5799Y9119D02*
Y9159D01*
X5779Y8918D02*
X5819D01*
X5799Y8898D02*
Y8938D01*
X5784Y8681D02*
X5824D01*
X5804Y8661D02*
Y8701D01*
X5789Y8461D02*
X5829D01*
X5809Y8441D02*
Y8481D01*
X5787Y6739D02*
X5827D01*
X5807Y6719D02*
Y6759D01*
X5792Y6994D02*
X5832D01*
X5812Y6974D02*
Y7014D01*
X5794Y7242D02*
X5834D01*
X5814Y7222D02*
Y7262D01*
X5799Y7512D02*
X5839D01*
X5819Y7492D02*
Y7532D01*
X5892Y6444D02*
X5932D01*
X5912Y6424D02*
Y6464D01*
X5972Y6512D02*
X6012D01*
X5992Y6493D02*
Y6532D01*
X8382Y5753D02*
X8422D01*
X8402Y5733D02*
Y5773D01*
X7915Y5745D02*
X7955D01*
X7935Y5725D02*
Y5765D01*
X7438Y5755D02*
X7478D01*
X7457Y5735D02*
Y5775D01*
X8557Y4425D02*
X8628D01*
X8593Y4389D02*
Y4461D01*
X9952Y9732D02*
X10023D01*
X9988Y9697D02*
Y9768D01*
X6333Y8538D02*
X6372D01*
X6353Y8518D02*
Y8557D01*
X6262Y8653D02*
X6303D01*
X6283Y8632D02*
Y8672D01*
X7838Y8572D02*
X7878D01*
X7857Y8553D02*
Y8593D01*
X6972Y5750D02*
X7012D01*
X6993Y5730D02*
Y5770D01*
X13089Y8222D02*
X13161D01*
X13125Y8187D02*
Y8258D01*
X12689Y8210D02*
X12761D01*
X12725Y8174D02*
Y8246D01*
X8703Y9575D02*
X8743D01*
X8722Y9555D02*
Y9595D01*
X8243Y8938D02*
X8282D01*
X8262Y8918D02*
Y8957D01*
X8380Y8822D02*
X8420D01*
X8400Y8803D02*
Y8843D01*
X12207Y10093D02*
X12247D01*
X12228Y10072D02*
Y10112D01*
X11872Y10130D02*
X11912D01*
X11893Y10110D02*
Y10150D01*
X11870Y9880D02*
X11910D01*
X11890Y9860D02*
Y9900D01*
X8703Y7497D02*
X8743D01*
X8722Y7478D02*
Y7518D01*
X7945Y8497D02*
X7985D01*
X7965Y8478D02*
Y8518D01*
X7234Y8020D02*
X7306D01*
X7270Y7984D02*
Y8056D01*
X8212Y11203D02*
X8253D01*
X8232Y11182D02*
Y11222D01*
X7972Y9360D02*
X8043D01*
X8007Y9324D02*
Y9396D01*
X7752Y9365D02*
X7823D01*
X7788Y9329D02*
Y9401D01*
X7752Y9183D02*
X7823D01*
X7788Y9147D02*
Y9218D01*
X7927Y6662D02*
X7998D01*
X7962Y6627D02*
Y6698D01*
X7744Y6662D02*
X7816D01*
X7780Y6627D02*
Y6698D01*
X7749Y6882D02*
X7821D01*
X7785Y6847D02*
Y6918D01*
X9804Y9368D02*
X9876D01*
X9840Y9332D02*
Y9403D01*
X8763Y6713D02*
X8803D01*
X8783Y6693D02*
Y6733D01*
X7695Y5128D02*
X7735D01*
X7715Y5108D02*
Y5148D01*
X9147Y6238D02*
X9188D01*
X9168Y6217D02*
Y6258D01*
X9290Y6210D02*
X9330D01*
X9310Y6190D02*
Y6230D01*
X9065Y6358D02*
X9105D01*
X9085Y6338D02*
Y6378D01*
X9872Y7285D02*
X9912D01*
X9893Y7265D02*
Y7305D01*
X10072Y7478D02*
X10112D01*
X10093Y7457D02*
Y7497D01*
X10915Y8030D02*
X10955D01*
X10935Y8010D02*
Y8050D01*
X8932Y5553D02*
X8972D01*
X8953Y5533D02*
Y5572D01*
X9450Y5428D02*
X9490D01*
X9470Y5408D02*
Y5447D01*
X9743Y5428D02*
X9782D01*
X9762Y5408D02*
Y5447D01*
X10312Y5428D02*
X10353D01*
X10332Y5408D02*
Y5447D01*
X10518Y5428D02*
X10557D01*
X10538Y5408D02*
Y5447D01*
X10707Y5428D02*
X10747D01*
X10728Y5408D02*
Y5447D01*
X10907Y5428D02*
X10947D01*
X10928Y5408D02*
Y5447D01*
X11132Y5428D02*
X11172D01*
X11153Y5408D02*
Y5447D01*
X11430Y5428D02*
X11470D01*
X11450Y5408D02*
Y5447D01*
X11464Y8038D02*
X11536D01*
X11500Y8002D02*
Y8073D01*
X12202Y5480D02*
X12273D01*
X12238Y5444D02*
Y5516D01*
X8593Y7722D02*
X8632D01*
X8612Y7703D02*
Y7743D01*
X10015Y8797D02*
X10055D01*
X10035Y8778D02*
Y8818D01*
X9974Y8664D02*
X10014D01*
X9994Y8644D02*
Y8684D01*
X8823Y7109D02*
X8863D01*
X8843Y7089D02*
Y7129D01*
X8500Y7605D02*
X8540D01*
X8520Y7585D02*
Y7625D01*
X5671Y5584D02*
X5711D01*
X5691Y5564D02*
Y5604D01*
X5182Y10466D02*
X5222D01*
X5202Y10446D02*
Y10486D01*
X6671Y12028D02*
X6925D01*
X6797Y11900D02*
Y12154D01*
X6671Y4028D02*
X6925D01*
X6797Y3901D02*
Y4154D01*
X14671Y4028D02*
X14924D01*
X14798Y3901D02*
Y4154D01*
X14671Y12028D02*
X14924D01*
X14798Y11900D02*
Y12154D01*
X7322Y11580D02*
X7393D01*
X7357Y11544D02*
Y11616D01*
X10789Y4035D02*
X10860D01*
X10825Y4000D02*
Y4071D01*
X7594Y8122D02*
X7666D01*
X7630Y8087D02*
Y8158D01*
X12977Y8570D02*
X13048D01*
X13012Y8534D02*
Y8606D01*
X9282Y9828D02*
X9353D01*
X9318Y9792D02*
Y9863D01*
X10562Y9812D02*
X10633D01*
X10597Y9777D02*
Y9848D01*
X10812Y9680D02*
X10853D01*
X10832Y9660D02*
Y9700D01*
X9565Y8388D02*
X9605D01*
X9585Y8368D02*
Y8407D01*
X13490Y10412D02*
X13530D01*
X13510Y10393D02*
Y10432D01*
X13940Y10540D02*
X13980D01*
X13960Y10520D02*
Y10560D01*
M02*
