G04 Layer_Color=16711935*
%FSLAX42Y42*%
%MOMM*%
G71*
G01*
G75*
%ADD66C,1.70*%
%ADD95R,1.70X1.70*%
%ADD96R,1.70X1.70*%
%ADD97C,0.90*%
%ADD98R,1.73X1.20*%
%ADD99O,1.73X1.20*%
%ADD100R,1.20X1.73*%
%ADD101O,1.20X1.73*%
%ADD102C,0.70*%
%ADD103C,3.20*%
%ADD104C,1.00*%
%ADD105C,1.47*%
D66*
X14888Y9368D02*
D03*
X6675Y10097D02*
D03*
Y10351D02*
D03*
Y10606D02*
D03*
Y10860D02*
D03*
Y11114D02*
D03*
X10061Y10003D02*
D03*
X9807D02*
D03*
X14748Y11285D02*
D03*
X8831Y11327D02*
D03*
X11418Y11325D02*
D03*
X9090Y10005D02*
D03*
X8836D02*
D03*
X12805Y9393D02*
D03*
D95*
X14888Y9622D02*
D03*
X6675Y11368D02*
D03*
X11418Y11071D02*
D03*
X12805Y9647D02*
D03*
D96*
X9553Y10003D02*
D03*
X15002Y11285D02*
D03*
X9085Y11327D02*
D03*
X8582Y10005D02*
D03*
D97*
X10886Y8144D02*
D03*
X10738Y7995D02*
D03*
D98*
X5457Y6646D02*
D03*
X5462Y8408D02*
D03*
D99*
X5457Y7154D02*
D03*
X5203Y6773D02*
D03*
X5203Y7281D02*
D03*
X5457Y6900D02*
D03*
Y7408D02*
D03*
X5200Y7027D02*
D03*
X5203Y7535D02*
D03*
X5462Y8916D02*
D03*
X5208Y8535D02*
D03*
X5208Y9043D02*
D03*
X5462Y8662D02*
D03*
Y9170D02*
D03*
X5205Y8789D02*
D03*
X5208Y9297D02*
D03*
D100*
X5901Y12008D02*
D03*
X4974Y3940D02*
D03*
X8112Y4335D02*
D03*
D101*
X5393Y12008D02*
D03*
X5774Y11753D02*
D03*
X5266Y11754D02*
D03*
X5647Y12008D02*
D03*
X5139D02*
D03*
X5520Y11751D02*
D03*
X5012Y11754D02*
D03*
X5482Y3940D02*
D03*
X5101Y4194D02*
D03*
X5609Y4194D02*
D03*
X5228Y3940D02*
D03*
X5736D02*
D03*
X5355Y4197D02*
D03*
X5863Y4194D02*
D03*
X7604Y4335D02*
D03*
X7985Y4080D02*
D03*
X7477Y4081D02*
D03*
X7858Y4335D02*
D03*
X7350D02*
D03*
X7731Y4078D02*
D03*
X7223Y4081D02*
D03*
D102*
X6375Y12153D02*
D03*
Y12238D02*
D03*
X6125Y12318D02*
D03*
X6122Y12238D02*
D03*
Y12150D02*
D03*
X6375Y12318D02*
D03*
Y3638D02*
D03*
Y3722D02*
D03*
X6125Y3803D02*
D03*
X6122Y3722D02*
D03*
Y3635D02*
D03*
X6375Y3803D02*
D03*
X6370Y4895D02*
D03*
X6117Y4728D02*
D03*
Y4815D02*
D03*
X6120Y4895D02*
D03*
X6370Y4815D02*
D03*
Y4730D02*
D03*
X6378Y11015D02*
D03*
Y11100D02*
D03*
X6122Y11180D02*
D03*
X6120Y11097D02*
D03*
Y11012D02*
D03*
X6378Y11180D02*
D03*
D103*
X5775Y11250D02*
D03*
X5100Y4845D02*
D03*
X5775D02*
D03*
X5100Y11250D02*
D03*
X6797Y12028D02*
D03*
Y4028D02*
D03*
X14798D02*
D03*
Y12028D02*
D03*
D104*
X13765Y10745D02*
D03*
X13638Y10738D02*
D03*
X13635Y10845D02*
D03*
X13632Y10953D02*
D03*
X13760D02*
D03*
X5096Y5242D02*
D03*
X5859Y10818D02*
D03*
X13677Y10412D02*
D03*
X13682Y11200D02*
D03*
X13760Y11062D02*
D03*
X13765Y10845D02*
D03*
X13630Y11060D02*
D03*
X9678Y8315D02*
D03*
X10685Y7793D02*
D03*
X10798Y7858D02*
D03*
X10562Y7715D02*
D03*
X8770Y10925D02*
D03*
Y10800D02*
D03*
X8772Y10668D02*
D03*
X9488Y10790D02*
D03*
X9490Y10662D02*
D03*
X9488Y10910D02*
D03*
X10778Y10657D02*
D03*
X10768Y11430D02*
D03*
X10900D02*
D03*
X11022D02*
D03*
X11005Y10660D02*
D03*
X8507Y8690D02*
D03*
X11178Y9910D02*
D03*
X11930Y5660D02*
D03*
X6770Y5133D02*
D03*
X9194Y4962D02*
D03*
X9607Y4962D02*
D03*
X10007Y4958D02*
D03*
X11803Y5272D02*
D03*
X9250Y7740D02*
D03*
X9253Y7838D02*
D03*
X8182Y5127D02*
D03*
X10020Y4635D02*
D03*
X12455Y4515D02*
D03*
X7233Y5127D02*
D03*
X12555Y4397D02*
D03*
X11670Y5360D02*
D03*
X11380Y5142D02*
D03*
X8497Y7160D02*
D03*
X9397Y6765D02*
D03*
X9528Y6838D02*
D03*
X5799Y9139D02*
D03*
X5799Y8918D02*
D03*
X5804Y8681D02*
D03*
X5809Y8461D02*
D03*
X5807Y6739D02*
D03*
X5812Y6994D02*
D03*
X5814Y7242D02*
D03*
X5819Y7512D02*
D03*
X5912Y6444D02*
D03*
X5992Y6512D02*
D03*
X8402Y5753D02*
D03*
X7935Y5745D02*
D03*
X7457Y5755D02*
D03*
X6353Y8538D02*
D03*
X6283Y8653D02*
D03*
X7857Y8572D02*
D03*
X6993Y5750D02*
D03*
X8722Y9575D02*
D03*
X8262Y8938D02*
D03*
X8400Y8822D02*
D03*
X12228Y10093D02*
D03*
X11893Y10130D02*
D03*
X11890Y9880D02*
D03*
X8722Y7497D02*
D03*
X7965Y8497D02*
D03*
X8232Y11203D02*
D03*
X8783Y6713D02*
D03*
X7715Y5128D02*
D03*
X9168Y6238D02*
D03*
X9310Y6210D02*
D03*
X9085Y6358D02*
D03*
X9893Y7285D02*
D03*
X10093Y7478D02*
D03*
X10935Y8030D02*
D03*
X8953Y5553D02*
D03*
X9470Y5428D02*
D03*
X9762D02*
D03*
X10332D02*
D03*
X10538D02*
D03*
X10728D02*
D03*
X10928D02*
D03*
X11153D02*
D03*
X11450D02*
D03*
X8612Y7722D02*
D03*
X10035Y8797D02*
D03*
X9994Y8664D02*
D03*
X8843Y7109D02*
D03*
X8520Y7605D02*
D03*
X5691Y5584D02*
D03*
X5202Y10466D02*
D03*
X10832Y9680D02*
D03*
X9585Y8388D02*
D03*
X13510Y10412D02*
D03*
X13960Y10540D02*
D03*
D105*
X13968Y11345D02*
D03*
X13682D02*
D03*
X13898Y10075D02*
D03*
Y9640D02*
D03*
X12925Y8220D02*
D03*
X11665Y9568D02*
D03*
X9168Y8167D02*
D03*
X8593Y4425D02*
D03*
X9988Y9732D02*
D03*
X13125Y8222D02*
D03*
X12725Y8210D02*
D03*
X7270Y8020D02*
D03*
X8007Y9360D02*
D03*
X7788Y9365D02*
D03*
Y9183D02*
D03*
X7962Y6662D02*
D03*
X7780D02*
D03*
X7785Y6882D02*
D03*
X9840Y9368D02*
D03*
X11500Y8038D02*
D03*
X12238Y5480D02*
D03*
X7357Y11580D02*
D03*
X10825Y4035D02*
D03*
X7630Y8122D02*
D03*
X13012Y8570D02*
D03*
X9318Y9828D02*
D03*
X10597Y9812D02*
D03*
M02*
