G04 Layer_Color=12632256*
%FSLAX42Y42*%
%MOMM*%
G71*
G01*
G75*
%ADD13C,1.50*%
%ADD45R,1.50X1.50*%
%ADD46R,1.50X1.50*%
%ADD47C,0.70*%
%ADD48R,1.52X1.00*%
%ADD49O,1.52X1.00*%
%ADD50R,1.00X1.52*%
%ADD51O,1.00X1.52*%
D13*
X14888Y9368D02*
D03*
X6675Y10097D02*
D03*
Y10351D02*
D03*
Y10606D02*
D03*
Y10860D02*
D03*
Y11114D02*
D03*
X10061Y10003D02*
D03*
X9807D02*
D03*
X14748Y11285D02*
D03*
X8831Y11327D02*
D03*
X11418Y11325D02*
D03*
X9090Y10005D02*
D03*
X8836D02*
D03*
X12805Y9393D02*
D03*
D45*
X14888Y9622D02*
D03*
X6675Y11368D02*
D03*
X11418Y11071D02*
D03*
X12805Y9647D02*
D03*
D46*
X9553Y10003D02*
D03*
X15002Y11285D02*
D03*
X9085Y11327D02*
D03*
X8582Y10005D02*
D03*
D47*
X10886Y8144D02*
D03*
X10738Y7995D02*
D03*
D48*
X5457Y6646D02*
D03*
X5462Y8408D02*
D03*
D49*
X5457Y7154D02*
D03*
X5203Y6773D02*
D03*
X5203Y7281D02*
D03*
X5457Y6900D02*
D03*
Y7408D02*
D03*
X5200Y7027D02*
D03*
X5203Y7535D02*
D03*
X5462Y8916D02*
D03*
X5208Y8535D02*
D03*
X5208Y9043D02*
D03*
X5462Y8662D02*
D03*
Y9170D02*
D03*
X5205Y8789D02*
D03*
X5208Y9297D02*
D03*
D50*
X5901Y12008D02*
D03*
X4974Y3940D02*
D03*
X8112Y4335D02*
D03*
D51*
X5393Y12008D02*
D03*
X5774Y11753D02*
D03*
X5266Y11754D02*
D03*
X5647Y12008D02*
D03*
X5139D02*
D03*
X5520Y11751D02*
D03*
X5012Y11754D02*
D03*
X5482Y3940D02*
D03*
X5101Y4194D02*
D03*
X5609Y4194D02*
D03*
X5228Y3940D02*
D03*
X5736D02*
D03*
X5355Y4197D02*
D03*
X5863Y4194D02*
D03*
X7604Y4335D02*
D03*
X7985Y4080D02*
D03*
X7477Y4081D02*
D03*
X7858Y4335D02*
D03*
X7350D02*
D03*
X7731Y4078D02*
D03*
X7223Y4081D02*
D03*
M02*
