G04 Layer_Physical_Order=2*
G04 Layer_Color=16711680*
%FSLAX42Y42*%
%MOMM*%
G71*
G01*
G75*
%ADD13C,1.50*%
%ADD41C,0.25*%
%ADD43C,0.76*%
%ADD45R,1.50X1.50*%
%ADD46R,1.50X1.50*%
%ADD47C,0.70*%
%ADD48R,1.52X1.00*%
%ADD49O,1.52X1.00*%
%ADD50R,1.00X1.52*%
%ADD51O,1.00X1.52*%
%ADD52C,0.50*%
%ADD53C,3.00*%
%ADD54C,0.80*%
%ADD55C,1.27*%
%ADD56C,0.51*%
%ADD57C,1.02*%
G36*
X14845Y11506D02*
Y11436D01*
X14850Y11431D01*
X14849Y11337D01*
X14837Y11335D01*
X14836Y11336D01*
X14820Y11357D01*
X14799Y11373D01*
X14788Y11378D01*
Y11285D01*
Y11193D01*
X14799Y11198D01*
X14820Y11214D01*
X14836Y11235D01*
X14836Y11235D01*
X14849Y11232D01*
X14845Y10628D01*
X14023Y10628D01*
Y10561D01*
X14010Y10560D01*
X14010Y10561D01*
X13998Y10578D01*
X13981Y10590D01*
X13960Y10594D01*
X13939Y10590D01*
X13922Y10578D01*
X13914Y10566D01*
X13638D01*
X13628Y10564D01*
X13619Y10558D01*
X13524Y10463D01*
X13510Y10466D01*
X13489Y10462D01*
X13472Y10450D01*
X13460Y10433D01*
X13456Y10412D01*
X13460Y10392D01*
X13472Y10375D01*
X13489Y10363D01*
X13510Y10359D01*
X13531Y10363D01*
X13548Y10375D01*
X13560Y10392D01*
X13564Y10412D01*
X13561Y10427D01*
X13648Y10514D01*
X13914D01*
X13922Y10502D01*
X13939Y10490D01*
X13960Y10486D01*
X13981Y10490D01*
X13998Y10502D01*
X14010Y10519D01*
X14010Y10520D01*
X14023Y10519D01*
X14023Y10082D01*
X14022Y9530D01*
X13002D01*
Y9822D01*
X12641Y9822D01*
X12641Y10593D01*
X11112Y10593D01*
Y10590D01*
X10705D01*
Y10593D01*
X8702Y10593D01*
Y11000D01*
X10705Y11000D01*
X10705Y11500D01*
X11112D01*
X11112Y11000D01*
X11330D01*
Y10983D01*
X11506D01*
Y11000D01*
X12641Y11000D01*
Y11229D01*
X12852Y11440D01*
X14335Y11440D01*
X14335Y11525D01*
X8107Y11525D01*
X8107Y9478D01*
X9997Y9478D01*
X9997Y9250D01*
X8107Y9250D01*
X8107Y8988D01*
X5986Y8988D01*
X5850Y9124D01*
X5852Y9139D01*
X5848Y9159D01*
X5837Y9177D01*
X5819Y9188D01*
X5799Y9192D01*
X5778Y9188D01*
X5761Y9177D01*
X5749Y9159D01*
X5745Y9139D01*
X5749Y9118D01*
X5761Y9101D01*
X5778Y9089D01*
X5799Y9085D01*
X5813Y9088D01*
X5901Y8999D01*
X5897Y8988D01*
X5635Y8988D01*
Y7555D01*
X5641D01*
Y7389D01*
X5643Y7379D01*
X5649Y7370D01*
X5763Y7256D01*
X5760Y7242D01*
X5765Y7221D01*
X5776Y7204D01*
X5794Y7192D01*
X5814Y7188D01*
X5835Y7192D01*
X5852Y7204D01*
X5864Y7221D01*
X5868Y7242D01*
X5864Y7262D01*
X5852Y7280D01*
X5835Y7291D01*
X5814Y7295D01*
X5800Y7293D01*
X5693Y7399D01*
Y7555D01*
X5739D01*
X5768Y7526D01*
X5765Y7512D01*
X5770Y7491D01*
X5781Y7474D01*
X5799Y7462D01*
X5819Y7458D01*
X5840Y7462D01*
X5857Y7474D01*
X5869Y7491D01*
X5873Y7512D01*
X5869Y7532D01*
X5857Y7550D01*
X5840Y7561D01*
X5819Y7565D01*
X5805Y7563D01*
X5777Y7590D01*
Y8224D01*
X5789Y8229D01*
X6244Y7774D01*
X6253Y7769D01*
X6262Y7767D01*
X8563D01*
X8570Y7754D01*
X8563Y7743D01*
X8559Y7722D01*
X8563Y7702D01*
X8575Y7685D01*
X8592Y7673D01*
X8612Y7669D01*
X8633Y7673D01*
X8650Y7685D01*
X8663Y7686D01*
X8777Y7572D01*
X9417Y6931D01*
X9483Y6866D01*
X9478Y6858D01*
X9474Y6838D01*
X9478Y6817D01*
X9490Y6800D01*
X9507Y6788D01*
X9528Y6784D01*
X9548Y6788D01*
X9565Y6800D01*
X9577Y6817D01*
X9581Y6838D01*
X9577Y6858D01*
X9565Y6875D01*
X9548Y6887D01*
X9531Y6891D01*
X9454Y6968D01*
X8813Y7608D01*
X8668Y7754D01*
X8671Y7764D01*
X8673Y7767D01*
X9102D01*
X9147Y7722D01*
X9155Y7716D01*
X9165Y7714D01*
X9204D01*
X9212Y7702D01*
X9229Y7690D01*
X9250Y7686D01*
X9271Y7690D01*
X9288Y7702D01*
X9300Y7719D01*
X9304Y7740D01*
X9300Y7761D01*
X9288Y7778D01*
X9283Y7782D01*
Y7794D01*
X9290Y7800D01*
X9302Y7817D01*
X9306Y7838D01*
X9302Y7858D01*
X9290Y7875D01*
X9273Y7887D01*
X9253Y7891D01*
X9232Y7887D01*
X9215Y7875D01*
X9206Y7863D01*
X6296D01*
X5835Y8324D01*
Y8415D01*
X5847Y8423D01*
X5859Y8440D01*
X5863Y8461D01*
X5859Y8482D01*
X5847Y8499D01*
X5830Y8511D01*
X5809Y8515D01*
X5790Y8511D01*
X5786Y8512D01*
X5777Y8517D01*
Y8618D01*
X5790Y8631D01*
X5804Y8628D01*
X5825Y8632D01*
X5842Y8643D01*
X5854Y8661D01*
X5858Y8681D01*
X5854Y8702D01*
X5842Y8719D01*
X5825Y8731D01*
X5804Y8735D01*
X5790Y8732D01*
X5777Y8741D01*
Y8758D01*
X5786Y8767D01*
X6342D01*
X6346Y8761D01*
X6347Y8754D01*
X6297Y8703D01*
X6283Y8706D01*
X6262Y8702D01*
X6245Y8690D01*
X6233Y8673D01*
X6229Y8653D01*
X6233Y8632D01*
X6245Y8615D01*
X6262Y8603D01*
X6283Y8599D01*
X6303Y8603D01*
X6320Y8615D01*
X6332Y8632D01*
X6336Y8653D01*
X6333Y8667D01*
X6378Y8712D01*
X6472D01*
X6477Y8699D01*
X6367Y8588D01*
X6353Y8591D01*
X6332Y8587D01*
X6315Y8575D01*
X6303Y8558D01*
X6299Y8538D01*
X6303Y8517D01*
X6315Y8500D01*
X6332Y8488D01*
X6353Y8484D01*
X6373Y8488D01*
X6390Y8500D01*
X6402Y8517D01*
X6406Y8538D01*
X6403Y8552D01*
X6516Y8664D01*
X7729D01*
X7807Y8587D01*
X7804Y8572D01*
X7808Y8552D01*
X7820Y8535D01*
X7837Y8523D01*
X7857Y8519D01*
X7878Y8523D01*
X7895Y8535D01*
X7907Y8552D01*
X7908Y8555D01*
X7922Y8561D01*
X7925Y8559D01*
Y8532D01*
X7916Y8518D01*
X7912Y8497D01*
X7916Y8477D01*
X7927Y8460D01*
X7945Y8448D01*
X7965Y8444D01*
X7986Y8448D01*
X8003Y8460D01*
X8009Y8468D01*
X8025Y8470D01*
X8203Y8293D01*
X8293D01*
X8295Y8291D01*
X8305Y8289D01*
X9631D01*
X9640Y8277D01*
X9657Y8265D01*
X9678Y8261D01*
X9698Y8265D01*
X9715Y8277D01*
X9726Y8293D01*
X9762D01*
X10287Y8817D01*
X13487Y8817D01*
X13488Y4579D01*
X12920Y4011D01*
X11049D01*
X11024Y4006D01*
X11003Y3992D01*
X10923Y3912D01*
X7692Y3912D01*
X7541Y4063D01*
Y4107D01*
X7536Y4131D01*
X7522Y4152D01*
X7516Y4156D01*
X7520Y4169D01*
X7692D01*
X7696Y4156D01*
X7686Y4149D01*
X7672Y4128D01*
X7667Y4104D01*
Y4051D01*
X7672Y4027D01*
X7686Y4006D01*
X7707Y3992D01*
X7731Y3987D01*
X7755Y3992D01*
X7776Y4006D01*
X7790Y4027D01*
X7795Y4051D01*
Y4104D01*
X7790Y4128D01*
X7776Y4149D01*
X7766Y4156D01*
X7770Y4169D01*
X7943D01*
X7947Y4156D01*
X7940Y4151D01*
X7926Y4131D01*
X7921Y4106D01*
Y4054D01*
X7926Y4029D01*
X7940Y4009D01*
X7961Y3995D01*
X7985Y3990D01*
X8009Y3995D01*
X8030Y4009D01*
X8044Y4029D01*
X8049Y4054D01*
Y4106D01*
X8044Y4131D01*
X8030Y4151D01*
X8023Y4156D01*
X8027Y4169D01*
X8528D01*
X8542Y4172D01*
X8555Y4180D01*
X8620Y4245D01*
X8628Y4258D01*
X8631Y4272D01*
Y4359D01*
X8647Y4371D01*
X8659Y4387D01*
X8667Y4405D01*
X8669Y4425D01*
X8670Y4426D01*
X10549D01*
X10715Y4260D01*
X10728Y4252D01*
X10742Y4249D01*
X12613D01*
X12627Y4252D01*
X12640Y4260D01*
X12952Y4573D01*
X12961Y4585D01*
X12964Y4600D01*
Y8154D01*
X12979Y8166D01*
X12992Y8182D01*
X12999Y8200D01*
X13002Y8220D01*
X12999Y8240D01*
X12992Y8258D01*
X12979Y8274D01*
X12963Y8287D01*
X12945Y8294D01*
X12925Y8297D01*
X12905Y8294D01*
X12887Y8287D01*
X12871Y8274D01*
X12858Y8258D01*
X12851Y8240D01*
X12848Y8220D01*
X12851Y8200D01*
X12858Y8182D01*
X12871Y8166D01*
X12886Y8154D01*
Y4616D01*
X12596Y4326D01*
X10759D01*
X10592Y4492D01*
X10591Y4493D01*
X10595Y4506D01*
X12404D01*
X12406Y4495D01*
X12417Y4477D01*
X12435Y4466D01*
X12455Y4462D01*
X12476Y4466D01*
X12493Y4477D01*
X12505Y4495D01*
X12509Y4515D01*
X12505Y4536D01*
X12493Y4553D01*
X12488Y4557D01*
X12492Y4570D01*
X12504D01*
X12529Y4544D01*
Y4444D01*
X12517Y4435D01*
X12505Y4418D01*
X12501Y4397D01*
X12505Y4377D01*
X12517Y4360D01*
X12534Y4348D01*
X12555Y4344D01*
X12576Y4348D01*
X12593Y4360D01*
X12605Y4377D01*
X12609Y4397D01*
X12605Y4418D01*
X12593Y4435D01*
X12581Y4444D01*
Y4555D01*
X12579Y4565D01*
X12573Y4573D01*
X12533Y4614D01*
X12524Y4620D01*
X12514Y4621D01*
X10426D01*
X10416Y4620D01*
X10407Y4614D01*
X10394Y4601D01*
X10074D01*
X10068Y4612D01*
X10070Y4615D01*
X10074Y4635D01*
X10070Y4656D01*
X10058Y4673D01*
X10041Y4685D01*
X10020Y4689D01*
X10000Y4685D01*
X9982Y4673D01*
X9981Y4671D01*
X8208D01*
X7766Y5113D01*
X7768Y5128D01*
X7766Y5142D01*
X7790Y5166D01*
X8130D01*
X8136Y5154D01*
X8132Y5147D01*
X8128Y5127D01*
X8132Y5106D01*
X8144Y5089D01*
X8161Y5077D01*
X8182Y5073D01*
X8202Y5077D01*
X8220Y5089D01*
X8228Y5101D01*
X9694D01*
X9698Y5088D01*
X9694Y5086D01*
X9622Y5013D01*
X9607Y5016D01*
X9587Y5012D01*
X9570Y5000D01*
X9558Y4983D01*
X9557Y4980D01*
X9545Y4976D01*
X9541Y4980D01*
X9533Y4986D01*
X9523Y4988D01*
X9240D01*
X9232Y5000D01*
X9215Y5012D01*
X9194Y5016D01*
X9174Y5012D01*
X9156Y5000D01*
X9145Y4982D01*
X9141Y4962D01*
X9145Y4941D01*
X9156Y4924D01*
X9174Y4912D01*
X9194Y4908D01*
X9215Y4912D01*
X9232Y4924D01*
X9240Y4936D01*
X9512D01*
X9517Y4931D01*
X9518Y4926D01*
X9524Y4917D01*
X9567Y4874D01*
X9575Y4868D01*
X9585Y4866D01*
X11422D01*
X11432Y4868D01*
X11440Y4874D01*
X11788Y5222D01*
X11803Y5219D01*
X11823Y5223D01*
X11840Y5235D01*
X11852Y5252D01*
X11856Y5272D01*
X11853Y5287D01*
X12018Y5452D01*
X12024Y5460D01*
X12026Y5470D01*
Y7630D01*
X12024Y7640D01*
X12018Y7648D01*
X11790Y7876D01*
X11782Y7882D01*
X11772Y7884D01*
X10844D01*
X10836Y7896D01*
X10819Y7907D01*
X10798Y7912D01*
X10777Y7907D01*
X10760Y7896D01*
X10748Y7878D01*
X10744Y7858D01*
X10748Y7837D01*
X10760Y7820D01*
X10766Y7816D01*
X10762Y7803D01*
X10737D01*
X10735Y7813D01*
X10723Y7830D01*
X10706Y7842D01*
X10685Y7846D01*
X10664Y7842D01*
X10647Y7830D01*
X10635Y7813D01*
X10631Y7793D01*
X10635Y7772D01*
X10647Y7755D01*
X10648Y7754D01*
X10645Y7741D01*
X10609D01*
X10600Y7753D01*
X10583Y7765D01*
X10562Y7769D01*
X10542Y7765D01*
X10525Y7753D01*
X10513Y7736D01*
X10509Y7715D01*
X10513Y7694D01*
X10525Y7677D01*
X10542Y7665D01*
X10562Y7661D01*
X10583Y7665D01*
X10600Y7677D01*
X10609Y7689D01*
X11704D01*
X11844Y7549D01*
Y5701D01*
X11362Y5218D01*
X11356Y5210D01*
X11354Y5200D01*
Y5189D01*
X11342Y5180D01*
X11330Y5163D01*
X11328Y5153D01*
X9213D01*
X9212Y5165D01*
X9215Y5166D01*
X9223Y5172D01*
X9333Y5282D01*
X9339Y5290D01*
X9341Y5300D01*
X9339Y5310D01*
X9336Y5314D01*
Y6164D01*
X9348Y6172D01*
X9360Y6189D01*
X9364Y6210D01*
X9360Y6231D01*
X9348Y6248D01*
X9331Y6260D01*
X9310Y6264D01*
X9289Y6260D01*
X9276Y6251D01*
X9263Y6256D01*
Y6315D01*
X9261Y6325D01*
X9256Y6333D01*
X9213Y6376D01*
X9205Y6381D01*
X9195Y6383D01*
X9131D01*
X9123Y6395D01*
X9106Y6407D01*
X9085Y6411D01*
X9064Y6407D01*
X9047Y6395D01*
X9035Y6378D01*
X9031Y6358D01*
X9035Y6337D01*
X9047Y6320D01*
X9064Y6308D01*
X9085Y6304D01*
X9106Y6308D01*
X9123Y6320D01*
X9131Y6332D01*
X9184D01*
X9212Y6304D01*
Y6287D01*
X9199Y6280D01*
X9188Y6287D01*
X9168Y6291D01*
X9147Y6287D01*
X9130Y6275D01*
X9118Y6258D01*
X9114Y6238D01*
X9118Y6217D01*
X9130Y6200D01*
X9142Y6191D01*
X9144Y5378D01*
X9094Y5328D01*
X7230D01*
X7220Y5326D01*
X7212Y5321D01*
X7050Y5159D01*
X6816D01*
X6808Y5171D01*
X6790Y5182D01*
X6770Y5187D01*
X6749Y5182D01*
X6732Y5171D01*
X6720Y5153D01*
X6716Y5133D01*
X6720Y5112D01*
X6732Y5095D01*
X6749Y5083D01*
X6770Y5079D01*
X6784Y5082D01*
X7352Y4514D01*
X7361Y4508D01*
X7371Y4506D01*
X8556D01*
X8558Y4493D01*
X8554Y4492D01*
X8538Y4479D01*
X8526Y4463D01*
X8518Y4445D01*
X8516Y4425D01*
X8518Y4405D01*
X8526Y4387D01*
X8538Y4371D01*
X8554Y4359D01*
Y4289D01*
X8511Y4246D01*
X8175D01*
Y4423D01*
X8049D01*
Y4246D01*
X7901D01*
X7897Y4259D01*
X7903Y4263D01*
X7917Y4284D01*
X7922Y4308D01*
Y4361D01*
X7917Y4385D01*
X7903Y4406D01*
X7882Y4420D01*
X7858Y4425D01*
X7834Y4420D01*
X7813Y4406D01*
X7799Y4385D01*
X7794Y4361D01*
Y4308D01*
X7799Y4284D01*
X7813Y4263D01*
X7819Y4259D01*
X7815Y4246D01*
X7647D01*
X7643Y4259D01*
X7649Y4263D01*
X7663Y4284D01*
X7668Y4308D01*
Y4361D01*
X7663Y4385D01*
X7649Y4406D01*
X7628Y4420D01*
X7604Y4425D01*
X7580Y4420D01*
X7559Y4406D01*
X7545Y4385D01*
X7540Y4361D01*
Y4308D01*
X7545Y4284D01*
X7559Y4263D01*
X7565Y4259D01*
X7561Y4246D01*
X7413D01*
X7407Y4259D01*
X7416Y4270D01*
X7423Y4289D01*
X7424Y4294D01*
X7276D01*
X7277Y4289D01*
X7284Y4270D01*
X7296Y4255D01*
X7312Y4242D01*
X7312Y4242D01*
X7315Y4227D01*
X7251Y4163D01*
X7247Y4166D01*
X7223Y4171D01*
X7199Y4166D01*
X7178Y4152D01*
X7164Y4131D01*
X7159Y4107D01*
Y4054D01*
X7164Y4030D01*
X7178Y4009D01*
X7199Y3995D01*
X7217Y3992D01*
X7216Y3979D01*
X7119D01*
X7076Y4021D01*
Y4240D01*
X7073Y4255D01*
X7065Y4267D01*
X6866Y4466D01*
X6854Y4475D01*
X6839Y4478D01*
X6620D01*
X6536Y4561D01*
Y5651D01*
X6596Y5711D01*
X6956D01*
X6972Y5700D01*
X6993Y5696D01*
X7013Y5700D01*
X7030Y5712D01*
X7033Y5716D01*
X7421D01*
X7437Y5705D01*
X7457Y5701D01*
X7478Y5705D01*
X7479Y5706D01*
X7899D01*
X7915Y5695D01*
X7935Y5691D01*
X7956Y5695D01*
X7973Y5707D01*
X7978Y5714D01*
X8365D01*
X8382Y5703D01*
X8402Y5699D01*
X8423Y5703D01*
X8440Y5715D01*
X8452Y5732D01*
X8456Y5753D01*
X8452Y5773D01*
X8440Y5791D01*
X8423Y5802D01*
X8402Y5806D01*
X8382Y5802D01*
X8365Y5792D01*
X7960D01*
X7956Y5794D01*
X7935Y5799D01*
X7915Y5794D01*
X7899Y5784D01*
X7502D01*
X7495Y5793D01*
X7478Y5805D01*
X7457Y5809D01*
X7437Y5805D01*
X7421Y5794D01*
X7022D01*
X7013Y5800D01*
X6993Y5804D01*
X6972Y5800D01*
X6956Y5789D01*
X6580D01*
X6565Y5786D01*
X6553Y5777D01*
X6480Y5705D01*
X6468Y5710D01*
Y6158D01*
X4912D01*
Y9788D01*
X6415Y9788D01*
Y10717D01*
X6563Y10865D01*
X6564Y10864D01*
X6574Y10858D01*
X6577Y10833D01*
X6587Y10809D01*
X6603Y10788D01*
X6624Y10772D01*
X6635Y10767D01*
Y10860D01*
X6675D01*
Y10900D01*
X6767D01*
X6763Y10910D01*
X6747Y10931D01*
X6726Y10947D01*
X6701Y10957D01*
X6677Y10961D01*
X6670Y10971D01*
X6670Y10972D01*
X6958Y11260D01*
Y11532D01*
X7212Y11785D01*
X14566D01*
X14845Y11506D01*
D02*
G37*
G36*
X6099Y12180D02*
X6095Y12177D01*
X6087Y12165D01*
X6084Y12150D01*
X6087Y12135D01*
X6095Y12123D01*
X6099Y12120D01*
Y11253D01*
X6062Y11225D01*
Y10950D01*
X6099Y10913D01*
Y10203D01*
X4839D01*
Y12198D01*
X6099D01*
Y12180D01*
D02*
G37*
G36*
X12485Y10257D02*
X12485Y9720D01*
X11367Y9720D01*
Y9412D01*
X10860Y8905D01*
X8918D01*
X8607Y8595D01*
X8396Y8595D01*
X8202Y8851D01*
X8203Y9020D01*
X8580D01*
X8751Y9191D01*
X10564D01*
X10922Y9550D01*
Y9972D01*
X11070Y10120D01*
X11790Y10120D01*
X11790Y10257D01*
X12485Y10257D01*
D02*
G37*
G36*
X11757Y9643D02*
X11757Y9329D01*
X11849Y9250D01*
X14442Y9250D01*
Y9490D01*
X15005Y9490D01*
X15005Y9263D01*
X14780Y9038D01*
X11728Y9038D01*
X11570Y9195D01*
X11570Y9634D01*
X11581Y9645D01*
X11757Y9643D01*
D02*
G37*
G36*
X6054Y3657D02*
X4785D01*
Y5762D01*
X6054D01*
Y3657D01*
D02*
G37*
%LPC*%
G36*
X14708Y11378D02*
X14698Y11373D01*
X14677Y11357D01*
X14661Y11336D01*
X14656Y11325D01*
X14708D01*
Y11378D01*
D02*
G37*
G36*
Y11245D02*
X14656D01*
X14661Y11235D01*
X14677Y11214D01*
X14698Y11198D01*
X14708Y11193D01*
Y11245D01*
D02*
G37*
G36*
X6767Y10819D02*
X6715D01*
Y10767D01*
X6726Y10772D01*
X6747Y10788D01*
X6763Y10809D01*
X6767Y10819D01*
D02*
G37*
G36*
X6675Y10694D02*
X6652Y10691D01*
X6631Y10682D01*
X6612Y10668D01*
X6598Y10650D01*
X6590Y10628D01*
X6587Y10606D01*
X6590Y10583D01*
X6598Y10561D01*
X6612Y10543D01*
X6631Y10529D01*
X6652Y10520D01*
X6675Y10517D01*
X6698Y10520D01*
X6719Y10529D01*
X6738Y10543D01*
X6752Y10561D01*
X6760Y10583D01*
X6763Y10606D01*
X6760Y10628D01*
X6752Y10650D01*
X6738Y10668D01*
X6719Y10682D01*
X6698Y10691D01*
X6675Y10694D01*
D02*
G37*
G36*
Y10440D02*
X6652Y10437D01*
X6631Y10428D01*
X6612Y10414D01*
X6598Y10396D01*
X6590Y10374D01*
X6587Y10351D01*
X6590Y10329D01*
X6598Y10307D01*
X6612Y10289D01*
X6631Y10275D01*
X6652Y10266D01*
X6675Y10263D01*
X6698Y10266D01*
X6719Y10275D01*
X6738Y10289D01*
X6752Y10307D01*
X6760Y10329D01*
X6763Y10351D01*
X6760Y10374D01*
X6752Y10396D01*
X6738Y10414D01*
X6719Y10428D01*
X6698Y10437D01*
X6675Y10440D01*
D02*
G37*
G36*
Y10186D02*
X6652Y10183D01*
X6631Y10174D01*
X6612Y10160D01*
X6598Y10142D01*
X6590Y10120D01*
X6587Y10097D01*
X6590Y10075D01*
X6598Y10053D01*
X6612Y10035D01*
X6631Y10021D01*
X6652Y10012D01*
X6675Y10009D01*
X6698Y10012D01*
X6719Y10021D01*
X6738Y10035D01*
X6752Y10053D01*
X6760Y10075D01*
X6763Y10097D01*
X6760Y10120D01*
X6752Y10142D01*
X6738Y10160D01*
X6719Y10174D01*
X6698Y10183D01*
X6675Y10186D01*
D02*
G37*
G36*
X5235Y9361D02*
X5182D01*
X5158Y9356D01*
X5137Y9342D01*
X5123Y9322D01*
X5118Y9297D01*
X5123Y9273D01*
X5137Y9252D01*
X5158Y9238D01*
X5182Y9233D01*
X5235D01*
X5259Y9238D01*
X5280Y9252D01*
X5294Y9273D01*
X5299Y9297D01*
X5294Y9322D01*
X5280Y9342D01*
X5259Y9356D01*
X5235Y9361D01*
D02*
G37*
G36*
X5502Y9244D02*
Y9210D01*
X5553D01*
X5542Y9224D01*
X5527Y9236D01*
X5508Y9244D01*
X5502Y9244D01*
D02*
G37*
G36*
X5422Y9244D02*
X5417Y9244D01*
X5398Y9236D01*
X5382Y9224D01*
X5372Y9210D01*
X5422D01*
Y9244D01*
D02*
G37*
G36*
X5553Y9130D02*
X5502D01*
Y9096D01*
X5508Y9097D01*
X5527Y9104D01*
X5542Y9116D01*
X5553Y9130D01*
D02*
G37*
G36*
X5422D02*
X5372D01*
X5382Y9116D01*
X5398Y9104D01*
X5417Y9097D01*
X5422Y9096D01*
Y9130D01*
D02*
G37*
G36*
X5235Y9107D02*
X5182D01*
X5158Y9102D01*
X5137Y9088D01*
X5123Y9068D01*
X5118Y9043D01*
X5123Y9019D01*
X5137Y8998D01*
X5158Y8984D01*
X5182Y8979D01*
X5235D01*
X5259Y8984D01*
X5280Y8998D01*
X5294Y9019D01*
X5299Y9043D01*
X5294Y9068D01*
X5280Y9088D01*
X5259Y9102D01*
X5235Y9107D01*
D02*
G37*
G36*
X5489Y8980D02*
X5436D01*
X5412Y8975D01*
X5391Y8961D01*
X5377Y8941D01*
X5372Y8916D01*
X5377Y8892D01*
X5391Y8871D01*
X5412Y8857D01*
X5436Y8852D01*
X5489D01*
X5513Y8857D01*
X5534Y8871D01*
X5548Y8892D01*
X5553Y8916D01*
X5548Y8941D01*
X5534Y8961D01*
X5513Y8975D01*
X5489Y8980D01*
D02*
G37*
G36*
X5232Y8853D02*
X5179D01*
X5155Y8848D01*
X5134Y8834D01*
X5120Y8814D01*
X5115Y8789D01*
X5120Y8765D01*
X5134Y8744D01*
X5155Y8730D01*
X5179Y8725D01*
X5232D01*
X5256Y8730D01*
X5277Y8744D01*
X5291Y8765D01*
X5296Y8789D01*
X5291Y8814D01*
X5277Y8834D01*
X5256Y8848D01*
X5232Y8853D01*
D02*
G37*
G36*
X5489Y8726D02*
X5436D01*
X5412Y8721D01*
X5391Y8707D01*
X5377Y8687D01*
X5372Y8662D01*
X5377Y8638D01*
X5391Y8617D01*
X5412Y8603D01*
X5436Y8598D01*
X5489D01*
X5513Y8603D01*
X5534Y8617D01*
X5548Y8638D01*
X5553Y8662D01*
X5548Y8687D01*
X5534Y8707D01*
X5513Y8721D01*
X5489Y8726D01*
D02*
G37*
G36*
X13012Y8647D02*
X12993Y8644D01*
X12974Y8637D01*
X12958Y8624D01*
X12956Y8622D01*
X10457D01*
X10438Y8618D01*
X10421Y8607D01*
X10033Y8219D01*
X9224D01*
X9222Y8221D01*
X9206Y8233D01*
X9187Y8241D01*
X9168Y8244D01*
X9148Y8241D01*
X9129Y8233D01*
X9113Y8221D01*
X9101Y8205D01*
X9093Y8187D01*
X9091Y8167D01*
X9093Y8147D01*
X9101Y8128D01*
X9113Y8113D01*
X9129Y8100D01*
X9148Y8093D01*
X9168Y8090D01*
X9187Y8093D01*
X9206Y8100D01*
X9222Y8113D01*
X9224Y8115D01*
X10054D01*
X10074Y8119D01*
X10091Y8130D01*
X10479Y8518D01*
X12956D01*
X12958Y8516D01*
X12974Y8503D01*
X12993Y8496D01*
X13012Y8493D01*
X13032Y8496D01*
X13051Y8503D01*
X13067Y8516D01*
X13079Y8532D01*
X13087Y8550D01*
X13089Y8570D01*
X13087Y8590D01*
X13079Y8608D01*
X13067Y8624D01*
X13051Y8637D01*
X13032Y8644D01*
X13012Y8647D01*
D02*
G37*
G36*
X5234Y8599D02*
X5182D01*
X5157Y8594D01*
X5137Y8580D01*
X5123Y8560D01*
X5118Y8535D01*
X5123Y8511D01*
X5137Y8490D01*
X5157Y8476D01*
X5182Y8471D01*
X5234D01*
X5259Y8476D01*
X5279Y8490D01*
X5293Y8511D01*
X5298Y8535D01*
X5293Y8560D01*
X5279Y8580D01*
X5259Y8594D01*
X5234Y8599D01*
D02*
G37*
G36*
X5551Y8471D02*
X5374D01*
Y8345D01*
X5551D01*
Y8471D01*
D02*
G37*
G36*
X12632Y8341D02*
X10625D01*
X10610Y8338D01*
X10598Y8330D01*
X10266Y7999D01*
X7357D01*
X7346Y8011D01*
X7347Y8020D01*
X7344Y8040D01*
X7337Y8058D01*
X7324Y8074D01*
X7308Y8087D01*
X7290Y8094D01*
X7270Y8097D01*
X7250Y8094D01*
X7232Y8087D01*
X7216Y8074D01*
X7203Y8058D01*
X7196Y8040D01*
X7193Y8020D01*
X7196Y8000D01*
X7203Y7982D01*
X7216Y7966D01*
X7232Y7953D01*
X7250Y7946D01*
X7270Y7943D01*
X7289Y7946D01*
X7303Y7933D01*
X7315Y7924D01*
X7330Y7921D01*
X10282D01*
X10297Y7924D01*
X10310Y7933D01*
X10641Y8264D01*
X12616D01*
X12651Y8229D01*
X12648Y8210D01*
X12651Y8190D01*
X12658Y8172D01*
X12671Y8156D01*
X12687Y8143D01*
X12705Y8136D01*
X12725Y8133D01*
X12745Y8136D01*
X12763Y8143D01*
X12779Y8156D01*
X12792Y8172D01*
X12799Y8190D01*
X12802Y8210D01*
X12799Y8230D01*
X12792Y8248D01*
X12779Y8264D01*
X12763Y8277D01*
X12745Y8284D01*
X12725Y8287D01*
X12706Y8284D01*
X12660Y8330D01*
X12647Y8338D01*
X12632Y8341D01*
D02*
G37*
G36*
X10886Y8192D02*
X10867Y8189D01*
X10852Y8178D01*
X10841Y8162D01*
X10837Y8144D01*
X10841Y8125D01*
X10852Y8109D01*
X10867Y8099D01*
X10886Y8095D01*
X10905Y8099D01*
X10920Y8109D01*
X10931Y8125D01*
X10935Y8144D01*
X10931Y8162D01*
X10920Y8178D01*
X10905Y8189D01*
X10886Y8192D01*
D02*
G37*
G36*
X10738Y8044D02*
X10719Y8040D01*
X10703Y8030D01*
X10693Y8014D01*
X10689Y7995D01*
X10693Y7977D01*
X10703Y7961D01*
X10719Y7950D01*
X10738Y7947D01*
X10756Y7950D01*
X10772Y7961D01*
X10782Y7977D01*
X10786Y7995D01*
X10782Y8014D01*
X10772Y8030D01*
X10756Y8040D01*
X10738Y8044D01*
D02*
G37*
G36*
X5230Y7599D02*
X5177D01*
X5153Y7594D01*
X5132Y7580D01*
X5118Y7559D01*
X5113Y7535D01*
X5118Y7510D01*
X5132Y7489D01*
X5153Y7476D01*
X5177Y7471D01*
X5230D01*
X5254Y7476D01*
X5275Y7489D01*
X5289Y7510D01*
X5293Y7535D01*
X5289Y7559D01*
X5275Y7580D01*
X5254Y7594D01*
X5230Y7599D01*
D02*
G37*
G36*
X5497Y7482D02*
Y7448D01*
X5548D01*
X5537Y7461D01*
X5522Y7473D01*
X5503Y7481D01*
X5497Y7482D01*
D02*
G37*
G36*
X5417D02*
X5411Y7481D01*
X5393Y7473D01*
X5377Y7461D01*
X5367Y7448D01*
X5417D01*
Y7482D01*
D02*
G37*
G36*
X5548Y7368D02*
X5497D01*
Y7333D01*
X5503Y7334D01*
X5522Y7342D01*
X5537Y7354D01*
X5548Y7368D01*
D02*
G37*
G36*
X5417D02*
X5367D01*
X5377Y7354D01*
X5393Y7342D01*
X5411Y7334D01*
X5417Y7333D01*
Y7368D01*
D02*
G37*
G36*
X5230Y7345D02*
X5177D01*
X5153Y7340D01*
X5132Y7326D01*
X5118Y7305D01*
X5113Y7281D01*
X5118Y7256D01*
X5132Y7235D01*
X5153Y7222D01*
X5177Y7217D01*
X5230D01*
X5254Y7222D01*
X5275Y7235D01*
X5289Y7256D01*
X5293Y7281D01*
X5289Y7305D01*
X5275Y7326D01*
X5254Y7340D01*
X5230Y7345D01*
D02*
G37*
G36*
X5484Y7218D02*
X5431D01*
X5407Y7213D01*
X5386Y7199D01*
X5372Y7178D01*
X5367Y7154D01*
X5372Y7129D01*
X5386Y7108D01*
X5407Y7095D01*
X5431Y7090D01*
X5484D01*
X5508Y7095D01*
X5529Y7108D01*
X5543Y7129D01*
X5547Y7154D01*
X5543Y7178D01*
X5529Y7199D01*
X5508Y7213D01*
X5484Y7218D01*
D02*
G37*
G36*
X8520Y7659D02*
X8499Y7655D01*
X8482Y7643D01*
X8470Y7626D01*
X8466Y7605D01*
X8470Y7584D01*
X8482Y7567D01*
X8494Y7559D01*
Y7432D01*
X8496Y7423D01*
X8502Y7414D01*
X8792Y7123D01*
X8790Y7109D01*
X8794Y7089D01*
X8805Y7071D01*
X8823Y7060D01*
X8843Y7055D01*
X8864Y7060D01*
X8881Y7071D01*
X8893Y7089D01*
X8897Y7109D01*
X8893Y7130D01*
X8881Y7147D01*
X8864Y7159D01*
X8843Y7163D01*
X8829Y7160D01*
X8546Y7443D01*
Y7559D01*
X8558Y7567D01*
X8570Y7584D01*
X8574Y7605D01*
X8570Y7626D01*
X8558Y7643D01*
X8541Y7655D01*
X8520Y7659D01*
D02*
G37*
G36*
X5227Y7091D02*
X5174D01*
X5150Y7086D01*
X5129Y7072D01*
X5115Y7051D01*
X5110Y7027D01*
X5115Y7002D01*
X5129Y6981D01*
X5150Y6968D01*
X5174Y6963D01*
X5227D01*
X5251Y6968D01*
X5272Y6981D01*
X5286Y7002D01*
X5290Y7027D01*
X5286Y7051D01*
X5272Y7072D01*
X5251Y7086D01*
X5227Y7091D01*
D02*
G37*
G36*
X5484Y6964D02*
X5431D01*
X5407Y6959D01*
X5386Y6945D01*
X5372Y6924D01*
X5367Y6900D01*
X5372Y6875D01*
X5386Y6854D01*
X5407Y6841D01*
X5431Y6836D01*
X5484D01*
X5508Y6841D01*
X5529Y6854D01*
X5543Y6875D01*
X5547Y6900D01*
X5543Y6924D01*
X5529Y6945D01*
X5508Y6959D01*
X5484Y6964D01*
D02*
G37*
G36*
X8722Y7551D02*
X8702Y7547D01*
X8685Y7535D01*
X8673Y7518D01*
X8669Y7497D01*
X8673Y7477D01*
X8685Y7460D01*
X8702Y7448D01*
X8722Y7444D01*
X8737Y7447D01*
X9363Y6821D01*
X9361Y6804D01*
X9360Y6803D01*
X9348Y6786D01*
X9344Y6765D01*
X9348Y6744D01*
X9360Y6727D01*
X9377Y6715D01*
X9397Y6711D01*
X9418Y6715D01*
X9435Y6727D01*
X9447Y6744D01*
X9451Y6765D01*
X9447Y6786D01*
X9435Y6803D01*
X9423Y6811D01*
Y6822D01*
X9421Y6832D01*
X9416Y6841D01*
X8773Y7483D01*
X8776Y7497D01*
X8772Y7518D01*
X8760Y7535D01*
X8743Y7547D01*
X8722Y7551D01*
D02*
G37*
G36*
X5229Y6837D02*
X5177D01*
X5152Y6832D01*
X5131Y6818D01*
X5118Y6797D01*
X5113Y6773D01*
X5118Y6748D01*
X5131Y6727D01*
X5152Y6714D01*
X5177Y6709D01*
X5229D01*
X5253Y6714D01*
X5274Y6727D01*
X5288Y6748D01*
X5293Y6773D01*
X5288Y6797D01*
X5274Y6818D01*
X5253Y6832D01*
X5229Y6837D01*
D02*
G37*
G36*
X8497Y7213D02*
X8477Y7209D01*
X8460Y7198D01*
X8448Y7180D01*
X8444Y7160D01*
X8448Y7139D01*
X8460Y7122D01*
X8472Y7114D01*
Y6998D01*
X8474Y6988D01*
X8479Y6980D01*
X8732Y6727D01*
X8729Y6713D01*
X8733Y6692D01*
X8745Y6675D01*
X8762Y6663D01*
X8783Y6659D01*
X8803Y6663D01*
X8821Y6675D01*
X8833Y6692D01*
X8837Y6713D01*
X8833Y6733D01*
X8821Y6751D01*
X8803Y6762D01*
X8783Y6767D01*
X8769Y6764D01*
X8523Y7009D01*
Y7114D01*
X8535Y7122D01*
X8547Y7139D01*
X8551Y7160D01*
X8547Y7180D01*
X8535Y7198D01*
X8518Y7209D01*
X8497Y7213D01*
D02*
G37*
G36*
X5546Y6708D02*
X5368D01*
Y6583D01*
X5546D01*
Y6708D01*
D02*
G37*
G36*
X5812Y7048D02*
X5791Y7044D01*
X5774Y7032D01*
X5762Y7015D01*
X5758Y6994D01*
X5762Y6974D01*
X5774Y6956D01*
X5791Y6945D01*
X5812Y6940D01*
X5826Y6943D01*
X5967Y6803D01*
Y6559D01*
X5955Y6550D01*
X5950Y6544D01*
X5938Y6548D01*
Y6634D01*
X5936Y6644D01*
X5930Y6653D01*
X5858Y6725D01*
X5860Y6739D01*
X5856Y6760D01*
X5845Y6777D01*
X5827Y6789D01*
X5807Y6793D01*
X5786Y6789D01*
X5769Y6777D01*
X5757Y6760D01*
X5753Y6739D01*
X5757Y6719D01*
X5769Y6701D01*
X5786Y6690D01*
X5807Y6685D01*
X5821Y6688D01*
X5886Y6624D01*
Y6490D01*
X5874Y6482D01*
X5862Y6465D01*
X5858Y6444D01*
X5862Y6424D01*
X5874Y6406D01*
X5891Y6395D01*
X5912Y6390D01*
X5932Y6395D01*
X5950Y6406D01*
X5961Y6424D01*
X5965Y6444D01*
X5964Y6453D01*
X5967Y6457D01*
X5975Y6462D01*
X5992Y6459D01*
X6013Y6463D01*
X6030Y6475D01*
X6042Y6492D01*
X6046Y6512D01*
X6042Y6533D01*
X6030Y6550D01*
X6018Y6559D01*
Y6813D01*
X6016Y6823D01*
X6011Y6832D01*
X5863Y6980D01*
X5865Y6994D01*
X5861Y7015D01*
X5850Y7032D01*
X5832Y7044D01*
X5812Y7048D01*
D02*
G37*
G36*
X7390Y4425D02*
Y4374D01*
X7424D01*
X7423Y4380D01*
X7416Y4399D01*
X7404Y4414D01*
X7390Y4425D01*
D02*
G37*
G36*
X7310D02*
X7296Y4414D01*
X7284Y4399D01*
X7277Y4380D01*
X7276Y4374D01*
X7310D01*
Y4425D01*
D02*
G37*
G36*
X13125Y8299D02*
X13105Y8297D01*
X13087Y8289D01*
X13071Y8277D01*
X13058Y8261D01*
X13051Y8242D01*
X13048Y8222D01*
X13051Y8203D01*
X13058Y8184D01*
X13071Y8168D01*
X13073Y8166D01*
Y4459D01*
X12806Y4192D01*
X10930D01*
X10910Y4188D01*
X10893Y4177D01*
X10828Y4112D01*
X10825Y4112D01*
X10805Y4110D01*
X10786Y4102D01*
X10770Y4090D01*
X10758Y4074D01*
X10750Y4055D01*
X10748Y4035D01*
X10750Y4016D01*
X10758Y3997D01*
X10770Y3981D01*
X10786Y3969D01*
X10805Y3961D01*
X10825Y3959D01*
X10844Y3961D01*
X10863Y3969D01*
X10879Y3981D01*
X10891Y3997D01*
X10899Y4016D01*
X10901Y4035D01*
X10901Y4038D01*
X10951Y4088D01*
X12827D01*
X12847Y4092D01*
X12864Y4103D01*
X13162Y4401D01*
X13173Y4418D01*
X13177Y4438D01*
Y8166D01*
X13179Y8168D01*
X13192Y8184D01*
X13199Y8203D01*
X13202Y8222D01*
X13199Y8242D01*
X13192Y8261D01*
X13179Y8277D01*
X13163Y8289D01*
X13145Y8297D01*
X13125Y8299D01*
D02*
G37*
G36*
X5179Y12098D02*
Y12048D01*
X5214D01*
X5213Y12054D01*
X5205Y12072D01*
X5193Y12088D01*
X5179Y12098D01*
D02*
G37*
G36*
X5099D02*
X5086Y12088D01*
X5074Y12072D01*
X5066Y12054D01*
X5065Y12048D01*
X5099D01*
Y12098D01*
D02*
G37*
G36*
X5964Y12097D02*
X5839D01*
Y11919D01*
X5964D01*
Y12097D01*
D02*
G37*
G36*
X5647Y12098D02*
X5623Y12093D01*
X5602Y12079D01*
X5588Y12058D01*
X5583Y12034D01*
Y11981D01*
X5588Y11957D01*
X5602Y11936D01*
X5623Y11922D01*
X5647Y11918D01*
X5672Y11922D01*
X5693Y11936D01*
X5706Y11957D01*
X5711Y11981D01*
Y12034D01*
X5706Y12058D01*
X5693Y12079D01*
X5672Y12093D01*
X5647Y12098D01*
D02*
G37*
G36*
X5393D02*
X5369Y12093D01*
X5348Y12079D01*
X5334Y12058D01*
X5329Y12034D01*
Y11981D01*
X5334Y11957D01*
X5348Y11936D01*
X5369Y11922D01*
X5393Y11918D01*
X5418Y11922D01*
X5439Y11936D01*
X5452Y11957D01*
X5457Y11981D01*
Y12034D01*
X5452Y12058D01*
X5439Y12079D01*
X5418Y12093D01*
X5393Y12098D01*
D02*
G37*
G36*
X5214Y11968D02*
X5179D01*
Y11917D01*
X5193Y11928D01*
X5205Y11943D01*
X5213Y11962D01*
X5214Y11968D01*
D02*
G37*
G36*
X5099D02*
X5065D01*
X5066Y11962D01*
X5074Y11943D01*
X5086Y11928D01*
X5099Y11917D01*
Y11968D01*
D02*
G37*
G36*
X5859Y11889D02*
X5144D01*
X5134Y11887D01*
X5126Y11881D01*
X5069Y11824D01*
X5058Y11825D01*
X5037Y11839D01*
X5012Y11844D01*
X4988Y11839D01*
X4967Y11825D01*
X4953Y11804D01*
X4948Y11780D01*
Y11727D01*
X4953Y11703D01*
X4967Y11682D01*
X4988Y11668D01*
X5012Y11664D01*
X5037Y11668D01*
X5058Y11682D01*
X5071Y11703D01*
X5076Y11727D01*
Y11758D01*
X5155Y11837D01*
X5218D01*
X5220Y11830D01*
X5221Y11825D01*
X5207Y11804D01*
X5202Y11780D01*
Y11727D01*
X5207Y11703D01*
X5221Y11682D01*
X5242Y11668D01*
X5266Y11664D01*
X5291Y11668D01*
X5312Y11682D01*
X5325Y11703D01*
X5330Y11727D01*
Y11780D01*
X5325Y11804D01*
X5312Y11825D01*
X5313Y11830D01*
X5315Y11837D01*
X5475D01*
X5479Y11825D01*
X5475Y11822D01*
X5461Y11801D01*
X5456Y11777D01*
Y11724D01*
X5461Y11700D01*
X5475Y11679D01*
X5494Y11666D01*
Y11567D01*
X5317Y11390D01*
X5311Y11381D01*
X5309Y11371D01*
Y10609D01*
X5216Y10517D01*
X5202Y10519D01*
X5181Y10515D01*
X5164Y10504D01*
X5152Y10486D01*
X5148Y10466D01*
X5152Y10445D01*
X5164Y10428D01*
X5181Y10416D01*
X5202Y10412D01*
X5222Y10416D01*
X5240Y10428D01*
X5252Y10445D01*
X5256Y10466D01*
X5253Y10480D01*
X5353Y10580D01*
X5359Y10589D01*
X5361Y10599D01*
Y11361D01*
X5539Y11538D01*
X5544Y11547D01*
X5546Y11557D01*
Y11666D01*
X5566Y11679D01*
X5579Y11700D01*
X5584Y11724D01*
Y11777D01*
X5579Y11801D01*
X5566Y11822D01*
X5562Y11825D01*
X5566Y11837D01*
X5726D01*
X5730Y11825D01*
X5729Y11825D01*
X5715Y11804D01*
X5710Y11779D01*
Y11727D01*
X5715Y11702D01*
X5729Y11682D01*
X5750Y11668D01*
X5774Y11663D01*
X5799Y11668D01*
X5820Y11682D01*
X5833Y11702D01*
X5838Y11727D01*
Y11779D01*
X5833Y11804D01*
X5820Y11825D01*
X5819Y11825D01*
X5822Y11837D01*
X5849D01*
X5984Y11702D01*
Y10979D01*
X5874Y10869D01*
X5859Y10872D01*
X5839Y10868D01*
X5821Y10856D01*
X5810Y10839D01*
X5806Y10818D01*
X5810Y10798D01*
X5821Y10780D01*
X5839Y10768D01*
X5859Y10764D01*
X5880Y10768D01*
X5897Y10780D01*
X5909Y10798D01*
X5913Y10818D01*
X5910Y10832D01*
X6028Y10950D01*
X6034Y10959D01*
X6036Y10969D01*
Y11712D01*
X6034Y11722D01*
X6028Y11731D01*
X5878Y11881D01*
X5869Y11887D01*
X5859Y11889D01*
D02*
G37*
G36*
X5775Y11413D02*
X5743Y11410D01*
X5712Y11401D01*
X5684Y11386D01*
X5659Y11366D01*
X5639Y11341D01*
X5624Y11313D01*
X5615Y11282D01*
X5612Y11250D01*
X5615Y11218D01*
X5624Y11187D01*
X5639Y11159D01*
X5659Y11134D01*
X5684Y11114D01*
X5712Y11099D01*
X5743Y11090D01*
X5775Y11087D01*
X5807Y11090D01*
X5838Y11099D01*
X5866Y11114D01*
X5891Y11134D01*
X5911Y11159D01*
X5926Y11187D01*
X5935Y11218D01*
X5938Y11250D01*
X5935Y11282D01*
X5926Y11313D01*
X5911Y11341D01*
X5891Y11366D01*
X5866Y11386D01*
X5838Y11401D01*
X5807Y11410D01*
X5775Y11413D01*
D02*
G37*
G36*
X12228Y10146D02*
X12207Y10142D01*
X12190Y10130D01*
X12178Y10113D01*
X12174Y10093D01*
X12177Y10078D01*
X12147Y10048D01*
X11143D01*
X11133Y10046D01*
X11124Y10041D01*
X11064Y9981D01*
X11059Y9972D01*
X11057Y9962D01*
Y9503D01*
X10687Y9133D01*
X8820D01*
X8810Y9131D01*
X8802Y9126D01*
X8524Y8848D01*
X8446D01*
X8438Y8860D01*
X8421Y8872D01*
X8400Y8876D01*
X8379Y8872D01*
X8362Y8860D01*
X8350Y8843D01*
X8346Y8822D01*
X8350Y8802D01*
X8362Y8785D01*
X8379Y8773D01*
X8400Y8769D01*
X8421Y8773D01*
X8438Y8785D01*
X8446Y8797D01*
X8535D01*
X8545Y8799D01*
X8553Y8804D01*
X8831Y9082D01*
X10697D01*
X10707Y9084D01*
X10716Y9089D01*
X11101Y9474D01*
X11106Y9483D01*
X11108Y9493D01*
Y9952D01*
X11153Y9997D01*
X12157D01*
X12167Y9999D01*
X12176Y10004D01*
X12213Y10042D01*
X12228Y10039D01*
X12248Y10043D01*
X12265Y10055D01*
X12277Y10072D01*
X12281Y10093D01*
X12277Y10113D01*
X12265Y10130D01*
X12248Y10142D01*
X12228Y10146D01*
D02*
G37*
G36*
X11178Y9964D02*
X11157Y9960D01*
X11140Y9948D01*
X11128Y9931D01*
X11124Y9910D01*
X11128Y9889D01*
X11140Y9872D01*
X11152Y9864D01*
Y9662D01*
X11154Y9653D01*
X11159Y9644D01*
Y9448D01*
X10747Y9036D01*
X8835D01*
X8825Y9034D01*
X8817Y9028D01*
X8528Y8740D01*
X8507Y8744D01*
X8487Y8740D01*
X8470Y8728D01*
X8458Y8711D01*
X8454Y8690D01*
X8458Y8669D01*
X8470Y8652D01*
X8487Y8640D01*
X8507Y8636D01*
X8528Y8640D01*
X8545Y8652D01*
X8557Y8669D01*
X8561Y8690D01*
X8560Y8698D01*
X8846Y8984D01*
X10757D01*
X10767Y8986D01*
X10776Y8992D01*
X11203Y9419D01*
X11209Y9428D01*
X11211Y9438D01*
Y9655D01*
X11209Y9665D01*
X11203Y9673D01*
Y9864D01*
X11215Y9872D01*
X11227Y9889D01*
X11231Y9910D01*
X11227Y9931D01*
X11215Y9948D01*
X11198Y9960D01*
X11178Y9964D01*
D02*
G37*
G36*
X14928Y9460D02*
Y9408D01*
X14980D01*
X14976Y9418D01*
X14960Y9439D01*
X14939Y9455D01*
X14928Y9460D01*
D02*
G37*
G36*
X14848Y9460D02*
X14837Y9455D01*
X14816Y9439D01*
X14800Y9418D01*
X14796Y9408D01*
X14848D01*
Y9460D01*
D02*
G37*
G36*
X14980Y9328D02*
X14928D01*
Y9276D01*
X14939Y9280D01*
X14960Y9296D01*
X14976Y9317D01*
X14980Y9328D01*
D02*
G37*
G36*
X14848D02*
X14796D01*
X14800Y9317D01*
X14816Y9296D01*
X14837Y9280D01*
X14848Y9276D01*
Y9328D01*
D02*
G37*
G36*
X5691Y5638D02*
X5670Y5634D01*
X5653Y5622D01*
X5641Y5605D01*
X5637Y5584D01*
X5640Y5570D01*
X5336Y5267D01*
X5331Y5258D01*
X5329Y5248D01*
Y4281D01*
X5309Y4268D01*
X5296Y4247D01*
X5291Y4223D01*
Y4171D01*
X5296Y4146D01*
X5309Y4125D01*
X5330Y4111D01*
X5336Y4110D01*
X5335Y4098D01*
X5129D01*
X5128Y4101D01*
X5127Y4110D01*
X5146Y4123D01*
X5160Y4144D01*
X5165Y4168D01*
Y4220D01*
X5160Y4245D01*
X5146Y4266D01*
X5125Y4279D01*
X5101Y4284D01*
X5076Y4279D01*
X5055Y4266D01*
X5042Y4245D01*
X5037Y4220D01*
Y4168D01*
X5042Y4144D01*
X5055Y4123D01*
X5074Y4110D01*
X5073Y4101D01*
X5072Y4098D01*
X5004D01*
X4851Y4250D01*
Y4961D01*
X5081Y5191D01*
X5096Y5188D01*
X5116Y5192D01*
X5134Y5204D01*
X5145Y5221D01*
X5149Y5242D01*
X5145Y5262D01*
X5134Y5280D01*
X5116Y5291D01*
X5096Y5295D01*
X5075Y5291D01*
X5058Y5280D01*
X5046Y5262D01*
X5042Y5242D01*
X5045Y5227D01*
X4807Y4990D01*
X4802Y4982D01*
X4800Y4972D01*
Y4239D01*
X4802Y4229D01*
X4807Y4221D01*
X4975Y4053D01*
X4983Y4048D01*
X4993Y4046D01*
X5698D01*
X5701Y4033D01*
X5698Y4032D01*
X5682Y4020D01*
X5670Y4004D01*
X5662Y3986D01*
X5661Y3980D01*
X5736D01*
X5810D01*
X5809Y3986D01*
X5801Y4004D01*
X5789Y4020D01*
X5774Y4032D01*
X5759Y4038D01*
X5756Y4048D01*
X5757Y4052D01*
X5759Y4053D01*
X5824Y4118D01*
X5838Y4108D01*
X5863Y4104D01*
X5887Y4108D01*
X5908Y4122D01*
X5922Y4143D01*
X5926Y4167D01*
Y4220D01*
X5922Y4244D01*
X5908Y4265D01*
X5887Y4279D01*
X5863Y4284D01*
X5838Y4279D01*
X5817Y4265D01*
X5804Y4244D01*
X5799Y4220D01*
Y4167D01*
X5799Y4167D01*
X5730Y4098D01*
X5639D01*
X5636Y4110D01*
X5654Y4122D01*
X5668Y4143D01*
X5672Y4167D01*
Y4220D01*
X5668Y4244D01*
X5654Y4265D01*
X5633Y4279D01*
X5609Y4284D01*
X5584Y4279D01*
X5563Y4265D01*
X5550Y4244D01*
X5545Y4220D01*
Y4167D01*
X5550Y4143D01*
X5563Y4122D01*
X5581Y4110D01*
X5578Y4098D01*
X5375D01*
X5373Y4110D01*
X5379Y4111D01*
X5400Y4125D01*
X5414Y4146D01*
X5419Y4171D01*
Y4223D01*
X5414Y4247D01*
X5400Y4268D01*
X5380Y4281D01*
Y5237D01*
X5676Y5533D01*
X5691Y5530D01*
X5711Y5535D01*
X5729Y5546D01*
X5740Y5564D01*
X5744Y5584D01*
X5740Y5605D01*
X5729Y5622D01*
X5711Y5634D01*
X5691Y5638D01*
D02*
G37*
G36*
X5775Y5008D02*
X5743Y5005D01*
X5712Y4996D01*
X5684Y4981D01*
X5659Y4961D01*
X5639Y4936D01*
X5624Y4908D01*
X5615Y4877D01*
X5612Y4845D01*
X5615Y4813D01*
X5624Y4782D01*
X5639Y4754D01*
X5659Y4729D01*
X5684Y4709D01*
X5712Y4694D01*
X5743Y4685D01*
X5775Y4682D01*
X5807Y4685D01*
X5838Y4694D01*
X5866Y4709D01*
X5891Y4729D01*
X5911Y4754D01*
X5926Y4782D01*
X5935Y4813D01*
X5938Y4845D01*
X5935Y4877D01*
X5926Y4908D01*
X5911Y4936D01*
X5891Y4961D01*
X5866Y4981D01*
X5838Y4996D01*
X5807Y5005D01*
X5775Y5008D01*
D02*
G37*
G36*
X5100D02*
X5068Y5005D01*
X5037Y4996D01*
X5009Y4981D01*
X4984Y4961D01*
X4964Y4936D01*
X4949Y4908D01*
X4940Y4877D01*
X4937Y4845D01*
X4940Y4813D01*
X4949Y4782D01*
X4964Y4754D01*
X4984Y4729D01*
X5009Y4709D01*
X5037Y4694D01*
X5068Y4685D01*
X5100Y4682D01*
X5132Y4685D01*
X5163Y4694D01*
X5191Y4709D01*
X5216Y4729D01*
X5236Y4754D01*
X5251Y4782D01*
X5260Y4813D01*
X5263Y4845D01*
X5260Y4877D01*
X5251Y4908D01*
X5236Y4936D01*
X5216Y4961D01*
X5191Y4981D01*
X5163Y4996D01*
X5132Y5005D01*
X5100Y5008D01*
D02*
G37*
G36*
X5036Y4029D02*
X4911D01*
Y3851D01*
X5036D01*
Y4029D01*
D02*
G37*
G36*
X5482Y4030D02*
X5457Y4025D01*
X5436Y4011D01*
X5423Y3990D01*
X5418Y3966D01*
Y3913D01*
X5423Y3889D01*
X5436Y3868D01*
X5457Y3854D01*
X5482Y3850D01*
X5506Y3854D01*
X5527Y3868D01*
X5541Y3889D01*
X5546Y3913D01*
Y3966D01*
X5541Y3990D01*
X5527Y4011D01*
X5506Y4025D01*
X5482Y4030D01*
D02*
G37*
G36*
X5228D02*
X5203Y4025D01*
X5182Y4011D01*
X5169Y3990D01*
X5164Y3966D01*
Y3913D01*
X5169Y3889D01*
X5182Y3868D01*
X5203Y3854D01*
X5228Y3850D01*
X5252Y3854D01*
X5273Y3868D01*
X5287Y3889D01*
X5292Y3913D01*
Y3966D01*
X5287Y3990D01*
X5273Y4011D01*
X5252Y4025D01*
X5228Y4030D01*
D02*
G37*
G36*
X5810Y3900D02*
X5776D01*
Y3849D01*
X5789Y3860D01*
X5801Y3875D01*
X5809Y3894D01*
X5810Y3900D01*
D02*
G37*
G36*
X5696D02*
X5661D01*
X5662Y3894D01*
X5670Y3875D01*
X5682Y3860D01*
X5696Y3849D01*
Y3900D01*
D02*
G37*
%LPD*%
D13*
X14888Y9368D02*
D03*
X6675Y10097D02*
D03*
Y10351D02*
D03*
Y10606D02*
D03*
Y10860D02*
D03*
Y11114D02*
D03*
X10061Y10003D02*
D03*
X9807D02*
D03*
X14748Y11285D02*
D03*
X8831Y11327D02*
D03*
X11418Y11325D02*
D03*
X9090Y10005D02*
D03*
X8836D02*
D03*
X12805Y9393D02*
D03*
D41*
X5335Y11371D02*
X5520Y11557D01*
X5335Y10599D02*
Y11371D01*
X5202Y10466D02*
X5335Y10599D01*
X4826Y4972D02*
X5096Y5242D01*
X4826Y4239D02*
Y4972D01*
Y4239D02*
X4993Y4072D01*
X5859Y10818D02*
X6010Y10969D01*
X5859Y11863D02*
X6010Y11712D01*
Y10969D02*
Y11712D01*
X13510Y10412D02*
X13638Y10540D01*
X13960D01*
X12439Y4532D02*
X12455Y4515D01*
X7371Y4532D02*
X12439D01*
X8305Y8315D02*
X9678D01*
X10685Y7793D02*
X10700Y7778D01*
X10798Y7858D02*
X11772D01*
X12000Y7630D01*
X10700Y7778D02*
X11755D01*
X10562Y7715D02*
X11715D01*
X5744Y8621D02*
X5804Y8681D01*
X5744Y8434D02*
Y8621D01*
Y8434D02*
X5745Y8433D01*
Y8310D02*
Y8433D01*
Y8310D02*
X6262Y7793D01*
X5667Y8747D02*
X5760Y8840D01*
X5667Y7389D02*
X5814Y7242D01*
X5705Y8723D02*
X5775Y8793D01*
X5705Y7625D02*
X5819Y7512D01*
X5705Y7625D02*
Y8723D01*
X5667Y7389D02*
Y8747D01*
X9112Y7793D02*
X9165Y7740D01*
X6262Y7793D02*
X9112D01*
X7715Y5128D02*
X7779Y5192D01*
X8209D01*
X8211Y5190D02*
X9205D01*
X8209Y5192D02*
X8211Y5190D01*
X9205D02*
X9315Y5300D01*
X6770Y5133D02*
X7371Y4532D01*
X7790Y4570D02*
X10047D01*
X7233Y5127D02*
X7790Y4570D01*
X10052Y4575D02*
X10405D01*
X10047Y4570D02*
X10052Y4575D01*
X10405D02*
X10426Y4596D01*
X11422Y4892D02*
X11803Y5272D01*
X9585Y4892D02*
X11422D01*
X9542Y4935D02*
X9585Y4892D01*
X9542Y4935D02*
Y4942D01*
X9523Y4962D02*
X9542Y4942D01*
X11755Y7778D02*
X11930Y7603D01*
X9739Y8501D02*
X10035Y8797D01*
X9424Y8501D02*
X9739D01*
X11178Y9910D02*
X11178Y9910D01*
X11930Y5660D02*
Y7603D01*
X12000Y5470D02*
Y7630D01*
X9194Y4962D02*
X9523D01*
X11803Y5272D02*
X12000Y5470D01*
X10007Y4958D02*
X11393D01*
X11930Y5495D01*
Y5660D01*
X12555Y4397D02*
Y4555D01*
X10010Y4646D02*
X10020Y4635D01*
X12514Y4596D02*
X12555Y4555D01*
X11870Y5690D02*
Y7560D01*
X11670Y5308D02*
Y5360D01*
X11380Y5200D02*
X11870Y5690D01*
X11380Y5142D02*
Y5200D01*
X11364Y5127D02*
X11380Y5142D01*
X8182Y5127D02*
X11364D01*
X7233Y5127D02*
X7348Y5241D01*
X9148D01*
X9165Y7740D02*
X9250D01*
X5799Y8918D02*
X5830Y8888D01*
X5799Y9139D02*
X5995Y8943D01*
X5912Y6444D02*
Y6634D01*
X5807Y6739D02*
X5912Y6634D01*
X5992Y6512D02*
Y6813D01*
X5812Y6994D02*
X5992Y6813D01*
X8197Y4646D02*
X10010D01*
X7457Y5755D02*
X7468Y5745D01*
X7951Y8512D02*
Y8598D01*
X6283Y8653D02*
X6367Y8738D01*
X6353Y8538D02*
X6505Y8690D01*
X7740D02*
X7857Y8572D01*
X6993Y5750D02*
X6997Y5755D01*
X6770Y5133D02*
X7060D01*
X5809Y8313D02*
X6285Y7838D01*
X5809Y8313D02*
Y8461D01*
X8400Y8822D02*
X8535D01*
X12157Y10022D02*
X12228Y10093D01*
X8507Y8690D02*
X8515D01*
X8535Y8822D02*
X8820Y9107D01*
X10697D01*
X8515Y8690D02*
X8835Y9010D01*
X10757D01*
X9790Y8460D02*
X9993Y8662D01*
X7951Y8512D02*
X7965Y8497D01*
X7060Y5133D02*
X7230Y5303D01*
X9607Y4962D02*
X9712Y5067D01*
X11430D01*
X11670Y5308D01*
X8497Y6998D02*
Y7160D01*
Y6998D02*
X8783Y6713D01*
X7715Y5128D02*
X8197Y4646D01*
X9528Y6838D02*
Y6857D01*
X9436Y6949D02*
X9528Y6857D01*
X7230Y5303D02*
X9105D01*
X9148Y5241D02*
X9238Y5330D01*
Y6315D01*
X9310Y5305D02*
X9315Y5300D01*
X9310Y5305D02*
Y6210D01*
X9195Y6358D02*
X9238Y6315D01*
X9085Y6358D02*
X9195D01*
X10426Y4596D02*
X12514D01*
X11715Y7715D02*
X11870Y7560D01*
X8722Y9575D02*
X8735Y9562D01*
X8232Y9775D02*
Y11203D01*
X8722Y7497D02*
X9397Y6822D01*
Y6765D02*
Y6822D01*
X8795Y7590D02*
X9436Y6949D01*
X6285Y7838D02*
X9253D01*
X8647Y7738D02*
X8795Y7590D01*
X8612Y7722D02*
X8647D01*
X8520Y7432D02*
Y7605D01*
Y7432D02*
X8843Y7109D01*
X9105Y5303D02*
X9170Y5367D01*
X9168Y6238D02*
X9170Y5367D01*
X5355Y5248D02*
X5691Y5584D01*
X5355Y4197D02*
Y5248D01*
X5741Y4072D02*
X5863Y4194D01*
X4993Y4072D02*
X5741D01*
X5520Y11557D02*
Y11751D01*
X5012Y11754D02*
X5035D01*
X5144Y11863D01*
X5859D01*
X8232Y9775D02*
X8350Y9657D01*
X7477Y4035D02*
Y4081D01*
X10757Y9010D02*
X11185Y9438D01*
Y9655D01*
X11178Y9662D02*
X11185Y9655D01*
X11178Y9662D02*
Y9910D01*
X11143Y10022D02*
X12157D01*
X10697Y9107D02*
X11082Y9493D01*
Y9962D01*
X11143Y10022D01*
X8350Y9657D02*
X9912D01*
X9988Y9732D01*
X8792Y9619D02*
X10772D01*
X10832Y9680D01*
X8315Y8478D02*
X9400D01*
X9424Y8501D01*
X8300Y8435D02*
X9455D01*
X9480Y8460D01*
X9790D01*
X8293Y8388D02*
X9585D01*
X7840Y8840D02*
X8293Y8388D01*
X5760Y8840D02*
X7840D01*
X7828Y8793D02*
X8305Y8315D01*
X5775Y8793D02*
X7828D01*
X6505Y8690D02*
X7740D01*
X5830Y8888D02*
X7847D01*
X8300Y8435D01*
X6367Y8738D02*
X7811D01*
X7951Y8598D01*
X7850Y8943D02*
X8315Y8478D01*
X5995Y8943D02*
X7850D01*
X8647Y7722D02*
Y7738D01*
X8735Y9562D02*
X8792Y9619D01*
D43*
X13125Y4438D02*
Y8222D01*
X10930Y4140D02*
X12827D01*
X13125Y4438D01*
X10457Y8570D02*
X13012D01*
X10054Y8167D02*
X10457Y8570D01*
X9168Y8167D02*
X10054D01*
X10825Y4035D02*
X10930Y4140D01*
D45*
X14888Y9622D02*
D03*
X6675Y11368D02*
D03*
X11418Y11071D02*
D03*
X12805Y9647D02*
D03*
D46*
X9553Y10003D02*
D03*
X15002Y11285D02*
D03*
X9085Y11327D02*
D03*
X8582Y10005D02*
D03*
D47*
X10886Y8144D02*
D03*
X10738Y7995D02*
D03*
D48*
X5457Y6646D02*
D03*
X5462Y8408D02*
D03*
D49*
X5457Y7154D02*
D03*
X5203Y6773D02*
D03*
X5203Y7281D02*
D03*
X5457Y6900D02*
D03*
Y7408D02*
D03*
X5200Y7027D02*
D03*
X5203Y7535D02*
D03*
X5462Y8916D02*
D03*
X5208Y8535D02*
D03*
X5208Y9043D02*
D03*
X5462Y8662D02*
D03*
Y9170D02*
D03*
X5205Y8789D02*
D03*
X5208Y9297D02*
D03*
D50*
X5901Y12008D02*
D03*
X4974Y3940D02*
D03*
X8112Y4335D02*
D03*
D51*
X5393Y12008D02*
D03*
X5774Y11753D02*
D03*
X5266Y11754D02*
D03*
X5647Y12008D02*
D03*
X5139D02*
D03*
X5520Y11751D02*
D03*
X5012Y11754D02*
D03*
X5482Y3940D02*
D03*
X5101Y4194D02*
D03*
X5609Y4194D02*
D03*
X5228Y3940D02*
D03*
X5736D02*
D03*
X5355Y4197D02*
D03*
X5863Y4194D02*
D03*
X7604Y4335D02*
D03*
X7985Y4080D02*
D03*
X7477Y4081D02*
D03*
X7858Y4335D02*
D03*
X7350D02*
D03*
X7731Y4078D02*
D03*
X7223Y4081D02*
D03*
D52*
X6375Y12153D02*
D03*
Y12238D02*
D03*
X6125Y12318D02*
D03*
X6122Y12238D02*
D03*
Y12150D02*
D03*
X6375Y12318D02*
D03*
Y3638D02*
D03*
Y3722D02*
D03*
X6125Y3803D02*
D03*
X6122Y3722D02*
D03*
Y3635D02*
D03*
X6375Y3803D02*
D03*
X6370Y4895D02*
D03*
X6117Y4728D02*
D03*
Y4815D02*
D03*
X6120Y4895D02*
D03*
X6370Y4815D02*
D03*
Y4730D02*
D03*
X6378Y11015D02*
D03*
Y11100D02*
D03*
X6122Y11180D02*
D03*
X6120Y11097D02*
D03*
Y11012D02*
D03*
X6378Y11180D02*
D03*
D53*
X5775Y11250D02*
D03*
X5100Y4845D02*
D03*
X5775D02*
D03*
X5100Y11250D02*
D03*
X6797Y12028D02*
D03*
Y4028D02*
D03*
X14798D02*
D03*
Y12028D02*
D03*
D54*
X13765Y10745D02*
D03*
X13638Y10738D02*
D03*
X13635Y10845D02*
D03*
X13632Y10953D02*
D03*
X13760D02*
D03*
X5096Y5242D02*
D03*
X5859Y10818D02*
D03*
X13677Y10412D02*
D03*
X13682Y11200D02*
D03*
X13760Y11062D02*
D03*
X13765Y10845D02*
D03*
X13630Y11060D02*
D03*
X9678Y8315D02*
D03*
X10685Y7793D02*
D03*
X10798Y7858D02*
D03*
X10562Y7715D02*
D03*
X8770Y10925D02*
D03*
Y10800D02*
D03*
X8772Y10668D02*
D03*
X9488Y10790D02*
D03*
X9490Y10662D02*
D03*
X9488Y10910D02*
D03*
X10778Y10657D02*
D03*
X10768Y11430D02*
D03*
X10900D02*
D03*
X11022D02*
D03*
X11005Y10660D02*
D03*
X8507Y8690D02*
D03*
X11178Y9910D02*
D03*
X11930Y5660D02*
D03*
X6770Y5133D02*
D03*
X9194Y4962D02*
D03*
X9607Y4962D02*
D03*
X10007Y4958D02*
D03*
X11803Y5272D02*
D03*
X9250Y7740D02*
D03*
X9253Y7838D02*
D03*
X8182Y5127D02*
D03*
X10020Y4635D02*
D03*
X12455Y4515D02*
D03*
X7233Y5127D02*
D03*
X12555Y4397D02*
D03*
X11670Y5360D02*
D03*
X11380Y5142D02*
D03*
X8497Y7160D02*
D03*
X9397Y6765D02*
D03*
X9528Y6838D02*
D03*
X5799Y9139D02*
D03*
X5799Y8918D02*
D03*
X5804Y8681D02*
D03*
X5809Y8461D02*
D03*
X5807Y6739D02*
D03*
X5812Y6994D02*
D03*
X5814Y7242D02*
D03*
X5819Y7512D02*
D03*
X5912Y6444D02*
D03*
X5992Y6512D02*
D03*
X8402Y5753D02*
D03*
X7935Y5745D02*
D03*
X7457Y5755D02*
D03*
X6353Y8538D02*
D03*
X6283Y8653D02*
D03*
X7857Y8572D02*
D03*
X6993Y5750D02*
D03*
X8722Y9575D02*
D03*
X8262Y8938D02*
D03*
X8400Y8822D02*
D03*
X12228Y10093D02*
D03*
X11893Y10130D02*
D03*
X11890Y9880D02*
D03*
X8722Y7497D02*
D03*
X7965Y8497D02*
D03*
X8232Y11203D02*
D03*
X8783Y6713D02*
D03*
X7715Y5128D02*
D03*
X9168Y6238D02*
D03*
X9310Y6210D02*
D03*
X9085Y6358D02*
D03*
X9893Y7285D02*
D03*
X10093Y7478D02*
D03*
X10935Y8030D02*
D03*
X8953Y5553D02*
D03*
X9470Y5428D02*
D03*
X9762D02*
D03*
X10332D02*
D03*
X10538D02*
D03*
X10728D02*
D03*
X10928D02*
D03*
X11153D02*
D03*
X11450D02*
D03*
X8612Y7722D02*
D03*
X10035Y8797D02*
D03*
X9994Y8664D02*
D03*
X8843Y7109D02*
D03*
X8520Y7605D02*
D03*
X5691Y5584D02*
D03*
X5202Y10466D02*
D03*
X10832Y9680D02*
D03*
X9585Y8388D02*
D03*
X13510Y10412D02*
D03*
X13960Y10540D02*
D03*
D55*
X13968Y11345D02*
D03*
X13682D02*
D03*
X13898Y10075D02*
D03*
Y9640D02*
D03*
X12925Y8220D02*
D03*
X11665Y9568D02*
D03*
X9168Y8167D02*
D03*
X8593Y4425D02*
D03*
X9988Y9732D02*
D03*
X13125Y8222D02*
D03*
X12725Y8210D02*
D03*
X7270Y8020D02*
D03*
X8007Y9360D02*
D03*
X7788Y9365D02*
D03*
Y9183D02*
D03*
X7962Y6662D02*
D03*
X7780D02*
D03*
X7785Y6882D02*
D03*
X9840Y9368D02*
D03*
X11500Y8038D02*
D03*
X12238Y5480D02*
D03*
X7357Y11580D02*
D03*
X10825Y4035D02*
D03*
X7630Y8122D02*
D03*
X13012Y8570D02*
D03*
X9318Y9828D02*
D03*
X10597Y9812D02*
D03*
D56*
X10565Y4465D02*
X10742Y4288D01*
X8632Y4465D02*
X10565D01*
X12613Y4288D02*
X12925Y4600D01*
X10742Y4288D02*
X12613D01*
X12925Y4600D02*
Y8220D01*
X10282Y7960D02*
X10625Y8303D01*
X7330Y7960D02*
X10282D01*
X7270Y8020D02*
X7330Y7960D01*
X7943Y5753D02*
X8402D01*
X7468Y5745D02*
X7935D01*
X6997Y5755D02*
X7457D01*
X8593Y4272D02*
Y4425D01*
X8528Y4208D02*
X8593Y4272D01*
Y4425D02*
X8632Y4465D01*
X6580Y5750D02*
X6993D01*
X12632Y8303D02*
X12725Y8210D01*
X10625Y8303D02*
X12632D01*
X7393Y3940D02*
X7477Y4024D01*
X7103Y3940D02*
X7393D01*
X7038Y4005D02*
X7103Y3940D01*
X6604Y4439D02*
X6839D01*
X7350Y4208D02*
X8528D01*
X7038Y4005D02*
Y4240D01*
X6839Y4439D02*
X7038Y4240D01*
X7223Y4081D02*
X7350Y4208D01*
X6497Y4545D02*
X6604Y4439D01*
X6497Y4545D02*
Y5667D01*
X6580Y5750D01*
D57*
X6675Y11114D02*
X6862Y11301D01*
Y11528D01*
X15127Y6128D02*
Y11160D01*
X15002Y11285D02*
X15127Y11160D01*
X12946Y3947D02*
X15127Y6128D01*
X11049Y3947D02*
X12946D01*
X10950Y3847D02*
X11049Y3947D01*
X7665Y3847D02*
X10950D01*
X7488Y4024D02*
X7665Y3847D01*
X15002Y11285D02*
Y11440D01*
X9893Y9828D02*
X9988Y9732D01*
X9318Y9828D02*
X9893D01*
X9988Y9732D02*
X10068Y9812D01*
X10597D01*
X6862Y11528D02*
X7185Y11850D01*
X14593D02*
X15002Y11440D01*
X7185Y11850D02*
X14593D01*
M02*
