G04 Layer_Color=2752767*
%FSLAX42Y42*%
%MOMM*%
G71*
G01*
G75*
%ADD110C,0.05*%
%ADD111C,0.07*%
D110*
X14868Y9347D02*
Y9388D01*
X14908D01*
Y9347D01*
X14868D01*
Y9601D02*
Y9642D01*
X14908D01*
Y9601D01*
X14868D01*
X6655Y10077D02*
Y10118D01*
X6695D01*
Y10077D01*
X6655D01*
Y10331D02*
Y10372D01*
X6695D01*
Y10331D01*
X6655D01*
Y10585D02*
Y10626D01*
X6695D01*
Y10585D01*
X6655D01*
Y10839D02*
Y10880D01*
X6695D01*
Y10839D01*
X6655D01*
Y11093D02*
Y11134D01*
X6695D01*
Y11093D01*
X6655D01*
Y11347D02*
Y11388D01*
X6695D01*
Y11347D01*
X6655D01*
X10040Y9982D02*
Y10023D01*
X10081D01*
Y9982D01*
X10040D01*
X9786D02*
Y10023D01*
X9827D01*
Y9982D01*
X9786D01*
X9532D02*
Y10023D01*
X9573D01*
Y9982D01*
X9532D01*
X5457Y6625D02*
X5437Y6666D01*
X5478D01*
X5457Y6625D01*
Y7133D02*
X5437Y7174D01*
X5478D01*
X5457Y7133D01*
X5203Y6752D02*
X5183Y6793D01*
X5223D01*
X5203Y6752D01*
X5203Y7260D02*
X5183Y7301D01*
X5224D01*
X5203Y7260D01*
X5457Y6879D02*
X5437Y6920D01*
X5478D01*
X5457Y6879D01*
Y7387D02*
X5437Y7428D01*
X5478D01*
X5457Y7387D01*
X5200Y7006D02*
X5180Y7047D01*
X5221D01*
X5200Y7006D01*
X5203Y7514D02*
X5183Y7555D01*
X5224D01*
X5203Y7514D01*
X5462Y8388D02*
X5442Y8428D01*
X5483D01*
X5462Y8388D01*
Y8896D02*
X5442Y8936D01*
X5483D01*
X5462Y8896D01*
X5208Y8515D02*
X5188Y8555D01*
X5228D01*
X5208Y8515D01*
X5208Y9023D02*
X5188Y9063D01*
X5229D01*
X5208Y9023D01*
X5462Y8642D02*
X5442Y8682D01*
X5483D01*
X5462Y8642D01*
Y9150D02*
X5442Y9190D01*
X5483D01*
X5462Y9150D01*
X5205Y8769D02*
X5185Y8809D01*
X5226D01*
X5205Y8769D01*
X5208Y9277D02*
X5188Y9317D01*
X5229D01*
X5208Y9277D01*
X14728Y11265D02*
Y11306D01*
X14769D01*
Y11265D01*
X14728D01*
X14982D02*
Y11306D01*
X15023D01*
Y11265D01*
X14982D01*
X8811Y11306D02*
Y11347D01*
X8852D01*
Y11306D01*
X8811D01*
X9065D02*
Y11347D01*
X9106D01*
Y11306D01*
X9065D01*
X5901Y11987D02*
X5881Y12028D01*
X5922D01*
X5901Y11987D01*
X5393D02*
X5373Y12028D01*
X5414D01*
X5393Y11987D01*
X5774Y11733D02*
X5754Y11773D01*
X5795D01*
X5774Y11733D01*
X5266Y11733D02*
X5246Y11774D01*
X5287D01*
X5266Y11733D01*
X5647Y11987D02*
X5627Y12028D01*
X5668D01*
X5647Y11987D01*
X5139D02*
X5119Y12028D01*
X5160D01*
X5139Y11987D01*
X5520Y11730D02*
X5500Y11771D01*
X5541D01*
X5520Y11730D01*
X5012Y11733D02*
X4992Y11774D01*
X5033D01*
X5012Y11733D01*
X11398Y11304D02*
Y11345D01*
X11438D01*
Y11304D01*
X11398D01*
Y11050D02*
Y11091D01*
X11438D01*
Y11050D01*
X11398D01*
X9070Y9985D02*
Y10025D01*
X9111D01*
Y9985D01*
X9070D01*
X8816D02*
Y10025D01*
X8857D01*
Y9985D01*
X8816D01*
X8562D02*
Y10025D01*
X8603D01*
Y9985D01*
X8562D01*
X4974Y3919D02*
X4953Y3960D01*
X4994D01*
X4974Y3919D01*
X5482D02*
X5461Y3960D01*
X5502D01*
X5482Y3919D01*
X5101Y4174D02*
X5080Y4215D01*
X5121D01*
X5101Y4174D01*
X5609Y4173D02*
X5588Y4214D01*
X5629D01*
X5609Y4173D01*
X5228Y3919D02*
X5207Y3960D01*
X5248D01*
X5228Y3919D01*
X5736D02*
X5715Y3960D01*
X5756D01*
X5736Y3919D01*
X5355Y4176D02*
X5334Y4217D01*
X5375D01*
X5355Y4176D01*
X5863Y4173D02*
X5842Y4214D01*
X5883D01*
X5863Y4173D01*
X8112Y4314D02*
X8092Y4355D01*
X8132D01*
X8112Y4314D01*
X7604D02*
X7584Y4355D01*
X7624D01*
X7604Y4314D01*
X7985Y4060D02*
X7965Y4100D01*
X8005D01*
X7985Y4060D01*
X7477Y4060D02*
X7457Y4101D01*
X7497D01*
X7477Y4060D01*
X7858Y4314D02*
X7838Y4355D01*
X7878D01*
X7858Y4314D01*
X7350D02*
X7330Y4355D01*
X7370D01*
X7350Y4314D01*
X7731Y4057D02*
X7711Y4098D01*
X7751D01*
X7731Y4057D01*
X7223Y4060D02*
X7203Y4101D01*
X7243D01*
X7223Y4060D01*
X12785Y9373D02*
Y9413D01*
X12826D01*
Y9373D01*
X12785D01*
Y9627D02*
Y9667D01*
X12826D01*
Y9627D01*
X12785D01*
X6375Y12132D02*
X6385Y12142D01*
X6395D01*
X6385Y12153D01*
X6395Y12163D01*
X6385D01*
X6375Y12173D01*
X6365Y12163D01*
X6355D01*
X6365Y12153D01*
X6355Y12142D01*
X6365D01*
X6375Y12132D01*
Y12217D02*
X6385Y12227D01*
X6395D01*
X6385Y12238D01*
X6395Y12248D01*
X6385D01*
X6375Y12258D01*
X6365Y12248D01*
X6355D01*
X6365Y12238D01*
X6355Y12227D01*
X6365D01*
X6375Y12217D01*
X6125Y12297D02*
X6135Y12307D01*
X6145D01*
X6135Y12318D01*
X6145Y12328D01*
X6135D01*
X6125Y12338D01*
X6115Y12328D01*
X6105D01*
X6115Y12318D01*
X6105Y12307D01*
X6115D01*
X6125Y12297D01*
X6122Y12217D02*
X6133Y12227D01*
X6143D01*
X6133Y12238D01*
X6143Y12248D01*
X6133D01*
X6122Y12258D01*
X6112Y12248D01*
X6102D01*
X6112Y12238D01*
X6102Y12227D01*
X6112D01*
X6122Y12217D01*
Y12130D02*
X6133Y12140D01*
X6143D01*
X6133Y12150D01*
X6143Y12160D01*
X6133D01*
X6122Y12170D01*
X6112Y12160D01*
X6102D01*
X6112Y12150D01*
X6102Y12140D01*
X6112D01*
X6122Y12130D01*
X6375Y12297D02*
X6385Y12307D01*
X6395D01*
X6385Y12318D01*
X6395Y12328D01*
X6385D01*
X6375Y12338D01*
X6365Y12328D01*
X6355D01*
X6365Y12318D01*
X6355Y12307D01*
X6365D01*
X6375Y12297D01*
Y3617D02*
X6385Y3627D01*
X6395D01*
X6385Y3638D01*
X6395Y3648D01*
X6385D01*
X6375Y3658D01*
X6365Y3648D01*
X6355D01*
X6365Y3638D01*
X6355Y3627D01*
X6365D01*
X6375Y3617D01*
Y3702D02*
X6385Y3712D01*
X6395D01*
X6385Y3722D01*
X6395Y3733D01*
X6385D01*
X6375Y3743D01*
X6365Y3733D01*
X6355D01*
X6365Y3722D01*
X6355Y3712D01*
X6365D01*
X6375Y3702D01*
X6125Y3782D02*
X6135Y3792D01*
X6145D01*
X6135Y3803D01*
X6145Y3813D01*
X6135D01*
X6125Y3823D01*
X6115Y3813D01*
X6105D01*
X6115Y3803D01*
X6105Y3792D01*
X6115D01*
X6125Y3782D01*
X6122Y3702D02*
X6133Y3712D01*
X6143D01*
X6133Y3722D01*
X6143Y3733D01*
X6133D01*
X6122Y3743D01*
X6112Y3733D01*
X6102D01*
X6112Y3722D01*
X6102Y3712D01*
X6112D01*
X6122Y3702D01*
Y3615D02*
X6133Y3625D01*
X6143D01*
X6133Y3635D01*
X6143Y3645D01*
X6133D01*
X6122Y3655D01*
X6112Y3645D01*
X6102D01*
X6112Y3635D01*
X6102Y3625D01*
X6112D01*
X6122Y3615D01*
X6375Y3782D02*
X6385Y3792D01*
X6395D01*
X6385Y3803D01*
X6395Y3813D01*
X6385D01*
X6375Y3823D01*
X6365Y3813D01*
X6355D01*
X6365Y3803D01*
X6355Y3792D01*
X6365D01*
X6375Y3782D01*
X6370Y4875D02*
X6380Y4885D01*
X6390D01*
X6380Y4895D01*
X6390Y4905D01*
X6380D01*
X6370Y4915D01*
X6360Y4905D01*
X6350D01*
X6360Y4895D01*
X6350Y4885D01*
X6360D01*
X6370Y4875D01*
X6117Y4707D02*
X6128Y4717D01*
X6138D01*
X6128Y4728D01*
X6138Y4738D01*
X6128D01*
X6117Y4748D01*
X6107Y4738D01*
X6097D01*
X6107Y4728D01*
X6097Y4717D01*
X6107D01*
X6117Y4707D01*
Y4795D02*
X6128Y4805D01*
X6138D01*
X6128Y4815D01*
X6138Y4825D01*
X6128D01*
X6117Y4835D01*
X6107Y4825D01*
X6097D01*
X6107Y4815D01*
X6097Y4805D01*
X6107D01*
X6117Y4795D01*
X6120Y4875D02*
X6130Y4885D01*
X6140D01*
X6130Y4895D01*
X6140Y4905D01*
X6130D01*
X6120Y4915D01*
X6110Y4905D01*
X6100D01*
X6110Y4895D01*
X6100Y4885D01*
X6110D01*
X6120Y4875D01*
X6370Y4795D02*
X6380Y4805D01*
X6390D01*
X6380Y4815D01*
X6390Y4825D01*
X6380D01*
X6370Y4835D01*
X6360Y4825D01*
X6350D01*
X6360Y4815D01*
X6350Y4805D01*
X6360D01*
X6370Y4795D01*
Y4710D02*
X6380Y4720D01*
X6390D01*
X6380Y4730D01*
X6390Y4740D01*
X6380D01*
X6370Y4750D01*
X6360Y4740D01*
X6350D01*
X6360Y4730D01*
X6350Y4720D01*
X6360D01*
X6370Y4710D01*
X6378Y10995D02*
X6388Y11005D01*
X6398D01*
X6388Y11015D01*
X6398Y11025D01*
X6388D01*
X6378Y11035D01*
X6367Y11025D01*
X6357D01*
X6367Y11015D01*
X6357Y11005D01*
X6367D01*
X6378Y10995D01*
Y11080D02*
X6388Y11090D01*
X6398D01*
X6388Y11100D01*
X6398Y11110D01*
X6388D01*
X6378Y11120D01*
X6367Y11110D01*
X6357D01*
X6367Y11100D01*
X6357Y11090D01*
X6367D01*
X6378Y11080D01*
X6122Y11160D02*
X6133Y11170D01*
X6143D01*
X6133Y11180D01*
X6143Y11190D01*
X6133D01*
X6122Y11200D01*
X6112Y11190D01*
X6102D01*
X6112Y11180D01*
X6102Y11170D01*
X6112D01*
X6122Y11160D01*
X6120Y11077D02*
X6130Y11087D01*
X6140D01*
X6130Y11097D01*
X6140Y11108D01*
X6130D01*
X6120Y11118D01*
X6110Y11108D01*
X6100D01*
X6110Y11097D01*
X6100Y11087D01*
X6110D01*
X6120Y11077D01*
Y10992D02*
X6130Y11002D01*
X6140D01*
X6130Y11012D01*
X6140Y11023D01*
X6130D01*
X6120Y11033D01*
X6110Y11023D01*
X6100D01*
X6110Y11012D01*
X6100Y11002D01*
X6110D01*
X6120Y10992D01*
X6378Y11160D02*
X6388Y11170D01*
X6398D01*
X6388Y11180D01*
X6398Y11190D01*
X6388D01*
X6378Y11200D01*
X6367Y11190D01*
X6357D01*
X6367Y11180D01*
X6357Y11170D01*
X6367D01*
X6378Y11160D01*
X5755Y11230D02*
X5765Y11250D01*
X5755Y11270D01*
X5775Y11260D01*
X5795Y11270D01*
X5785Y11250D01*
X5795Y11230D01*
X5775Y11240D01*
X5755Y11230D01*
X5080Y4825D02*
X5090Y4845D01*
X5080Y4865D01*
X5100Y4855D01*
X5120Y4865D01*
X5110Y4845D01*
X5120Y4825D01*
X5100Y4835D01*
X5080Y4825D01*
X5755D02*
X5765Y4845D01*
X5755Y4865D01*
X5775Y4855D01*
X5795Y4865D01*
X5785Y4845D01*
X5795Y4825D01*
X5775Y4835D01*
X5755Y4825D01*
X5080Y11230D02*
X5090Y11250D01*
X5080Y11270D01*
X5100Y11260D01*
X5120Y11270D01*
X5110Y11250D01*
X5120Y11230D01*
X5100Y11240D01*
X5080Y11230D01*
X13957Y11335D02*
Y11325D01*
X13978D01*
Y11335D01*
X13988D01*
Y11355D01*
X13978D01*
Y11365D01*
X13957D01*
Y11355D01*
X13947D01*
Y11335D01*
X13957D01*
X13672D02*
Y11325D01*
X13693D01*
Y11335D01*
X13703D01*
Y11355D01*
X13693D01*
Y11365D01*
X13672D01*
Y11355D01*
X13662D01*
Y11335D01*
X13672D01*
X13887Y10065D02*
Y10055D01*
X13908D01*
Y10065D01*
X13918D01*
Y10085D01*
X13908D01*
Y10095D01*
X13887D01*
Y10085D01*
X13877D01*
Y10065D01*
X13887D01*
Y9630D02*
Y9620D01*
X13908D01*
Y9630D01*
X13918D01*
Y9650D01*
X13908D01*
Y9660D01*
X13887D01*
Y9650D01*
X13877D01*
Y9630D01*
X13887D01*
X12915Y8210D02*
Y8200D01*
X12935D01*
Y8210D01*
X12945D01*
Y8230D01*
X12935D01*
Y8240D01*
X12915D01*
Y8230D01*
X12905D01*
Y8210D01*
X12915D01*
X11655Y9557D02*
Y9547D01*
X11675D01*
Y9557D01*
X11685D01*
Y9578D01*
X11675D01*
Y9588D01*
X11655D01*
Y9578D01*
X11645D01*
Y9557D01*
X11655D01*
X9157Y8157D02*
Y8147D01*
X9178D01*
Y8157D01*
X9188D01*
Y8177D01*
X9178D01*
Y8187D01*
X9157D01*
Y8177D01*
X9147D01*
Y8157D01*
X9157D01*
X8582Y4415D02*
Y4405D01*
X8603D01*
Y4415D01*
X8613D01*
Y4435D01*
X8603D01*
Y4445D01*
X8582D01*
Y4435D01*
X8572D01*
Y4415D01*
X8582D01*
X9977Y9722D02*
Y9712D01*
X9998D01*
Y9722D01*
X10008D01*
Y9743D01*
X9998D01*
Y9753D01*
X9977D01*
Y9743D01*
X9967D01*
Y9722D01*
X9977D01*
X13115Y8212D02*
Y8202D01*
X13135D01*
Y8212D01*
X13145D01*
Y8233D01*
X13135D01*
Y8243D01*
X13115D01*
Y8233D01*
X13105D01*
Y8212D01*
X13115D01*
X12715Y8200D02*
Y8190D01*
X12735D01*
Y8200D01*
X12745D01*
Y8220D01*
X12735D01*
Y8230D01*
X12715D01*
Y8220D01*
X12705D01*
Y8200D01*
X12715D01*
X7260Y8010D02*
Y8000D01*
X7280D01*
Y8010D01*
X7290D01*
Y8030D01*
X7280D01*
Y8040D01*
X7260D01*
Y8030D01*
X7250D01*
Y8010D01*
X7260D01*
X7997Y9350D02*
Y9340D01*
X8018D01*
Y9350D01*
X8028D01*
Y9370D01*
X8018D01*
Y9380D01*
X7997D01*
Y9370D01*
X7987D01*
Y9350D01*
X7997D01*
X7777Y9355D02*
Y9345D01*
X7798D01*
Y9355D01*
X7808D01*
Y9375D01*
X7798D01*
Y9385D01*
X7777D01*
Y9375D01*
X7767D01*
Y9355D01*
X7777D01*
Y9172D02*
Y9162D01*
X7798D01*
Y9172D01*
X7808D01*
Y9193D01*
X7798D01*
Y9203D01*
X7777D01*
Y9193D01*
X7767D01*
Y9172D01*
X7777D01*
X7952Y6652D02*
Y6642D01*
X7973D01*
Y6652D01*
X7983D01*
Y6673D01*
X7973D01*
Y6683D01*
X7952D01*
Y6673D01*
X7942D01*
Y6652D01*
X7952D01*
X7770D02*
Y6642D01*
X7790D01*
Y6652D01*
X7800D01*
Y6673D01*
X7790D01*
Y6683D01*
X7770D01*
Y6673D01*
X7760D01*
Y6652D01*
X7770D01*
X7775Y6872D02*
Y6862D01*
X7795D01*
Y6872D01*
X7805D01*
Y6893D01*
X7795D01*
Y6903D01*
X7775D01*
Y6893D01*
X7765D01*
Y6872D01*
X7775D01*
X9830Y9357D02*
Y9347D01*
X9850D01*
Y9357D01*
X9860D01*
Y9378D01*
X9850D01*
Y9388D01*
X9830D01*
Y9378D01*
X9820D01*
Y9357D01*
X9830D01*
X11490Y8027D02*
Y8017D01*
X11510D01*
Y8027D01*
X11520D01*
Y8048D01*
X11510D01*
Y8058D01*
X11490D01*
Y8048D01*
X11480D01*
Y8027D01*
X11490D01*
X12227Y5470D02*
Y5460D01*
X12248D01*
Y5470D01*
X12258D01*
Y5490D01*
X12248D01*
Y5500D01*
X12227D01*
Y5490D01*
X12217D01*
Y5470D01*
X12227D01*
X6777Y12007D02*
X6787Y12028D01*
X6777Y12048D01*
X6797Y12038D01*
X6818Y12048D01*
X6808Y12028D01*
X6818Y12007D01*
X6797Y12017D01*
X6777Y12007D01*
Y4007D02*
X6787Y4028D01*
X6777Y4048D01*
X6797Y4038D01*
X6818Y4048D01*
X6808Y4028D01*
X6818Y4007D01*
X6797Y4017D01*
X6777Y4007D01*
X14777D02*
X14787Y4028D01*
X14777Y4048D01*
X14798Y4038D01*
X14818Y4048D01*
X14808Y4028D01*
X14818Y4007D01*
X14798Y4017D01*
X14777Y4007D01*
Y12007D02*
X14787Y12028D01*
X14777Y12048D01*
X14798Y12038D01*
X14818Y12048D01*
X14808Y12028D01*
X14818Y12007D01*
X14798Y12017D01*
X14777Y12007D01*
X7347Y11570D02*
Y11560D01*
X7368D01*
Y11570D01*
X7378D01*
Y11590D01*
X7368D01*
Y11600D01*
X7347D01*
Y11590D01*
X7337D01*
Y11570D01*
X7347D01*
X10814Y4025D02*
Y4015D01*
X10835D01*
Y4025D01*
X10845D01*
Y4046D01*
X10835D01*
Y4056D01*
X10814D01*
Y4046D01*
X10804D01*
Y4025D01*
X10814D01*
X7620Y8112D02*
Y8102D01*
X7640D01*
Y8112D01*
X7650D01*
Y8133D01*
X7640D01*
Y8143D01*
X7620D01*
Y8133D01*
X7610D01*
Y8112D01*
X7620D01*
X13002Y8560D02*
Y8550D01*
X13023D01*
Y8560D01*
X13033D01*
Y8580D01*
X13023D01*
Y8590D01*
X13002D01*
Y8580D01*
X12992D01*
Y8560D01*
X13002D01*
X9307Y9817D02*
Y9807D01*
X9328D01*
Y9817D01*
X9338D01*
Y9838D01*
X9328D01*
Y9848D01*
X9307D01*
Y9838D01*
X9297D01*
Y9817D01*
X9307D01*
X10587Y9802D02*
Y9792D01*
X10608D01*
Y9802D01*
X10618D01*
Y9823D01*
X10608D01*
Y9833D01*
X10587D01*
Y9823D01*
X10577D01*
Y9802D01*
X10587D01*
D111*
X10906Y8144D02*
G03*
X10906Y8144I-20J0D01*
G01*
X10758Y7995D02*
G03*
X10758Y7995I-20J0D01*
G01*
X13785Y10745D02*
G03*
X13785Y10745I-20J0D01*
G01*
X13658Y10738D02*
G03*
X13658Y10738I-20J0D01*
G01*
X13655Y10845D02*
G03*
X13655Y10845I-20J0D01*
G01*
X13653Y10953D02*
G03*
X13653Y10953I-20J0D01*
G01*
X13780D02*
G03*
X13780Y10953I-20J0D01*
G01*
X5116Y5242D02*
G03*
X5116Y5242I-20J0D01*
G01*
X5880Y10818D02*
G03*
X5880Y10818I-20J0D01*
G01*
X13698Y10412D02*
G03*
X13698Y10412I-20J0D01*
G01*
X13703Y11200D02*
G03*
X13703Y11200I-20J0D01*
G01*
X13780Y11062D02*
G03*
X13780Y11062I-20J0D01*
G01*
X13785Y10845D02*
G03*
X13785Y10845I-20J0D01*
G01*
X13650Y11060D02*
G03*
X13650Y11060I-20J0D01*
G01*
X9698Y8315D02*
G03*
X9698Y8315I-20J0D01*
G01*
X10705Y7793D02*
G03*
X10705Y7793I-20J0D01*
G01*
X10818Y7858D02*
G03*
X10818Y7858I-20J0D01*
G01*
X10583Y7715D02*
G03*
X10583Y7715I-20J0D01*
G01*
X8790Y10925D02*
G03*
X8790Y10925I-20J0D01*
G01*
Y10800D02*
G03*
X8790Y10800I-20J0D01*
G01*
X8793Y10668D02*
G03*
X8793Y10668I-20J0D01*
G01*
X9508Y10790D02*
G03*
X9508Y10790I-20J0D01*
G01*
X9510Y10662D02*
G03*
X9510Y10662I-20J0D01*
G01*
X9508Y10910D02*
G03*
X9508Y10910I-20J0D01*
G01*
X10798Y10657D02*
G03*
X10798Y10657I-20J0D01*
G01*
X10788Y11430D02*
G03*
X10788Y11430I-20J0D01*
G01*
X10920D02*
G03*
X10920Y11430I-20J0D01*
G01*
X11043D02*
G03*
X11043Y11430I-20J0D01*
G01*
X11025Y10660D02*
G03*
X11025Y10660I-20J0D01*
G01*
X8528Y8690D02*
G03*
X8528Y8690I-20J0D01*
G01*
X11198Y9910D02*
G03*
X11198Y9910I-20J0D01*
G01*
X11950Y5660D02*
G03*
X11950Y5660I-20J0D01*
G01*
X6790Y5133D02*
G03*
X6790Y5133I-20J0D01*
G01*
X9215Y4962D02*
G03*
X9215Y4962I-20J0D01*
G01*
X9628Y4962D02*
G03*
X9628Y4962I-20J0D01*
G01*
X10028Y4958D02*
G03*
X10028Y4958I-20J0D01*
G01*
X11823Y5272D02*
G03*
X11823Y5272I-20J0D01*
G01*
X9270Y7740D02*
G03*
X9270Y7740I-20J0D01*
G01*
X9273Y7838D02*
G03*
X9273Y7838I-20J0D01*
G01*
X8202Y5127D02*
G03*
X8202Y5127I-20J0D01*
G01*
X10041Y4635D02*
G03*
X10041Y4635I-20J0D01*
G01*
X12476Y4515D02*
G03*
X12476Y4515I-20J0D01*
G01*
X7253Y5127D02*
G03*
X7253Y5127I-20J0D01*
G01*
X12575Y4397D02*
G03*
X12575Y4397I-20J0D01*
G01*
X11690Y5360D02*
G03*
X11690Y5360I-20J0D01*
G01*
X11400Y5142D02*
G03*
X11400Y5142I-20J0D01*
G01*
X8518Y7160D02*
G03*
X8518Y7160I-20J0D01*
G01*
X9418Y6765D02*
G03*
X9418Y6765I-20J0D01*
G01*
X9548Y6838D02*
G03*
X9548Y6838I-20J0D01*
G01*
X5819Y9139D02*
G03*
X5819Y9139I-20J0D01*
G01*
X5820Y8918D02*
G03*
X5820Y8918I-20J0D01*
G01*
X5825Y8681D02*
G03*
X5825Y8681I-20J0D01*
G01*
X5830Y8461D02*
G03*
X5830Y8461I-20J0D01*
G01*
X5827Y6739D02*
G03*
X5827Y6739I-20J0D01*
G01*
X5832Y6994D02*
G03*
X5832Y6994I-20J0D01*
G01*
X5835Y7242D02*
G03*
X5835Y7242I-20J0D01*
G01*
X5840Y7512D02*
G03*
X5840Y7512I-20J0D01*
G01*
X5932Y6444D02*
G03*
X5932Y6444I-20J0D01*
G01*
X6013Y6512D02*
G03*
X6013Y6512I-20J0D01*
G01*
X8423Y5753D02*
G03*
X8423Y5753I-20J0D01*
G01*
X7956Y5745D02*
G03*
X7956Y5745I-20J0D01*
G01*
X7478Y5755D02*
G03*
X7478Y5755I-20J0D01*
G01*
X6373Y8538D02*
G03*
X6373Y8538I-20J0D01*
G01*
X6303Y8653D02*
G03*
X6303Y8653I-20J0D01*
G01*
X7878Y8572D02*
G03*
X7878Y8572I-20J0D01*
G01*
X7013Y5750D02*
G03*
X7013Y5750I-20J0D01*
G01*
X8743Y9575D02*
G03*
X8743Y9575I-20J0D01*
G01*
X8283Y8938D02*
G03*
X8283Y8938I-20J0D01*
G01*
X8420Y8822D02*
G03*
X8420Y8822I-20J0D01*
G01*
X12248Y10093D02*
G03*
X12248Y10093I-20J0D01*
G01*
X11913Y10130D02*
G03*
X11913Y10130I-20J0D01*
G01*
X11910Y9880D02*
G03*
X11910Y9880I-20J0D01*
G01*
X8743Y7497D02*
G03*
X8743Y7497I-20J0D01*
G01*
X7986Y8497D02*
G03*
X7986Y8497I-20J0D01*
G01*
X8253Y11203D02*
G03*
X8253Y11203I-20J0D01*
G01*
X8803Y6713D02*
G03*
X8803Y6713I-20J0D01*
G01*
X7735Y5128D02*
G03*
X7735Y5128I-20J0D01*
G01*
X9188Y6238D02*
G03*
X9188Y6238I-20J0D01*
G01*
X9330Y6210D02*
G03*
X9330Y6210I-20J0D01*
G01*
X9105Y6358D02*
G03*
X9105Y6358I-20J0D01*
G01*
X9913Y7285D02*
G03*
X9913Y7285I-20J0D01*
G01*
X10113Y7478D02*
G03*
X10113Y7478I-20J0D01*
G01*
X10955Y8030D02*
G03*
X10955Y8030I-20J0D01*
G01*
X8973Y5553D02*
G03*
X8973Y5553I-20J0D01*
G01*
X9490Y5428D02*
G03*
X9490Y5428I-20J0D01*
G01*
X9783D02*
G03*
X9783Y5428I-20J0D01*
G01*
X10353D02*
G03*
X10353Y5428I-20J0D01*
G01*
X10558D02*
G03*
X10558Y5428I-20J0D01*
G01*
X10748D02*
G03*
X10748Y5428I-20J0D01*
G01*
X10948D02*
G03*
X10948Y5428I-20J0D01*
G01*
X11173D02*
G03*
X11173Y5428I-20J0D01*
G01*
X11470D02*
G03*
X11470Y5428I-20J0D01*
G01*
X8633Y7722D02*
G03*
X8633Y7722I-20J0D01*
G01*
X10055Y8797D02*
G03*
X10055Y8797I-20J0D01*
G01*
X10015Y8664D02*
G03*
X10015Y8664I-20J0D01*
G01*
X8864Y7109D02*
G03*
X8864Y7109I-20J0D01*
G01*
X8540Y7605D02*
G03*
X8540Y7605I-20J0D01*
G01*
X5711Y5584D02*
G03*
X5711Y5584I-20J0D01*
G01*
X5222Y10466D02*
G03*
X5222Y10466I-20J0D01*
G01*
X10853Y9680D02*
G03*
X10853Y9680I-20J0D01*
G01*
X9605Y8388D02*
G03*
X9605Y8388I-20J0D01*
G01*
X13530Y10412D02*
G03*
X13530Y10412I-20J0D01*
G01*
X13980Y10540D02*
G03*
X13980Y10540I-20J0D01*
G01*
M02*
