G04 Layer_Color=8388736*
%FSLAX42Y42*%
%MOMM*%
G71*
G01*
G75*
%ADD63R,1.20X1.10*%
%ADD64R,0.80X1.65*%
%ADD65R,1.15X1.05*%
%ADD66C,1.70*%
%ADD67R,1.00X1.70*%
%ADD68R,1.70X1.00*%
G04:AMPARAMS|DCode=69|XSize=5.7mm|YSize=2.2mm|CornerRadius=0mm|HoleSize=0mm|Usage=FLASHONLY|Rotation=225.000|XOffset=0mm|YOffset=0mm|HoleType=Round|Shape=Rectangle|*
%AMROTATEDRECTD69*
4,1,4,1.24,2.80,2.80,1.24,-1.24,-2.80,-2.80,-1.24,1.24,2.80,0.0*
%
%ADD69ROTATEDRECTD69*%

%ADD70R,1.05X1.15*%
G04:AMPARAMS|DCode=71|XSize=1.15mm|YSize=1.05mm|CornerRadius=0mm|HoleSize=0mm|Usage=FLASHONLY|Rotation=135.000|XOffset=0mm|YOffset=0mm|HoleType=Round|Shape=Rectangle|*
%AMROTATEDRECTD71*
4,1,4,0.78,-0.04,0.04,-0.78,-0.78,0.04,-0.04,0.78,0.78,-0.04,0.0*
%
%ADD71ROTATEDRECTD71*%

%ADD72R,1.10X1.20*%
%ADD73R,1.10X1.15*%
%ADD74R,1.10X1.15*%
%ADD75R,1.00X1.00*%
%ADD76R,1.20X0.95*%
%ADD77R,1.50X2.90*%
%ADD78R,6.20X2.20*%
%ADD79R,1.00X1.00*%
G04:AMPARAMS|DCode=80|XSize=0.5mm|YSize=1.6mm|CornerRadius=0mm|HoleSize=0mm|Usage=FLASHONLY|Rotation=315.000|XOffset=0mm|YOffset=0mm|HoleType=Round|Shape=Rectangle|*
%AMROTATEDRECTD80*
4,1,4,-0.74,-0.39,0.39,0.74,0.74,0.39,-0.39,-0.74,-0.74,-0.39,0.0*
%
%ADD80ROTATEDRECTD80*%

G04:AMPARAMS|DCode=81|XSize=0.5mm|YSize=1.6mm|CornerRadius=0mm|HoleSize=0mm|Usage=FLASHONLY|Rotation=45.000|XOffset=0mm|YOffset=0mm|HoleType=Round|Shape=Rectangle|*
%AMROTATEDRECTD81*
4,1,4,0.39,-0.74,-0.74,0.39,-0.39,0.74,0.74,-0.39,0.39,-0.74,0.0*
%
%ADD81ROTATEDRECTD81*%

G04:AMPARAMS|DCode=82|XSize=0.85mm|YSize=0.8mm|CornerRadius=0.12mm|HoleSize=0mm|Usage=FLASHONLY|Rotation=0.000|XOffset=0mm|YOffset=0mm|HoleType=Round|Shape=RoundedRectangle|*
%AMROUNDEDRECTD82*
21,1,0.85,0.57,0,0,0.0*
21,1,0.62,0.80,0,0,0.0*
1,1,0.23,0.31,-0.28*
1,1,0.23,-0.31,-0.28*
1,1,0.23,-0.31,0.28*
1,1,0.23,0.31,0.28*
%
%ADD82ROUNDEDRECTD82*%
%ADD83R,1.50X0.90*%
G04:AMPARAMS|DCode=84|XSize=0.7mm|YSize=0.45mm|CornerRadius=0.1mm|HoleSize=0mm|Usage=FLASHONLY|Rotation=270.000|XOffset=0mm|YOffset=0mm|HoleType=Round|Shape=RoundedRectangle|*
%AMROUNDEDRECTD84*
21,1,0.70,0.25,0,0,270.0*
21,1,0.50,0.45,0,0,270.0*
1,1,0.21,-0.12,-0.25*
1,1,0.21,-0.12,0.25*
1,1,0.21,0.12,0.25*
1,1,0.21,0.12,-0.25*
%
%ADD84ROUNDEDRECTD84*%
%ADD85R,0.90X1.50*%
G04:AMPARAMS|DCode=86|XSize=0.7mm|YSize=0.45mm|CornerRadius=0.1mm|HoleSize=0mm|Usage=FLASHONLY|Rotation=180.000|XOffset=0mm|YOffset=0mm|HoleType=Round|Shape=RoundedRectangle|*
%AMROUNDEDRECTD86*
21,1,0.70,0.25,0,0,180.0*
21,1,0.50,0.45,0,0,180.0*
1,1,0.21,-0.25,0.12*
1,1,0.21,0.25,0.12*
1,1,0.21,0.25,-0.12*
1,1,0.21,-0.25,-0.12*
%
%ADD86ROUNDEDRECTD86*%
%ADD87R,1.70X2.20*%
%ADD88R,0.65X0.65*%
%ADD89R,1.65X0.65*%
%ADD90R,2.00X1.50*%
%ADD91R,1.75X0.80*%
%ADD92R,1.00X1.30*%
%ADD93R,2.20X1.30*%
%ADD94R,1.75X2.05*%
%ADD95R,1.70X1.70*%
%ADD96R,1.70X1.70*%
%ADD97C,0.90*%
%ADD98R,1.73X1.20*%
%ADD99O,1.73X1.20*%
%ADD100R,1.20X1.73*%
%ADD101O,1.20X1.73*%
%ADD102C,0.70*%
%ADD103C,3.20*%
%ADD104C,1.00*%
%ADD105C,1.47*%
D63*
X13177Y10980D02*
D03*
Y10845D02*
D03*
X14507Y10647D02*
D03*
Y10512D02*
D03*
X12368Y9832D02*
D03*
Y9968D02*
D03*
X9327Y11054D02*
D03*
Y10919D02*
D03*
Y10674D02*
D03*
Y10539D02*
D03*
X12990Y10982D02*
D03*
Y10847D02*
D03*
D64*
X14913Y10114D02*
D03*
X14818Y10349D02*
D03*
X15009D02*
D03*
D65*
X9670Y7118D02*
D03*
Y6988D02*
D03*
X12462Y5342D02*
D03*
Y5472D02*
D03*
X9841Y4489D02*
D03*
Y4619D02*
D03*
X9022Y4509D02*
D03*
Y4639D02*
D03*
X9436Y4535D02*
D03*
Y4665D02*
D03*
X11665Y9822D02*
D03*
Y9953D02*
D03*
X12375Y10330D02*
D03*
Y10200D02*
D03*
X13432Y11347D02*
D03*
Y11218D02*
D03*
X12762Y11345D02*
D03*
Y11215D02*
D03*
X11078Y9588D02*
D03*
Y9718D02*
D03*
X11298Y9718D02*
D03*
Y9588D02*
D03*
X8402Y5438D02*
D03*
Y5568D02*
D03*
X8182Y5438D02*
D03*
Y5568D02*
D03*
X7454Y5428D02*
D03*
Y5558D02*
D03*
X7233Y5428D02*
D03*
Y5558D02*
D03*
X7935Y5428D02*
D03*
Y5558D02*
D03*
X7715Y5428D02*
D03*
Y5558D02*
D03*
X6990Y5430D02*
D03*
Y5560D02*
D03*
X6770Y5430D02*
D03*
Y5560D02*
D03*
X10545Y4088D02*
D03*
Y3958D02*
D03*
X8221Y7703D02*
D03*
Y7572D02*
D03*
D66*
X12196Y5005D02*
D03*
X11046D02*
D03*
X14888Y9368D02*
D03*
X6675Y10097D02*
D03*
Y10351D02*
D03*
Y10606D02*
D03*
Y10860D02*
D03*
Y11114D02*
D03*
X10061Y10003D02*
D03*
X9807D02*
D03*
X14748Y11285D02*
D03*
X8831Y11327D02*
D03*
X11418Y11325D02*
D03*
X9090Y10005D02*
D03*
X8836D02*
D03*
X12805Y9393D02*
D03*
D67*
X11321Y4930D02*
D03*
X11441D02*
D03*
X11921D02*
D03*
X11801D02*
D03*
X11681D02*
D03*
X11561D02*
D03*
D68*
X11046Y4755D02*
D03*
Y4635D02*
D03*
Y4515D02*
D03*
Y4275D02*
D03*
Y3915D02*
D03*
Y4035D02*
D03*
Y4155D02*
D03*
Y4395D02*
D03*
X12196D02*
D03*
Y4155D02*
D03*
Y4035D02*
D03*
Y3915D02*
D03*
Y4275D02*
D03*
Y4515D02*
D03*
Y4635D02*
D03*
Y4755D02*
D03*
D69*
X11217Y7263D02*
D03*
X10509Y6556D02*
D03*
D70*
X12532Y8845D02*
D03*
X12662D02*
D03*
X12532Y8618D02*
D03*
X12662D02*
D03*
X12531Y8402D02*
D03*
X12661D02*
D03*
X12755Y11510D02*
D03*
X12885D02*
D03*
X7822Y7725D02*
D03*
X7953D02*
D03*
X5977Y6989D02*
D03*
X6107D02*
D03*
X5977Y6735D02*
D03*
X6107D02*
D03*
X5977Y7509D02*
D03*
X6107D02*
D03*
X5977Y7243D02*
D03*
X6107D02*
D03*
X5966Y8680D02*
D03*
X6096D02*
D03*
X5967Y8459D02*
D03*
X6097D02*
D03*
X5966Y9137D02*
D03*
X6096D02*
D03*
X5966Y8916D02*
D03*
X6096D02*
D03*
X7970Y11060D02*
D03*
X7840D02*
D03*
X7840Y11338D02*
D03*
X7970D02*
D03*
X5053Y5587D02*
D03*
X4923D02*
D03*
X5832Y10463D02*
D03*
X5962D02*
D03*
X11143Y8145D02*
D03*
X11272D02*
D03*
X11138Y7920D02*
D03*
X11268D02*
D03*
X8181Y7205D02*
D03*
X8051D02*
D03*
X8390Y9120D02*
D03*
X8260D02*
D03*
X10368Y9243D02*
D03*
X10238D02*
D03*
X10410Y9000D02*
D03*
X10540D02*
D03*
X7312Y11315D02*
D03*
X7182D02*
D03*
X14202Y11047D02*
D03*
X14332D02*
D03*
X14195Y10832D02*
D03*
X14325D02*
D03*
X13150Y11153D02*
D03*
X13020D02*
D03*
D71*
X10354Y7347D02*
D03*
X10446Y7438D02*
D03*
X10033Y7028D02*
D03*
X9942Y6937D02*
D03*
D72*
X13418Y10555D02*
D03*
X13552D02*
D03*
X11146Y10817D02*
D03*
X11011D02*
D03*
X10765D02*
D03*
X10630D02*
D03*
X5994Y10669D02*
D03*
X5859D02*
D03*
X4898Y5389D02*
D03*
X5033D02*
D03*
X14193Y11222D02*
D03*
X14327D02*
D03*
D73*
X7452Y4768D02*
D03*
X7547Y5003D02*
D03*
X8401Y4768D02*
D03*
X8496Y5003D02*
D03*
X6995Y4768D02*
D03*
X7090Y5003D02*
D03*
X7935Y4768D02*
D03*
X8030Y5003D02*
D03*
D74*
X7357Y5003D02*
D03*
X8306D02*
D03*
X6900D02*
D03*
X7840D02*
D03*
D75*
X13227Y11515D02*
D03*
X13077D02*
D03*
D76*
X12575D02*
D03*
Y11400D02*
D03*
X9442Y4847D02*
D03*
Y4962D02*
D03*
X9841Y4840D02*
D03*
Y4955D02*
D03*
X9022Y4847D02*
D03*
Y4962D02*
D03*
D77*
X13360Y9922D02*
D03*
X13640D02*
D03*
D78*
X12920Y10528D02*
D03*
Y10097D02*
D03*
D79*
X9844Y4127D02*
D03*
Y4277D02*
D03*
X9020Y4144D02*
D03*
Y4294D02*
D03*
X9436Y4144D02*
D03*
Y4294D02*
D03*
D80*
X9399Y8847D02*
D03*
X9435Y8812D02*
D03*
X9470Y8776D02*
D03*
X9505Y8741D02*
D03*
X9541Y8706D02*
D03*
X9576Y8670D02*
D03*
X9612Y8635D02*
D03*
X9647Y8600D02*
D03*
X9682Y8564D02*
D03*
X9718Y8529D02*
D03*
X9753Y8494D02*
D03*
X9788Y8458D02*
D03*
X9824Y8423D02*
D03*
X9859Y8388D02*
D03*
X9894Y8352D02*
D03*
X9930Y8317D02*
D03*
X9124Y7511D02*
D03*
X9088Y7546D02*
D03*
X9053Y7581D02*
D03*
X9018Y7617D02*
D03*
X8982Y7652D02*
D03*
X8947Y7688D02*
D03*
X8911Y7723D02*
D03*
X8876Y7758D02*
D03*
X8841Y7794D02*
D03*
X8805Y7829D02*
D03*
X8770Y7864D02*
D03*
X8735Y7900D02*
D03*
X8699Y7935D02*
D03*
X8664Y7970D02*
D03*
X8629Y8006D02*
D03*
X8593Y8041D02*
D03*
D81*
X9930D02*
D03*
X9894Y8006D02*
D03*
X9859Y7970D02*
D03*
X9824Y7935D02*
D03*
X9788Y7900D02*
D03*
X9753Y7864D02*
D03*
X9718Y7829D02*
D03*
X9682Y7794D02*
D03*
X9647Y7758D02*
D03*
X9612Y7723D02*
D03*
X9576Y7688D02*
D03*
X9541Y7652D02*
D03*
X9505Y7617D02*
D03*
X9470Y7581D02*
D03*
X9435Y7546D02*
D03*
X9399Y7511D02*
D03*
X8593Y8317D02*
D03*
X8629Y8352D02*
D03*
X8664Y8388D02*
D03*
X8699Y8423D02*
D03*
X8735Y8458D02*
D03*
X8770Y8494D02*
D03*
X8805Y8529D02*
D03*
X8841Y8564D02*
D03*
X8876Y8600D02*
D03*
X8911Y8635D02*
D03*
X8947Y8670D02*
D03*
X8982Y8706D02*
D03*
X9018Y8741D02*
D03*
X9053Y8776D02*
D03*
X9088Y8812D02*
D03*
X9124Y8847D02*
D03*
D82*
X5612Y10811D02*
D03*
Y10736D02*
D03*
Y10661D02*
D03*
Y10586D02*
D03*
Y10511D02*
D03*
Y10436D02*
D03*
X5392D02*
D03*
Y10511D02*
D03*
Y10586D02*
D03*
Y10661D02*
D03*
Y10736D02*
D03*
Y10811D02*
D03*
X5296Y5247D02*
D03*
Y5322D02*
D03*
Y5397D02*
D03*
Y5472D02*
D03*
Y5547D02*
D03*
Y5622D02*
D03*
X5516D02*
D03*
Y5547D02*
D03*
Y5472D02*
D03*
Y5397D02*
D03*
Y5322D02*
D03*
Y5247D02*
D03*
D83*
X8956Y10792D02*
D03*
D84*
X9033Y10892D02*
D03*
X8983D02*
D03*
X8933D02*
D03*
X8883D02*
D03*
Y10692D02*
D03*
X8933D02*
D03*
X8983D02*
D03*
X9033D02*
D03*
D85*
X10906Y11213D02*
D03*
D86*
X11006Y11135D02*
D03*
Y11185D02*
D03*
Y11235D02*
D03*
Y11285D02*
D03*
X10806D02*
D03*
Y11235D02*
D03*
Y11185D02*
D03*
Y11135D02*
D03*
D87*
X7614Y11061D02*
D03*
X7164D02*
D03*
X7614Y10221D02*
D03*
X7164D02*
D03*
D88*
X12022Y8689D02*
D03*
Y8621D02*
D03*
Y8554D02*
D03*
X11897Y8689D02*
D03*
Y8621D02*
D03*
Y8554D02*
D03*
D89*
X12107Y9790D02*
D03*
Y9885D02*
D03*
Y9980D02*
D03*
X11892Y9790D02*
D03*
Y9980D02*
D03*
D90*
X10205Y3945D02*
D03*
Y4235D02*
D03*
D91*
X13427Y10968D02*
D03*
Y10842D02*
D03*
Y11096D02*
D03*
Y10714D02*
D03*
X13968Y10717D02*
D03*
Y11098D02*
D03*
Y10844D02*
D03*
Y10971D02*
D03*
D92*
X13645Y10240D02*
D03*
D93*
X13440D02*
D03*
D94*
X12144Y4913D02*
D03*
X11099D02*
D03*
D95*
X14888Y9622D02*
D03*
X6675Y11368D02*
D03*
X11418Y11071D02*
D03*
X12805Y9647D02*
D03*
D96*
X9553Y10003D02*
D03*
X15002Y11285D02*
D03*
X9085Y11327D02*
D03*
X8582Y10005D02*
D03*
D97*
X10886Y8144D02*
D03*
X10738Y7995D02*
D03*
D98*
X5457Y6646D02*
D03*
X5462Y8408D02*
D03*
D99*
X5457Y7154D02*
D03*
X5203Y6773D02*
D03*
X5203Y7281D02*
D03*
X5457Y6900D02*
D03*
Y7408D02*
D03*
X5200Y7027D02*
D03*
X5203Y7535D02*
D03*
X5462Y8916D02*
D03*
X5208Y8535D02*
D03*
X5208Y9043D02*
D03*
X5462Y8662D02*
D03*
Y9170D02*
D03*
X5205Y8789D02*
D03*
X5208Y9297D02*
D03*
D100*
X5901Y12008D02*
D03*
X4974Y3940D02*
D03*
X8112Y4335D02*
D03*
D101*
X5393Y12008D02*
D03*
X5774Y11753D02*
D03*
X5266Y11754D02*
D03*
X5647Y12008D02*
D03*
X5139D02*
D03*
X5520Y11751D02*
D03*
X5012Y11754D02*
D03*
X5482Y3940D02*
D03*
X5101Y4194D02*
D03*
X5609Y4194D02*
D03*
X5228Y3940D02*
D03*
X5736D02*
D03*
X5355Y4197D02*
D03*
X5863Y4194D02*
D03*
X7604Y4335D02*
D03*
X7985Y4080D02*
D03*
X7477Y4081D02*
D03*
X7858Y4335D02*
D03*
X7350D02*
D03*
X7731Y4078D02*
D03*
X7223Y4081D02*
D03*
D102*
X6375Y12153D02*
D03*
Y12238D02*
D03*
X6125Y12318D02*
D03*
X6122Y12238D02*
D03*
Y12150D02*
D03*
X6375Y12318D02*
D03*
Y3638D02*
D03*
Y3722D02*
D03*
X6125Y3803D02*
D03*
X6122Y3722D02*
D03*
Y3635D02*
D03*
X6375Y3803D02*
D03*
X6370Y4895D02*
D03*
X6117Y4728D02*
D03*
Y4815D02*
D03*
X6120Y4895D02*
D03*
X6370Y4815D02*
D03*
Y4730D02*
D03*
X6378Y11015D02*
D03*
Y11100D02*
D03*
X6122Y11180D02*
D03*
X6120Y11097D02*
D03*
Y11012D02*
D03*
X6378Y11180D02*
D03*
D103*
X5775Y11250D02*
D03*
X5100Y4845D02*
D03*
X5775D02*
D03*
X5100Y11250D02*
D03*
X6797Y12028D02*
D03*
Y4028D02*
D03*
X14798D02*
D03*
Y12028D02*
D03*
D104*
X13765Y10745D02*
D03*
X13638Y10738D02*
D03*
X13635Y10845D02*
D03*
X13632Y10953D02*
D03*
X13760D02*
D03*
X5096Y5242D02*
D03*
X5859Y10818D02*
D03*
X13677Y10412D02*
D03*
X13682Y11200D02*
D03*
X13760Y11062D02*
D03*
X13765Y10845D02*
D03*
X13630Y11060D02*
D03*
X9678Y8315D02*
D03*
X10685Y7793D02*
D03*
X10798Y7858D02*
D03*
X10562Y7715D02*
D03*
X8770Y10925D02*
D03*
Y10800D02*
D03*
X8772Y10668D02*
D03*
X9488Y10790D02*
D03*
X9490Y10662D02*
D03*
X9488Y10910D02*
D03*
X10778Y10657D02*
D03*
X10768Y11430D02*
D03*
X10900D02*
D03*
X11022D02*
D03*
X11005Y10660D02*
D03*
X8507Y8690D02*
D03*
X11178Y9910D02*
D03*
X11930Y5660D02*
D03*
X6770Y5133D02*
D03*
X9194Y4962D02*
D03*
X9607Y4962D02*
D03*
X10007Y4958D02*
D03*
X11803Y5272D02*
D03*
X9250Y7740D02*
D03*
X9253Y7838D02*
D03*
X8182Y5127D02*
D03*
X10020Y4635D02*
D03*
X12455Y4515D02*
D03*
X7233Y5127D02*
D03*
X12555Y4397D02*
D03*
X11670Y5360D02*
D03*
X11380Y5142D02*
D03*
X8497Y7160D02*
D03*
X9397Y6765D02*
D03*
X9528Y6838D02*
D03*
X5799Y9139D02*
D03*
X5799Y8918D02*
D03*
X5804Y8681D02*
D03*
X5809Y8461D02*
D03*
X5807Y6739D02*
D03*
X5812Y6994D02*
D03*
X5814Y7242D02*
D03*
X5819Y7512D02*
D03*
X5912Y6444D02*
D03*
X5992Y6512D02*
D03*
X8402Y5753D02*
D03*
X7935Y5745D02*
D03*
X7457Y5755D02*
D03*
X6353Y8538D02*
D03*
X6283Y8653D02*
D03*
X7857Y8572D02*
D03*
X6993Y5750D02*
D03*
X8722Y9575D02*
D03*
X8262Y8938D02*
D03*
X8400Y8822D02*
D03*
X12228Y10093D02*
D03*
X11893Y10130D02*
D03*
X11890Y9880D02*
D03*
X8722Y7497D02*
D03*
X7965Y8497D02*
D03*
X8232Y11203D02*
D03*
X8783Y6713D02*
D03*
X7715Y5128D02*
D03*
X9168Y6238D02*
D03*
X9310Y6210D02*
D03*
X9085Y6358D02*
D03*
X9893Y7285D02*
D03*
X10093Y7478D02*
D03*
X10935Y8030D02*
D03*
X8953Y5553D02*
D03*
X9470Y5428D02*
D03*
X9762D02*
D03*
X10332D02*
D03*
X10538D02*
D03*
X10728D02*
D03*
X10928D02*
D03*
X11153D02*
D03*
X11450D02*
D03*
X8612Y7722D02*
D03*
X10035Y8797D02*
D03*
X9994Y8664D02*
D03*
X8843Y7109D02*
D03*
X8520Y7605D02*
D03*
X5691Y5584D02*
D03*
X5202Y10466D02*
D03*
X10832Y9680D02*
D03*
X9585Y8388D02*
D03*
X13510Y10412D02*
D03*
X13960Y10540D02*
D03*
D105*
X13968Y11345D02*
D03*
X13682D02*
D03*
X13898Y10075D02*
D03*
Y9640D02*
D03*
X12925Y8220D02*
D03*
X11665Y9568D02*
D03*
X9168Y8167D02*
D03*
X8593Y4425D02*
D03*
X9988Y9732D02*
D03*
X13125Y8222D02*
D03*
X12725Y8210D02*
D03*
X7270Y8020D02*
D03*
X8007Y9360D02*
D03*
X7788Y9365D02*
D03*
Y9183D02*
D03*
X7962Y6662D02*
D03*
X7780D02*
D03*
X7785Y6882D02*
D03*
X9840Y9368D02*
D03*
X11500Y8038D02*
D03*
X12238Y5480D02*
D03*
X7357Y11580D02*
D03*
X10825Y4035D02*
D03*
X7630Y8122D02*
D03*
X13012Y8570D02*
D03*
X9318Y9828D02*
D03*
X10597Y9812D02*
D03*
M02*
