G04 Layer_Physical_Order=1*
G04 Layer_Color=255*
%FSLAX42Y42*%
%MOMM*%
G71*
G01*
G75*
%ADD10R,1.00X0.90*%
%ADD11R,0.60X1.45*%
%ADD12R,0.95X0.85*%
%ADD13C,1.50*%
%ADD14R,0.80X1.50*%
%ADD15R,1.50X0.80*%
G04:AMPARAMS|DCode=16|XSize=5.5mm|YSize=2mm|CornerRadius=0mm|HoleSize=0mm|Usage=FLASHONLY|Rotation=225.000|XOffset=0mm|YOffset=0mm|HoleType=Round|Shape=Rectangle|*
%AMROTATEDRECTD16*
4,1,4,1.24,2.65,2.65,1.24,-1.24,-2.65,-2.65,-1.24,1.24,2.65,0.0*
%
%ADD16ROTATEDRECTD16*%

%ADD17R,0.85X0.95*%
G04:AMPARAMS|DCode=18|XSize=0.95mm|YSize=0.85mm|CornerRadius=0mm|HoleSize=0mm|Usage=FLASHONLY|Rotation=135.000|XOffset=0mm|YOffset=0mm|HoleType=Round|Shape=Rectangle|*
%AMROTATEDRECTD18*
4,1,4,0.64,-0.04,0.04,-0.64,-0.64,0.04,-0.04,0.64,0.64,-0.04,0.0*
%
%ADD18ROTATEDRECTD18*%

%ADD19R,0.90X1.00*%
%ADD20R,0.90X0.95*%
%ADD21R,0.90X0.95*%
%ADD22R,0.80X0.80*%
%ADD23R,1.00X0.75*%
%ADD24R,1.30X2.70*%
%ADD25R,6.00X2.00*%
%ADD26R,0.80X0.80*%
G04:AMPARAMS|DCode=27|XSize=0.3mm|YSize=1.4mm|CornerRadius=0mm|HoleSize=0mm|Usage=FLASHONLY|Rotation=315.000|XOffset=0mm|YOffset=0mm|HoleType=Round|Shape=Rectangle|*
%AMROTATEDRECTD27*
4,1,4,-0.60,-0.39,0.39,0.60,0.60,0.39,-0.39,-0.60,-0.60,-0.39,0.0*
%
%ADD27ROTATEDRECTD27*%

G04:AMPARAMS|DCode=28|XSize=0.3mm|YSize=1.4mm|CornerRadius=0mm|HoleSize=0mm|Usage=FLASHONLY|Rotation=45.000|XOffset=0mm|YOffset=0mm|HoleType=Round|Shape=Rectangle|*
%AMROTATEDRECTD28*
4,1,4,0.39,-0.60,-0.60,0.39,-0.39,0.60,0.60,-0.39,0.39,-0.60,0.0*
%
%ADD28ROTATEDRECTD28*%

G04:AMPARAMS|DCode=29|XSize=0.65mm|YSize=0.6mm|CornerRadius=0.02mm|HoleSize=0mm|Usage=FLASHONLY|Rotation=0.000|XOffset=0mm|YOffset=0mm|HoleType=Round|Shape=RoundedRectangle|*
%AMROUNDEDRECTD29*
21,1,0.65,0.57,0,0,0.0*
21,1,0.62,0.60,0,0,0.0*
1,1,0.03,0.31,-0.28*
1,1,0.03,-0.31,-0.28*
1,1,0.03,-0.31,0.28*
1,1,0.03,0.31,0.28*
%
%ADD29ROUNDEDRECTD29*%
%ADD30R,1.30X0.70*%
G04:AMPARAMS|DCode=31|XSize=0.5mm|YSize=0.25mm|CornerRadius=0mm|HoleSize=0mm|Usage=FLASHONLY|Rotation=270.000|XOffset=0mm|YOffset=0mm|HoleType=Round|Shape=RoundedRectangle|*
%AMROUNDEDRECTD31*
21,1,0.50,0.25,0,0,270.0*
21,1,0.50,0.25,0,0,270.0*
1,1,0.00,-0.12,-0.25*
1,1,0.00,-0.12,0.25*
1,1,0.00,0.12,0.25*
1,1,0.00,0.12,-0.25*
%
%ADD31ROUNDEDRECTD31*%
%ADD32R,0.70X1.30*%
G04:AMPARAMS|DCode=33|XSize=0.5mm|YSize=0.25mm|CornerRadius=0mm|HoleSize=0mm|Usage=FLASHONLY|Rotation=180.000|XOffset=0mm|YOffset=0mm|HoleType=Round|Shape=RoundedRectangle|*
%AMROUNDEDRECTD33*
21,1,0.50,0.25,0,0,180.0*
21,1,0.50,0.25,0,0,180.0*
1,1,0.00,-0.25,0.12*
1,1,0.00,0.25,0.12*
1,1,0.00,0.25,-0.12*
1,1,0.00,-0.25,-0.12*
%
%ADD33ROUNDEDRECTD33*%
%ADD34R,1.50X2.00*%
%ADD35R,0.45X0.45*%
%ADD36R,1.45X0.45*%
%ADD37R,1.80X1.30*%
%ADD38R,1.55X0.60*%
%ADD39R,0.80X1.10*%
%ADD40R,2.00X1.10*%
%ADD41C,0.25*%
%ADD42C,0.50*%
%ADD43C,0.76*%
%ADD44R,1.55X1.85*%
%ADD45R,1.50X1.50*%
%ADD46R,1.50X1.50*%
%ADD47C,0.70*%
%ADD48R,1.52X1.00*%
%ADD49O,1.52X1.00*%
%ADD50R,1.00X1.52*%
%ADD51O,1.00X1.52*%
%ADD52C,0.50*%
%ADD53C,3.00*%
%ADD54C,0.80*%
%ADD55C,1.27*%
G36*
X11110Y11338D02*
X11046D01*
Y11285D01*
X10966D01*
Y11318D01*
X10962Y11316D01*
X10957Y11308D01*
X10956Y11303D01*
X10946D01*
Y11213D01*
Y11122D01*
X10955D01*
X10966Y11122D01*
X10971Y11113D01*
X10971Y11113D01*
X10973Y11112D01*
X10978Y11108D01*
Y11103D01*
X11078Y11003D01*
Y10892D01*
X11051D01*
Y10817D01*
Y10741D01*
X11078D01*
Y10590D01*
X10700D01*
Y10741D01*
X10725D01*
Y10817D01*
Y10892D01*
X10700D01*
Y10955D01*
X10838Y11093D01*
Y11112D01*
X10840Y11113D01*
X10840Y11113D01*
X10845Y11122D01*
X10866D01*
Y11213D01*
Y11303D01*
X10845D01*
X10838Y11313D01*
Y11338D01*
X10700Y11338D01*
X10700Y11497D01*
X11110Y11497D01*
Y11338D01*
D02*
G37*
G36*
X8140Y11245D02*
X8127Y11239D01*
X8025Y11341D01*
Y11398D01*
X7915D01*
Y11277D01*
X8016D01*
X8109Y11184D01*
X8118Y11179D01*
X8128Y11177D01*
X8140D01*
Y10006D01*
X8128Y10001D01*
X8018Y10111D01*
Y11000D01*
X8025D01*
Y11120D01*
X7915D01*
Y11000D01*
X7967D01*
Y10859D01*
X7955Y10854D01*
X7918Y10891D01*
X7910Y10896D01*
X7900Y10898D01*
X7088D01*
X7064Y10923D01*
X7069Y10936D01*
X7073Y10936D01*
X7124D01*
Y11021D01*
X7063D01*
Y10946D01*
X7063Y10941D01*
X7050Y10936D01*
X7001Y10986D01*
Y11253D01*
X6999Y11262D01*
X6993Y11271D01*
X6878Y11386D01*
X6870Y11391D01*
X6860Y11393D01*
X6763D01*
Y11455D01*
X6587D01*
Y11280D01*
X6763D01*
Y11342D01*
X6849D01*
X6949Y11242D01*
Y10975D01*
X6951Y10965D01*
X6957Y10957D01*
X7059Y10854D01*
X7068Y10849D01*
X7078Y10847D01*
X7889D01*
X7964Y10772D01*
X7967Y10770D01*
Y10100D01*
X7969Y10090D01*
X7974Y10082D01*
X8140Y9916D01*
Y9475D01*
X8581D01*
X8589Y9467D01*
Y8932D01*
X8591Y8922D01*
X8597Y8913D01*
X8835Y8675D01*
X8811Y8651D01*
X8802Y8660D01*
X8756Y8615D01*
X8446Y8925D01*
Y9120D01*
X8445Y9124D01*
Y9180D01*
X8341D01*
X8335Y9180D01*
X8328Y9190D01*
Y9193D01*
X8300D01*
Y9120D01*
Y9047D01*
X8328D01*
Y9050D01*
X8335Y9060D01*
X8341Y9060D01*
X8394D01*
Y8914D01*
X8396Y8904D01*
X8402Y8896D01*
X8411Y8887D01*
X8404Y8875D01*
X8400Y8876D01*
X8379Y8872D01*
X8362Y8860D01*
X8350Y8843D01*
X8346Y8822D01*
X8350Y8802D01*
X8362Y8785D01*
X8374Y8776D01*
Y8654D01*
X8374Y8652D01*
X8376Y8642D01*
X8381Y8634D01*
X8404Y8611D01*
X8399Y8598D01*
X7904D01*
X7895Y8610D01*
X7878Y8622D01*
X7857Y8626D01*
X7837Y8622D01*
X7820Y8610D01*
X7808Y8593D01*
X7804Y8572D01*
X7808Y8552D01*
X7820Y8535D01*
X7837Y8523D01*
X7857Y8519D01*
X7878Y8523D01*
X7895Y8535D01*
X7904Y8547D01*
X7923D01*
X7926Y8534D01*
X7916Y8518D01*
X7912Y8497D01*
X7916Y8477D01*
X7927Y8460D01*
X7945Y8448D01*
X7965Y8444D01*
X7986Y8448D01*
X8003Y8460D01*
X8011Y8472D01*
X8402D01*
X8517Y8357D01*
X8515Y8356D01*
X8632Y8239D01*
X8703Y8309D01*
X8774Y8380D01*
X8846Y8452D01*
X9098Y8199D01*
X9093Y8187D01*
X9091Y8167D01*
X9093Y8147D01*
X9101Y8128D01*
X9113Y8113D01*
X9129Y8100D01*
X9142Y8095D01*
Y7990D01*
X8961Y7809D01*
X8915Y7854D01*
X8912Y7852D01*
X8900Y7852D01*
X8844Y7907D01*
X8776Y7975D01*
X8793Y7992D01*
X8799Y8001D01*
X8801Y8011D01*
Y8034D01*
X8802Y8035D01*
X8811Y8048D01*
X8813Y8062D01*
X8811Y8077D01*
X8802Y8090D01*
X8722Y8170D01*
X8710Y8178D01*
X8695Y8181D01*
X8695Y8181D01*
X8026D01*
X7693Y8513D01*
Y8717D01*
X7876Y8899D01*
X8225D01*
X8242Y8888D01*
X8262Y8884D01*
X8283Y8888D01*
X8300Y8900D01*
X8312Y8917D01*
X8316Y8938D01*
X8312Y8958D01*
X8300Y8975D01*
X8283Y8987D01*
X8262Y8991D01*
X8242Y8987D01*
X8225Y8976D01*
X7860D01*
X7845Y8973D01*
X7833Y8965D01*
X7833Y8965D01*
X7628Y8760D01*
X7619Y8747D01*
X7617Y8732D01*
X7617Y8732D01*
Y8498D01*
X7617Y8497D01*
X7619Y8483D01*
X7625Y8475D01*
X7615Y8467D01*
X6600Y9481D01*
Y10031D01*
X6608Y10034D01*
X6613Y10034D01*
X6631Y10021D01*
X6652Y10012D01*
X6675Y10009D01*
X6698Y10012D01*
X6719Y10021D01*
X6738Y10035D01*
X6752Y10053D01*
X6760Y10075D01*
X6763Y10097D01*
X6760Y10120D01*
X6752Y10142D01*
X6738Y10160D01*
X6719Y10174D01*
X6698Y10183D01*
X6675Y10186D01*
X6652Y10183D01*
X6631Y10174D01*
X6613Y10161D01*
X6608Y10161D01*
X6600Y10164D01*
Y10240D01*
X6634Y10274D01*
X6652Y10266D01*
X6675Y10263D01*
X6698Y10266D01*
X6719Y10275D01*
X6738Y10289D01*
X6752Y10307D01*
X6760Y10329D01*
X6763Y10351D01*
X6760Y10374D01*
X6752Y10396D01*
X6738Y10414D01*
X6719Y10428D01*
X6698Y10437D01*
X6675Y10440D01*
X6652Y10437D01*
X6631Y10428D01*
X6612Y10414D01*
X6598Y10396D01*
X6590Y10374D01*
X6587Y10351D01*
X6590Y10329D01*
X6597Y10310D01*
X6556Y10269D01*
X6556Y10269D01*
X6543Y10273D01*
Y10437D01*
X6634Y10528D01*
X6652Y10520D01*
X6675Y10517D01*
X6698Y10520D01*
X6719Y10529D01*
X6738Y10543D01*
X6752Y10561D01*
X6760Y10583D01*
X6763Y10606D01*
X6760Y10628D01*
X6752Y10650D01*
X6738Y10668D01*
X6719Y10682D01*
X6698Y10691D01*
X6675Y10694D01*
X6652Y10691D01*
X6631Y10682D01*
X6612Y10668D01*
X6598Y10650D01*
X6590Y10628D01*
X6587Y10606D01*
X6590Y10583D01*
X6597Y10564D01*
X6499Y10466D01*
X6498Y10464D01*
X6485Y10468D01*
Y11818D01*
X8140D01*
Y11245D01*
D02*
G37*
G36*
X11536Y11425D02*
Y11218D01*
X10984D01*
Y11256D01*
X11110D01*
X11192Y11425D01*
X11536Y11425D01*
D02*
G37*
G36*
X11545Y11203D02*
Y10968D01*
X11264D01*
X11158Y11074D01*
X11111Y11170D01*
X11004Y11170D01*
X10995Y11179D01*
X10995Y11203D01*
X11545Y11203D01*
D02*
G37*
G36*
X11473Y11822D02*
X11765Y11530D01*
X11765Y10350D01*
Y10075D01*
X11707Y10018D01*
Y9912D01*
X11620Y9912D01*
Y10022D01*
X11572Y10070D01*
Y10350D01*
X11172Y10750D01*
X11093D01*
X11093Y11012D01*
X10980Y11125D01*
Y11150D01*
X11062Y11150D01*
X11290Y10922D01*
X11570Y10923D01*
X11567Y11417D01*
X11349Y11635D01*
X10343Y11635D01*
Y11635D01*
X10018D01*
X9426Y11043D01*
Y10998D01*
X9226D01*
X9224Y11001D01*
X9089Y10866D01*
X9024D01*
X9021Y10868D01*
Y10983D01*
X9861Y11822D01*
X10351D01*
X10351Y11823D01*
X11473Y11822D01*
D02*
G37*
G36*
X9203Y11184D02*
X9024Y11005D01*
X9000Y10994D01*
X9000Y10886D01*
X8991Y10878D01*
X8968Y10878D01*
X8968Y11428D01*
X9203D01*
Y11184D01*
D02*
G37*
G36*
X8947Y10875D02*
X8918D01*
Y10996D01*
X8712Y11096D01*
X8712Y11450D01*
X8947Y11450D01*
X8947Y10875D01*
D02*
G37*
G36*
X8862Y10941D02*
X8861Y10941D01*
X8853Y10935D01*
X8850Y10932D01*
X8883D01*
Y10852D01*
X8850D01*
X8853Y10849D01*
X8861Y10843D01*
X8866Y10842D01*
Y10832D01*
X8956D01*
X9046D01*
Y10852D01*
X9089D01*
X9089Y10852D01*
X9098Y10856D01*
X9227Y10984D01*
X9251D01*
Y10959D01*
X9327D01*
X9402D01*
Y10984D01*
X9426D01*
X9428Y10985D01*
X9725D01*
Y10593D01*
X9406Y10593D01*
X9402Y10604D01*
X9402Y10605D01*
Y10634D01*
X9327D01*
X9251D01*
Y10605D01*
X9251Y10604D01*
X9240Y10598D01*
X9107Y10730D01*
X9058D01*
X9046Y10732D01*
Y10752D01*
X8956D01*
X8866D01*
Y10732D01*
X8862Y10730D01*
Y10728D01*
X8861Y10727D01*
X8857Y10717D01*
Y10667D01*
X8858Y10666D01*
Y10602D01*
X8848Y10593D01*
X8703Y10598D01*
Y11003D01*
X8862D01*
Y10941D01*
D02*
G37*
G36*
X15120Y11397D02*
Y10468D01*
X15076Y10420D01*
X15064Y10425D01*
Y10447D01*
X15048D01*
Y10349D01*
X14968D01*
Y10447D01*
X14953D01*
Y10423D01*
X14941Y10419D01*
X14893Y10468D01*
Y11177D01*
X14902Y11185D01*
X14905Y11185D01*
X14962D01*
Y11285D01*
X15002D01*
Y11325D01*
X15103D01*
Y11385D01*
X15105Y11397D01*
X15120D01*
D02*
G37*
G36*
X14701Y11386D02*
X14699Y11375D01*
X14697Y11373D01*
X14677Y11357D01*
X14661Y11336D01*
X14656Y11325D01*
X14748D01*
Y11285D01*
X14788D01*
Y11193D01*
X14799Y11198D01*
X14820Y11214D01*
X14823Y11218D01*
X14835Y11214D01*
Y10447D01*
X14763D01*
Y10389D01*
X14818D01*
Y10309D01*
X14763D01*
Y10280D01*
X14638D01*
Y10603D01*
X14583D01*
Y10607D01*
X14507D01*
X14432D01*
Y10603D01*
X14293D01*
Y10772D01*
X14380D01*
Y10893D01*
X14351D01*
Y10915D01*
X14349Y10925D01*
X14343Y10933D01*
X14323Y10953D01*
X14315Y10959D01*
X14305Y10961D01*
X14293D01*
Y10961D01*
X14292D01*
Y11047D01*
Y11120D01*
X14293D01*
Y11147D01*
X14398D01*
Y11182D01*
X14327D01*
Y11222D01*
X14288D01*
Y11298D01*
X14257D01*
Y11295D01*
X14250Y11285D01*
X14135D01*
Y11201D01*
X14095Y11162D01*
X13850D01*
X13847Y10435D01*
X14018D01*
Y9532D01*
X13548D01*
Y9750D01*
X13550Y9762D01*
X13560Y9762D01*
X13600D01*
Y9922D01*
Y10083D01*
X13550D01*
X13548Y10095D01*
Y10160D01*
X13580D01*
Y10160D01*
X13605D01*
Y10240D01*
X13645D01*
Y10280D01*
X13710D01*
Y10320D01*
X13607D01*
Y10490D01*
X13610Y10492D01*
X13610D01*
Y10618D01*
X13577D01*
X13577Y11290D01*
X13505D01*
Y11307D01*
X13360D01*
Y11290D01*
X13170D01*
Y11450D01*
X13188D01*
Y11515D01*
X13228D01*
Y11555D01*
X13293D01*
Y11580D01*
X13300Y11590D01*
X14498D01*
X14701Y11386D01*
D02*
G37*
G36*
X12485Y9680D02*
X11790D01*
X11790Y9748D01*
X11802Y9757D01*
X11807Y9755D01*
Y9755D01*
X11978D01*
Y9825D01*
X11807D01*
Y9816D01*
X11790D01*
X11790Y9938D01*
X11802Y9947D01*
X11807Y9945D01*
Y9945D01*
X11978D01*
Y10015D01*
X11807D01*
Y10006D01*
X11790D01*
X11789Y10249D01*
X11798Y10257D01*
X12302D01*
Y10240D01*
X12448D01*
Y10257D01*
X12485D01*
Y9680D01*
D02*
G37*
G36*
X6100Y12180D02*
X6095Y12177D01*
X6087Y12165D01*
X6084Y12150D01*
X6087Y12135D01*
X6095Y12123D01*
X6100Y12120D01*
Y11253D01*
X6062Y11225D01*
Y10950D01*
X6100Y10912D01*
Y10203D01*
X4832D01*
Y12198D01*
X6100D01*
Y12180D01*
D02*
G37*
G36*
X13325Y10770D02*
X13325D01*
Y10754D01*
X13427D01*
Y10715D01*
X13467D01*
Y10659D01*
X13495D01*
Y10640D01*
X13482Y10630D01*
X13457D01*
Y10555D01*
Y10480D01*
X13481D01*
X13489Y10469D01*
X13487Y10460D01*
X13472Y10450D01*
X13460Y10433D01*
X13456Y10412D01*
X13460Y10392D01*
X13472Y10375D01*
X13489Y10363D01*
X13495Y10362D01*
X13495Y10320D01*
X13480D01*
Y10240D01*
Y10160D01*
X13495D01*
Y10120D01*
X13290D01*
Y10238D01*
X12672D01*
X12672Y10402D01*
X12880D01*
Y10488D01*
X12595D01*
Y10445D01*
X12575D01*
Y10782D01*
X13324D01*
X13325Y10770D01*
D02*
G37*
G36*
X9035Y10724D02*
X9036Y10723D01*
X9037Y10722D01*
X9041Y10720D01*
X9044Y10718D01*
X9056Y10716D01*
X9057Y10717D01*
X9058Y10716D01*
X9084D01*
X9212Y10588D01*
X9232D01*
X9233Y10587D01*
X9236Y10585D01*
X9238Y10585D01*
X9240Y10584D01*
X9243Y10586D01*
X9246Y10586D01*
X9249Y10588D01*
X9393Y10588D01*
X9395Y10586D01*
X9396Y10583D01*
X9397Y10582D01*
X9397Y9740D01*
X9237Y9740D01*
Y10378D01*
X9009Y10606D01*
Y10666D01*
X9010Y10667D01*
Y10717D01*
X9019Y10728D01*
X9034Y10728D01*
X9035Y10724D01*
D02*
G37*
G36*
X10832Y11128D02*
X10832Y11127D01*
X10670Y10965D01*
X10670Y9718D01*
X10520Y9718D01*
X10520Y10965D01*
X10703Y11147D01*
X10832D01*
Y11128D01*
D02*
G37*
G36*
X13270Y10157D02*
X13270Y10096D01*
X13270Y10083D01*
X13270Y10083D01*
X13270Y10083D01*
Y9962D01*
X13360D01*
Y9922D01*
X13400D01*
Y9762D01*
X13445D01*
Y9564D01*
X12906D01*
Y9607D01*
X12805D01*
X12705D01*
Y9564D01*
X12628D01*
X12628Y9972D01*
X12880D01*
Y10097D01*
X12920D01*
Y10138D01*
X13245D01*
Y10157D01*
X13270D01*
D02*
G37*
G36*
X14127Y10890D02*
Y10873D01*
X14195D01*
Y10833D01*
X14235D01*
Y10760D01*
X14252D01*
X14260Y10751D01*
X14256Y10565D01*
X14432Y10565D01*
Y10553D01*
X14507D01*
X14583D01*
Y10565D01*
X14600D01*
X14600Y10221D01*
X14850Y10221D01*
X14858Y10208D01*
Y10154D01*
X14913D01*
Y10114D01*
X14953D01*
Y10016D01*
X14969D01*
X14970Y10004D01*
Y9722D01*
X14928D01*
Y9622D01*
Y9521D01*
X14970D01*
Y9504D01*
X14073D01*
Y9986D01*
Y10795D01*
X14070D01*
Y10804D01*
X13967D01*
Y10884D01*
X14070D01*
Y10890D01*
X14127D01*
D02*
G37*
G36*
X11705Y9755D02*
X11732D01*
Y9725D01*
X11757Y9700D01*
Y9420D01*
X11570D01*
Y9700D01*
X11597Y9728D01*
Y9755D01*
X11625D01*
Y9822D01*
X11705D01*
Y9755D01*
D02*
G37*
G36*
X10715Y8714D02*
X10231D01*
X10221Y8713D01*
X10212Y8707D01*
X9935Y8429D01*
X9900Y8463D01*
X9921Y8484D01*
X9945D01*
X9955Y8486D01*
X9963Y8492D01*
X10091Y8619D01*
X10096Y8628D01*
X10098Y8638D01*
Y8760D01*
X10096Y8770D01*
X10091Y8778D01*
X10086Y8783D01*
X10089Y8797D01*
X10085Y8818D01*
X10073Y8835D01*
X10056Y8847D01*
X10035Y8851D01*
X10021Y8848D01*
X10015Y8860D01*
X10129Y8974D01*
X10355D01*
Y8940D01*
X10459D01*
X10465Y8940D01*
X10472Y8930D01*
Y8927D01*
X10500D01*
Y9000D01*
Y9073D01*
X10472D01*
Y9070D01*
X10465Y9060D01*
X10459Y9060D01*
X10416D01*
Y9182D01*
X10423D01*
Y9303D01*
X10318D01*
X10312Y9303D01*
X10305Y9313D01*
Y9315D01*
X10278D01*
Y9243D01*
Y9170D01*
X10305D01*
Y9172D01*
X10312Y9182D01*
X10318Y9182D01*
X10364D01*
Y9060D01*
X10355D01*
Y9026D01*
X10130D01*
X10130Y9026D01*
X10120Y9028D01*
X10110Y9026D01*
X10102Y9020D01*
X9722Y8641D01*
X9686Y8678D01*
X9618Y8746D01*
X9726Y8854D01*
X9731Y8863D01*
X9733Y8872D01*
Y9475D01*
X10715D01*
Y8714D01*
D02*
G37*
G36*
X9641Y8489D02*
X9592Y8440D01*
X9585Y8441D01*
X9564Y8437D01*
X9547Y8425D01*
X9535Y8408D01*
X9531Y8388D01*
X9535Y8367D01*
X9547Y8350D01*
X9564Y8338D01*
X9585Y8334D01*
X9606Y8338D01*
X9623Y8350D01*
X9632Y8341D01*
X9628Y8336D01*
X9624Y8315D01*
X9628Y8294D01*
X9640Y8277D01*
X9657Y8265D01*
X9678Y8261D01*
X9698Y8265D01*
X9715Y8277D01*
X9727Y8294D01*
X9731Y8315D01*
X9727Y8336D01*
X9715Y8353D01*
X9703Y8361D01*
Y8373D01*
X9701Y8383D01*
X9696Y8391D01*
X9692Y8396D01*
X9713Y8417D01*
X9746Y8384D01*
X9785Y8345D01*
X9816Y8313D01*
X9891Y8239D01*
X9890Y8226D01*
X9791Y8127D01*
X9785Y8119D01*
X9783Y8109D01*
Y8043D01*
X9779Y8037D01*
X9777Y8027D01*
X9779Y8017D01*
X9783Y8011D01*
X9749Y7978D01*
X9710Y7939D01*
X9652Y7881D01*
X9643Y7890D01*
X9643Y7889D01*
X9652Y7880D01*
X9640Y7868D01*
X9698Y7809D01*
X9666Y7778D01*
X9608Y7836D01*
X9595Y7824D01*
X9586Y7833D01*
X9586Y7832D01*
X9595Y7823D01*
X9536Y7764D01*
X9276Y8024D01*
Y8084D01*
X9274Y8094D01*
X9268Y8103D01*
X9237Y8134D01*
X9242Y8147D01*
X9243Y8160D01*
X9607Y8523D01*
X9641Y8489D01*
D02*
G37*
G36*
X13032Y9520D02*
X13225Y9328D01*
X13230D01*
X13230Y8088D01*
X12632D01*
X12632Y8329D01*
X12729D01*
Y8362D01*
X12661D01*
Y8442D01*
X12729D01*
Y8475D01*
X12632D01*
X12632Y8545D01*
X12730D01*
Y8578D01*
X12662D01*
Y8658D01*
X12730D01*
Y8690D01*
X12632D01*
Y8772D01*
X12730D01*
Y8805D01*
X12662D01*
Y8885D01*
X12730D01*
Y8918D01*
X12632D01*
X12632Y9540D01*
X13012D01*
X13032Y9520D01*
D02*
G37*
G36*
X11595Y7745D02*
X10730Y7745D01*
X10725Y7758D01*
X10735Y7772D01*
X10739Y7793D01*
X10735Y7813D01*
X10730Y7819D01*
X10737Y7832D01*
X10752D01*
X10760Y7820D01*
X10777Y7808D01*
X10798Y7804D01*
X10819Y7808D01*
X10836Y7820D01*
X10848Y7837D01*
X10852Y7858D01*
X10848Y7878D01*
X10846Y7881D01*
X10852Y7894D01*
X11082D01*
Y7860D01*
X11187D01*
X11193Y7860D01*
X11200Y7850D01*
Y7847D01*
X11228D01*
Y7920D01*
Y7993D01*
X11200D01*
Y7990D01*
X11193Y7980D01*
X11187Y7980D01*
X11082D01*
Y7946D01*
X10848D01*
X10783Y8011D01*
X10782Y8014D01*
X10772Y8030D01*
X10756Y8040D01*
X10738Y8044D01*
X10719Y8040D01*
X10703Y8030D01*
X10693Y8014D01*
X10689Y7995D01*
X10691Y7985D01*
X10651Y7946D01*
X10463D01*
X10458Y7959D01*
X10617Y8118D01*
X10846D01*
X10852Y8109D01*
X10867Y8099D01*
X10886Y8095D01*
X10905Y8099D01*
X10920Y8109D01*
X10927Y8119D01*
X11087D01*
Y8085D01*
X11192D01*
X11198Y8085D01*
X11205Y8075D01*
Y8072D01*
X11232D01*
Y8145D01*
Y8218D01*
X11205D01*
Y8215D01*
X11198Y8205D01*
X11192Y8205D01*
X11087D01*
Y8171D01*
X10925D01*
X10920Y8178D01*
X10905Y8189D01*
X10886Y8192D01*
X10867Y8189D01*
X10852Y8178D01*
X10846Y8170D01*
X10606D01*
X10596Y8168D01*
X10588Y8162D01*
X10419Y7993D01*
X10017D01*
X10008Y8002D01*
X9891Y8119D01*
X9846Y8075D01*
X9835Y8080D01*
Y8098D01*
X10264Y8528D01*
X11595D01*
Y7745D01*
D02*
G37*
G36*
X6492Y9768D02*
Y9462D01*
X6494Y9453D01*
X6499Y9444D01*
X8012Y7931D01*
X8021Y7925D01*
X8031Y7924D01*
X8563D01*
X8568Y7911D01*
X8400Y7743D01*
X8281D01*
Y7758D01*
X8161D01*
Y7738D01*
X8008D01*
Y7785D01*
X7897D01*
Y7665D01*
X8008D01*
Y7687D01*
X8161D01*
Y7647D01*
X8281D01*
Y7692D01*
X8401D01*
X8407Y7679D01*
X8311Y7583D01*
X8281D01*
Y7628D01*
X8161D01*
Y7517D01*
X8281D01*
Y7532D01*
X8322D01*
X8332Y7534D01*
X8340Y7539D01*
X8555Y7754D01*
X8565Y7746D01*
X8563Y7743D01*
X8559Y7722D01*
X8563Y7702D01*
X8572Y7689D01*
X8566Y7676D01*
X8565D01*
X8555Y7674D01*
X8547Y7668D01*
X8534Y7656D01*
X8520Y7659D01*
X8499Y7655D01*
X8482Y7643D01*
X8470Y7626D01*
X8466Y7605D01*
X8470Y7584D01*
X8482Y7567D01*
X8499Y7555D01*
X8520Y7551D01*
X8541Y7555D01*
X8558Y7567D01*
X8570Y7584D01*
X8574Y7605D01*
X8572Y7613D01*
X8582Y7624D01*
X8697D01*
X8707Y7626D01*
X8716Y7632D01*
X8792Y7708D01*
X8826Y7674D01*
X8753Y7601D01*
X8705D01*
X8695Y7599D01*
X8687Y7593D01*
X8478Y7384D01*
X8349D01*
X8339Y7382D01*
X8331Y7377D01*
X8219Y7265D01*
X8131D01*
X8125Y7265D01*
X8119Y7275D01*
Y7278D01*
X8091D01*
Y7205D01*
Y7132D01*
X8119D01*
Y7135D01*
X8125Y7145D01*
X8131Y7145D01*
X8236D01*
Y7209D01*
X8360Y7333D01*
X8488D01*
X8498Y7334D01*
X8507Y7340D01*
X8657Y7491D01*
X8671Y7486D01*
X8673Y7477D01*
X8685Y7460D01*
X8702Y7448D01*
X8722Y7444D01*
X8728Y7445D01*
X8734Y7433D01*
X8512Y7210D01*
X8497Y7213D01*
X8477Y7209D01*
X8460Y7198D01*
X8448Y7180D01*
X8444Y7160D01*
X8448Y7139D01*
X8460Y7122D01*
X8477Y7110D01*
X8497Y7106D01*
X8518Y7110D01*
X8535Y7122D01*
X8547Y7139D01*
X8551Y7160D01*
X8548Y7174D01*
X8946Y7571D01*
X8979Y7539D01*
X9011Y7506D01*
X8044Y6538D01*
X6039D01*
X6030Y6550D01*
X6013Y6562D01*
X5992Y6566D01*
X5972Y6562D01*
X5955Y6550D01*
X5943Y6533D01*
X5939Y6512D01*
X5941Y6504D01*
X5937Y6500D01*
X5929Y6494D01*
X5912Y6498D01*
X5891Y6494D01*
X5874Y6482D01*
X5862Y6465D01*
X5858Y6444D01*
X5862Y6424D01*
X5874Y6406D01*
X5891Y6395D01*
X5912Y6390D01*
X5932Y6395D01*
X5950Y6406D01*
X5957Y6417D01*
X8055D01*
X8065Y6419D01*
X8074Y6424D01*
X8781Y7132D01*
X8793Y7125D01*
X8790Y7109D01*
X8794Y7089D01*
X8805Y7071D01*
X8817Y7063D01*
Y6767D01*
X8806Y6761D01*
X8803Y6762D01*
X8783Y6767D01*
X8762Y6762D01*
X8745Y6751D01*
X8733Y6733D01*
X8729Y6713D01*
X8733Y6692D01*
X8745Y6675D01*
X8757Y6667D01*
Y6370D01*
X8759Y6360D01*
X8765Y6351D01*
X9084Y6032D01*
X9093Y6026D01*
X9103Y6024D01*
X10099D01*
X10197Y5927D01*
Y5603D01*
Y5588D01*
X9622Y5013D01*
X9607Y5016D01*
X9587Y5012D01*
X9570Y5000D01*
X9561Y4988D01*
X9505D01*
Y5012D01*
X9380D01*
Y4912D01*
X9505D01*
Y4936D01*
X9562D01*
X9570Y4925D01*
X9587Y4913D01*
X9607Y4909D01*
X9628Y4913D01*
X9645Y4925D01*
X9657Y4942D01*
X9661Y4962D01*
X9658Y4977D01*
X10241Y5559D01*
X10246Y5568D01*
X10248Y5578D01*
Y5608D01*
X11269Y5608D01*
Y5067D01*
X11271Y5058D01*
X11277Y5049D01*
X11295Y5031D01*
X11295Y5018D01*
X11268D01*
Y4843D01*
X11374D01*
Y5018D01*
X11347D01*
Y5041D01*
X11345Y5051D01*
X11340Y5060D01*
X11321Y5078D01*
Y5113D01*
X11334Y5117D01*
X11342Y5105D01*
X11359Y5093D01*
X11380Y5089D01*
X11394Y5092D01*
X11415Y5071D01*
Y5018D01*
X11389D01*
Y4843D01*
X11494D01*
Y5018D01*
X11467D01*
Y5081D01*
X11465Y5091D01*
X11460Y5100D01*
X11431Y5128D01*
X11434Y5142D01*
X11430Y5163D01*
X11418Y5180D01*
X11401Y5192D01*
X11380Y5196D01*
X11359Y5192D01*
X11342Y5180D01*
X11334Y5168D01*
X11321Y5172D01*
Y5608D01*
X11904D01*
Y5018D01*
X11868D01*
Y4843D01*
X11974D01*
Y5018D01*
X11956D01*
Y5608D01*
X11997D01*
Y5400D01*
X11999Y5390D01*
X12004Y5382D01*
X12332Y5054D01*
Y4831D01*
X12296Y4795D01*
X12284Y4800D01*
Y4808D01*
X12244D01*
X12235Y4820D01*
Y4913D01*
X12247Y4918D01*
X12268Y4934D01*
X12284Y4955D01*
X12288Y4965D01*
X12196D01*
Y5005D01*
X12156D01*
Y5098D01*
X12146Y5093D01*
X12125Y5077D01*
X12109Y5056D01*
X12098Y5032D01*
X12097Y5019D01*
X12066D01*
X12056Y5015D01*
X12052Y5005D01*
Y4820D01*
X12056Y4811D01*
X12066Y4807D01*
X12108D01*
Y4703D01*
X12284D01*
Y4730D01*
X12293D01*
X12303Y4731D01*
X12311Y4737D01*
X12376Y4802D01*
X12381Y4810D01*
X12383Y4820D01*
Y5065D01*
X12381Y5075D01*
X12376Y5083D01*
X12177Y5282D01*
X12182Y5294D01*
X12402D01*
Y5287D01*
X12439D01*
Y4778D01*
X12322Y4661D01*
X12284D01*
Y4688D01*
X12108D01*
Y4583D01*
X12284D01*
Y4610D01*
X12333D01*
X12343Y4611D01*
X12351Y4617D01*
X12483Y4749D01*
X12489Y4758D01*
X12491Y4767D01*
Y5287D01*
X12523D01*
Y5392D01*
X12523Y5398D01*
X12533Y5405D01*
X12535D01*
Y5433D01*
X12462D01*
X12390D01*
Y5405D01*
X12392D01*
X12402Y5398D01*
X12402Y5392D01*
Y5346D01*
X12173D01*
X12108Y5411D01*
Y5608D01*
X12610D01*
Y4433D01*
X12597Y4429D01*
X12593Y4435D01*
X12576Y4447D01*
X12555Y4451D01*
X12534Y4447D01*
X12517Y4435D01*
X12509Y4423D01*
X12284D01*
Y4448D01*
X12108D01*
Y4343D01*
X12284D01*
Y4372D01*
X12509D01*
X12517Y4360D01*
X12534Y4348D01*
X12555Y4344D01*
X12576Y4348D01*
X12593Y4360D01*
X12597Y4366D01*
X12610Y4362D01*
Y3705D01*
X12179D01*
Y3837D01*
X12179Y3843D01*
X12189Y3850D01*
X12297D01*
Y3875D01*
X12196D01*
X12096D01*
Y3856D01*
X12096Y3850D01*
X12086Y3843D01*
X12054D01*
Y3705D01*
X12025D01*
Y3710D01*
X12021Y3720D01*
X12011Y3724D01*
X11791D01*
X11781Y3720D01*
X11777Y3710D01*
Y3705D01*
X11189D01*
Y3843D01*
X11156D01*
X11147Y3850D01*
X11147Y3856D01*
Y3875D01*
X11046D01*
X10946D01*
Y3850D01*
X11054D01*
X11063Y3843D01*
X11064Y3837D01*
Y3705D01*
X8782Y3705D01*
Y5603D01*
X8780D01*
X8780Y3705D01*
X6485D01*
X6485Y6158D01*
X4905Y6158D01*
X4905Y9778D01*
X6479Y9778D01*
X6492Y9768D01*
D02*
G37*
G36*
X11588Y7438D02*
X11588Y7075D01*
X10618Y6150D01*
X10300D01*
X9600Y6850D01*
Y6920D01*
X9630D01*
Y6988D01*
X9670D01*
Y7028D01*
X9775D01*
X9760Y7520D01*
X9769Y7529D01*
X10023Y7274D01*
Y7104D01*
X9956Y7036D01*
X9952Y7032D01*
X9940Y7034D01*
X9938Y7036D01*
X9918Y7016D01*
X9970Y6965D01*
X10021Y6913D01*
X10041Y6933D01*
X10039Y6935D01*
X10037Y6947D01*
X10041Y6951D01*
X10060Y6969D01*
X10411Y6618D01*
X10226Y6433D01*
X10386Y6273D01*
X10793Y6680D01*
X10633Y6839D01*
X10448Y6654D01*
X10096Y7006D01*
X10115Y7025D01*
X10075Y7065D01*
Y7285D01*
X10074Y7292D01*
X10079Y7301D01*
X10082Y7305D01*
X10312D01*
X10371Y7245D01*
X10380Y7239D01*
X10390Y7237D01*
X11015D01*
X11020Y7226D01*
X10933Y7140D01*
X11093Y6980D01*
X11500Y7387D01*
X11340Y7547D01*
X11083Y7289D01*
X10400D01*
X10391Y7299D01*
X10432Y7339D01*
X10436Y7343D01*
X10447Y7341D01*
X10449Y7339D01*
X10469Y7359D01*
X10418Y7410D01*
X10366Y7462D01*
X10346Y7442D01*
X10348Y7440D01*
X10351Y7428D01*
X10346Y7424D01*
X10279Y7357D01*
X10085D01*
X9848Y7594D01*
X9848Y7607D01*
X9871Y7630D01*
X11588D01*
X11588Y7438D01*
D02*
G37*
G36*
X6058Y3655D02*
X4785D01*
Y5760D01*
X6058D01*
Y3655D01*
D02*
G37*
%LPC*%
G36*
X10836Y10892D02*
X10805D01*
Y10857D01*
X10836D01*
Y10892D01*
D02*
G37*
G36*
X10971D02*
X10940D01*
Y10857D01*
X10971D01*
Y10892D01*
D02*
G37*
G36*
Y10777D02*
X10940D01*
Y10741D01*
X10971D01*
Y10777D01*
D02*
G37*
G36*
X10836D02*
X10805D01*
Y10741D01*
X10836D01*
Y10777D01*
D02*
G37*
G36*
X7772Y11399D02*
X7380D01*
X7371Y11395D01*
X7367Y11385D01*
Y11375D01*
X7257D01*
X7250Y11385D01*
Y11388D01*
X7222D01*
Y11315D01*
Y11242D01*
X7241D01*
X7250Y11233D01*
X7250Y11186D01*
X7204D01*
Y11061D01*
Y10936D01*
X7264D01*
Y10986D01*
X7271Y10996D01*
X7272Y10996D01*
X7513D01*
X7526Y10988D01*
Y10948D01*
X7701D01*
Y10988D01*
X7714Y10996D01*
X7772D01*
X7773Y10996D01*
X7785Y11000D01*
X7785Y11000D01*
X7785Y11000D01*
X7895D01*
Y11120D01*
X7895D01*
X7889Y11133D01*
Y11265D01*
X7895Y11277D01*
X7895D01*
Y11398D01*
X7785D01*
X7785Y11398D01*
Y11398D01*
X7772Y11399D01*
X7772Y11399D01*
D02*
G37*
G36*
X7143Y11388D02*
X7115D01*
Y11355D01*
X7143D01*
Y11388D01*
D02*
G37*
G36*
Y11275D02*
X7115D01*
Y11242D01*
X7143D01*
Y11275D01*
D02*
G37*
G36*
X7124Y11186D02*
X7063D01*
Y11101D01*
X7124D01*
Y11186D01*
D02*
G37*
G36*
X6675Y11202D02*
X6652Y11199D01*
X6631Y11190D01*
X6612Y11176D01*
X6598Y11158D01*
X6590Y11136D01*
X6587Y11114D01*
X6590Y11091D01*
X6598Y11069D01*
X6612Y11051D01*
X6631Y11037D01*
X6652Y11028D01*
X6675Y11025D01*
X6698Y11028D01*
X6719Y11037D01*
X6738Y11051D01*
X6752Y11069D01*
X6760Y11091D01*
X6763Y11114D01*
X6760Y11136D01*
X6752Y11158D01*
X6738Y11176D01*
X6719Y11190D01*
X6698Y11199D01*
X6675Y11202D01*
D02*
G37*
G36*
X6715Y10952D02*
Y10900D01*
X6767D01*
X6763Y10910D01*
X6747Y10931D01*
X6726Y10947D01*
X6715Y10952D01*
D02*
G37*
G36*
X6635Y10952D02*
X6624Y10947D01*
X6603Y10931D01*
X6587Y10910D01*
X6583Y10900D01*
X6635D01*
Y10952D01*
D02*
G37*
G36*
X6767Y10819D02*
X6715D01*
Y10767D01*
X6726Y10772D01*
X6747Y10788D01*
X6763Y10809D01*
X6767Y10819D01*
D02*
G37*
G36*
X6635D02*
X6583D01*
X6587Y10809D01*
X6603Y10788D01*
X6624Y10772D01*
X6635Y10767D01*
Y10819D01*
D02*
G37*
G36*
X7701Y10334D02*
X7526D01*
Y10108D01*
X7701D01*
Y10334D01*
D02*
G37*
G36*
X7251D02*
X7076D01*
Y10108D01*
X7251D01*
Y10334D01*
D02*
G37*
G36*
X8220Y9193D02*
X8192D01*
Y9160D01*
X8220D01*
Y9193D01*
D02*
G37*
G36*
Y9080D02*
X8192D01*
Y9047D01*
X8220D01*
Y9080D01*
D02*
G37*
%LPD*%
G36*
X7772Y11378D02*
X7840D01*
Y11297D01*
X7772D01*
Y11265D01*
X7875D01*
Y11133D01*
X7772D01*
Y11100D01*
X7840D01*
Y11020D01*
X7772D01*
Y11010D01*
X7714D01*
Y11021D01*
X7614D01*
X7513D01*
Y11010D01*
X7272D01*
X7263Y11019D01*
X7264Y11242D01*
X7272D01*
Y11315D01*
X7312D01*
Y11355D01*
X7380D01*
Y11385D01*
X7772D01*
Y11378D01*
D02*
G37*
%LPC*%
G36*
X7380Y11275D02*
X7353D01*
Y11242D01*
X7380D01*
Y11275D01*
D02*
G37*
G36*
X7714Y11186D02*
X7654D01*
Y11101D01*
X7714D01*
Y11186D01*
D02*
G37*
G36*
X7574D02*
X7513D01*
Y11101D01*
X7574D01*
Y11186D01*
D02*
G37*
G36*
X9402Y10879D02*
X9367D01*
Y10849D01*
X9402D01*
Y10879D01*
D02*
G37*
G36*
X9287D02*
X9251D01*
Y10849D01*
X9287D01*
Y10879D01*
D02*
G37*
G36*
X9402Y10744D02*
X9367D01*
Y10714D01*
X9402D01*
Y10744D01*
D02*
G37*
G36*
X9287D02*
X9251D01*
Y10714D01*
X9287D01*
Y10744D01*
D02*
G37*
G36*
X15103Y11245D02*
X15042D01*
Y11185D01*
X15103D01*
Y11245D01*
D02*
G37*
G36*
X13293Y11475D02*
X13268D01*
Y11450D01*
X13293D01*
Y11475D01*
D02*
G37*
G36*
X13505Y11415D02*
X13473D01*
Y11388D01*
X13505D01*
Y11415D01*
D02*
G37*
G36*
X13393D02*
X13360D01*
Y11388D01*
X13393D01*
Y11415D01*
D02*
G37*
G36*
X14398Y11298D02*
X14368D01*
Y11262D01*
X14398D01*
Y11298D01*
D02*
G37*
G36*
X14708Y11245D02*
X14656D01*
X14661Y11235D01*
X14677Y11214D01*
X14698Y11198D01*
X14708Y11193D01*
Y11245D01*
D02*
G37*
G36*
X14400Y11120D02*
X14372D01*
Y11088D01*
X14400D01*
Y11120D01*
D02*
G37*
G36*
Y11007D02*
X14372D01*
Y10975D01*
X14400D01*
Y11007D01*
D02*
G37*
G36*
X14583Y10718D02*
X14547D01*
Y10688D01*
X14583D01*
Y10718D01*
D02*
G37*
G36*
X14467D02*
X14432D01*
Y10688D01*
X14467D01*
Y10718D01*
D02*
G37*
G36*
X13710Y10200D02*
X13685D01*
Y10160D01*
X13710D01*
Y10200D01*
D02*
G37*
G36*
X13680Y10083D02*
Y9962D01*
X13730D01*
Y10083D01*
X13680D01*
D02*
G37*
G36*
X13730Y9882D02*
X13680D01*
Y9762D01*
X13730D01*
Y9882D01*
D02*
G37*
G36*
X12448Y10160D02*
X12415D01*
Y10132D01*
X12448D01*
Y10160D01*
D02*
G37*
G36*
X12335D02*
X12302D01*
Y10132D01*
X12335D01*
Y10160D01*
D02*
G37*
G36*
X12228Y10146D02*
X12207Y10142D01*
X12190Y10130D01*
X12178Y10113D01*
X12174Y10093D01*
X12178Y10072D01*
X12190Y10055D01*
X12207Y10043D01*
X12228Y10039D01*
X12242Y10042D01*
X12266Y10018D01*
X12261Y10006D01*
X12193D01*
Y10015D01*
X12022D01*
Y9946D01*
X12022Y9945D01*
X12020Y9933D01*
X12010D01*
Y9925D01*
X12107D01*
X12205D01*
Y9933D01*
X12201D01*
X12196Y9946D01*
X12199Y9951D01*
X12202Y9954D01*
X12296D01*
X12305Y9945D01*
X12305Y9910D01*
X12295Y9903D01*
X12292D01*
Y9872D01*
X12443D01*
Y9903D01*
X12440D01*
X12430Y9910D01*
X12430Y9916D01*
Y10025D01*
X12331D01*
X12278Y10078D01*
X12281Y10093D01*
X12277Y10113D01*
X12265Y10130D01*
X12248Y10142D01*
X12228Y10146D01*
D02*
G37*
G36*
X12205Y9845D02*
X12107D01*
X12010D01*
Y9837D01*
Y9830D01*
X12107D01*
X12205D01*
Y9837D01*
Y9845D01*
D02*
G37*
G36*
X12443Y9793D02*
X12407D01*
Y9762D01*
X12443D01*
Y9793D01*
D02*
G37*
G36*
X12328D02*
X12292D01*
Y9762D01*
X12328D01*
Y9793D01*
D02*
G37*
G36*
X12205Y9750D02*
X12147D01*
Y9742D01*
X12205D01*
Y9750D01*
D02*
G37*
G36*
X12067D02*
X12010D01*
Y9742D01*
X12067D01*
Y9750D01*
D02*
G37*
G36*
X5179Y12098D02*
Y12048D01*
X5214D01*
X5213Y12054D01*
X5205Y12072D01*
X5193Y12088D01*
X5179Y12098D01*
D02*
G37*
G36*
X5099D02*
X5086Y12088D01*
X5074Y12072D01*
X5066Y12054D01*
X5065Y12048D01*
X5099D01*
Y12098D01*
D02*
G37*
G36*
X5964Y12097D02*
X5839D01*
Y11919D01*
X5964D01*
Y12097D01*
D02*
G37*
G36*
X5214Y11968D02*
X5179D01*
Y11917D01*
X5193Y11928D01*
X5205Y11943D01*
X5213Y11962D01*
X5214Y11968D01*
D02*
G37*
G36*
X5099D02*
X5065D01*
X5066Y11962D01*
X5074Y11943D01*
X5086Y11928D01*
X5099Y11917D01*
Y11968D01*
D02*
G37*
G36*
X5012Y11844D02*
X4988Y11839D01*
X4967Y11825D01*
X4953Y11804D01*
X4948Y11780D01*
Y11727D01*
X4953Y11703D01*
X4967Y11682D01*
X4988Y11668D01*
X5012Y11664D01*
X5037Y11668D01*
X5058Y11682D01*
X5071Y11703D01*
X5076Y11727D01*
Y11780D01*
X5071Y11804D01*
X5058Y11825D01*
X5037Y11839D01*
X5012Y11844D01*
D02*
G37*
G36*
X5774Y11843D02*
X5750Y11838D01*
X5729Y11825D01*
X5715Y11804D01*
X5710Y11779D01*
Y11727D01*
X5715Y11702D01*
X5729Y11682D01*
X5750Y11668D01*
X5774Y11663D01*
X5799Y11668D01*
X5820Y11682D01*
X5833Y11702D01*
X5838Y11727D01*
Y11779D01*
X5833Y11804D01*
X5820Y11825D01*
X5799Y11838D01*
X5774Y11843D01*
D02*
G37*
G36*
X5520Y11841D02*
X5496Y11836D01*
X5475Y11822D01*
X5461Y11801D01*
X5456Y11777D01*
Y11724D01*
X5461Y11700D01*
X5475Y11679D01*
X5496Y11665D01*
X5520Y11661D01*
X5545Y11665D01*
X5566Y11679D01*
X5579Y11700D01*
X5584Y11724D01*
Y11777D01*
X5579Y11801D01*
X5566Y11822D01*
X5545Y11836D01*
X5520Y11841D01*
D02*
G37*
G36*
X5775Y11413D02*
X5743Y11410D01*
X5712Y11401D01*
X5684Y11386D01*
X5659Y11366D01*
X5639Y11341D01*
X5624Y11313D01*
X5615Y11282D01*
X5612Y11250D01*
X5615Y11218D01*
X5624Y11187D01*
X5639Y11159D01*
X5659Y11134D01*
X5684Y11114D01*
X5712Y11099D01*
X5743Y11090D01*
X5775Y11087D01*
X5807Y11090D01*
X5838Y11099D01*
X5866Y11114D01*
X5891Y11134D01*
X5911Y11159D01*
X5926Y11187D01*
X5935Y11218D01*
X5938Y11250D01*
X5935Y11282D01*
X5926Y11313D01*
X5911Y11341D01*
X5891Y11366D01*
X5866Y11386D01*
X5838Y11401D01*
X5807Y11410D01*
X5775Y11413D01*
D02*
G37*
G36*
X5652Y10865D02*
Y10851D01*
X5668D01*
X5662Y10859D01*
X5653Y10864D01*
X5652Y10865D01*
D02*
G37*
G36*
X5572D02*
X5570Y10864D01*
X5561Y10859D01*
X5556Y10851D01*
X5572D01*
Y10865D01*
D02*
G37*
G36*
X6065Y10744D02*
X6034D01*
Y10709D01*
X6065D01*
Y10744D01*
D02*
G37*
G36*
X5859Y10872D02*
X5839Y10868D01*
X5821Y10856D01*
X5810Y10839D01*
X5806Y10818D01*
X5810Y10798D01*
X5821Y10780D01*
X5833Y10772D01*
Y10731D01*
X5802D01*
Y10694D01*
X5667D01*
X5658Y10707D01*
Y10760D01*
X5662Y10763D01*
X5668Y10771D01*
X5656D01*
X5654Y10775D01*
X5643Y10780D01*
X5581D01*
X5570Y10775D01*
X5568Y10771D01*
X5556D01*
X5561Y10763D01*
X5566Y10760D01*
Y10707D01*
X5569Y10698D01*
X5566Y10689D01*
Y10636D01*
X5561Y10634D01*
X5556Y10626D01*
X5568D01*
X5570Y10621D01*
X5581Y10617D01*
X5612D01*
Y10555D01*
X5581D01*
X5570Y10550D01*
X5568Y10546D01*
X5556D01*
X5561Y10538D01*
X5566Y10535D01*
Y10482D01*
X5569Y10473D01*
X5566Y10464D01*
Y10407D01*
X5570Y10396D01*
X5581Y10392D01*
X5643D01*
X5654Y10396D01*
X5658Y10407D01*
Y10464D01*
X5655Y10473D01*
X5658Y10482D01*
Y10485D01*
X5756D01*
X5777Y10464D01*
Y10403D01*
X5881D01*
X5887Y10403D01*
X5894Y10393D01*
Y10390D01*
X5922D01*
Y10463D01*
Y10536D01*
X5894D01*
Y10533D01*
X5887Y10523D01*
X5881Y10523D01*
X5845D01*
Y10606D01*
X5911D01*
X5917Y10606D01*
X5924Y10596D01*
Y10593D01*
X5954D01*
Y10669D01*
Y10744D01*
X5924D01*
Y10741D01*
X5917Y10731D01*
X5911Y10731D01*
X5885D01*
Y10772D01*
X5897Y10780D01*
X5909Y10798D01*
X5913Y10818D01*
X5909Y10839D01*
X5897Y10856D01*
X5880Y10868D01*
X5859Y10872D01*
D02*
G37*
G36*
X6065Y10629D02*
X6034D01*
Y10593D01*
X6065D01*
Y10629D01*
D02*
G37*
G36*
X5647Y12098D02*
X5623Y12093D01*
X5602Y12079D01*
X5588Y12058D01*
X5583Y12034D01*
Y11981D01*
X5588Y11957D01*
X5602Y11936D01*
X5621Y11923D01*
Y11444D01*
X5494Y11316D01*
X5488Y11308D01*
X5486Y11298D01*
Y10559D01*
X5464Y10537D01*
X5438D01*
Y10539D01*
X5435Y10548D01*
X5438Y10557D01*
Y10614D01*
X5435Y10623D01*
X5438Y10632D01*
Y10689D01*
X5435Y10698D01*
X5438Y10707D01*
Y10764D01*
X5435Y10773D01*
X5438Y10782D01*
Y10839D01*
X5434Y10850D01*
X5423Y10854D01*
X5418D01*
Y11922D01*
X5418Y11922D01*
X5439Y11936D01*
X5452Y11957D01*
X5457Y11981D01*
Y12034D01*
X5452Y12058D01*
X5439Y12079D01*
X5418Y12093D01*
X5393Y12098D01*
X5369Y12093D01*
X5348Y12079D01*
X5334Y12058D01*
X5329Y12034D01*
Y11981D01*
X5334Y11957D01*
X5348Y11936D01*
X5366Y11924D01*
Y10854D01*
X5361D01*
X5350Y10850D01*
X5346Y10839D01*
Y10782D01*
X5349Y10773D01*
X5346Y10764D01*
Y10707D01*
X5349Y10698D01*
X5346Y10689D01*
Y10632D01*
X5349Y10623D01*
X5346Y10614D01*
Y10612D01*
X5305D01*
X5292Y10624D01*
Y10888D01*
X5341Y10936D01*
X5346Y10945D01*
X5348Y10955D01*
Y11412D01*
X5346Y11422D01*
X5341Y11431D01*
X5292Y11479D01*
Y11669D01*
X5312Y11682D01*
X5325Y11703D01*
X5330Y11727D01*
Y11780D01*
X5325Y11804D01*
X5312Y11825D01*
X5291Y11839D01*
X5266Y11844D01*
X5242Y11839D01*
X5221Y11825D01*
X5207Y11804D01*
X5202Y11780D01*
Y11727D01*
X5207Y11703D01*
X5221Y11682D01*
X5240Y11669D01*
Y11469D01*
X5242Y11459D01*
X5248Y11450D01*
X5297Y11402D01*
Y10965D01*
X5248Y10917D01*
X5242Y10909D01*
X5240Y10899D01*
Y10614D01*
X5242Y10604D01*
X5248Y10595D01*
X5276Y10567D01*
X5284Y10562D01*
X5294Y10560D01*
X5346D01*
Y10557D01*
X5349Y10548D01*
X5346Y10539D01*
Y10482D01*
X5349Y10473D01*
X5346Y10464D01*
Y10462D01*
X5259D01*
X5256Y10466D01*
X5252Y10486D01*
X5240Y10504D01*
X5222Y10515D01*
X5202Y10519D01*
X5181Y10515D01*
X5164Y10504D01*
X5152Y10486D01*
X5148Y10466D01*
X5152Y10445D01*
X5164Y10428D01*
X5181Y10416D01*
X5202Y10412D01*
X5217Y10415D01*
X5222Y10412D01*
X5232Y10410D01*
X5346D01*
Y10407D01*
X5350Y10396D01*
X5361Y10392D01*
X5423D01*
X5434Y10396D01*
X5438Y10407D01*
Y10464D01*
X5435Y10473D01*
X5438Y10482D01*
Y10485D01*
X5474D01*
X5484Y10487D01*
X5493Y10492D01*
X5530Y10530D01*
X5536Y10538D01*
X5538Y10548D01*
Y11287D01*
X5666Y11415D01*
X5671Y11424D01*
X5673Y11434D01*
Y11923D01*
X5693Y11936D01*
X5706Y11957D01*
X5711Y11981D01*
Y12034D01*
X5706Y12058D01*
X5693Y12079D01*
X5672Y12093D01*
X5647Y12098D01*
D02*
G37*
G36*
X6030Y10536D02*
X6002D01*
Y10503D01*
X6030D01*
Y10536D01*
D02*
G37*
G36*
Y10423D02*
X6002D01*
Y10390D01*
X6030D01*
Y10423D01*
D02*
G37*
G36*
X13388Y10675D02*
X13325D01*
Y10659D01*
X13388D01*
Y10675D01*
D02*
G37*
G36*
X13377Y10630D02*
X13347D01*
Y10595D01*
X13377D01*
Y10630D01*
D02*
G37*
G36*
X13245Y10653D02*
X12960D01*
Y10568D01*
X13245D01*
Y10653D01*
D02*
G37*
G36*
X12880D02*
X12595D01*
Y10568D01*
X12880D01*
Y10653D01*
D02*
G37*
G36*
X13377Y10515D02*
X13347D01*
Y10480D01*
X13377D01*
Y10515D01*
D02*
G37*
G36*
X13245Y10488D02*
X12960D01*
Y10402D01*
X13245D01*
Y10488D01*
D02*
G37*
G36*
X13400Y10320D02*
X13315D01*
Y10280D01*
X13400D01*
Y10320D01*
D02*
G37*
G36*
Y10200D02*
X13315D01*
Y10160D01*
X13400D01*
Y10200D01*
D02*
G37*
G36*
X13245Y10057D02*
X12960D01*
Y9972D01*
X13245D01*
Y10057D01*
D02*
G37*
G36*
X13320Y9882D02*
X13270D01*
Y9762D01*
X13320D01*
Y9882D01*
D02*
G37*
G36*
X12906Y9747D02*
X12845D01*
Y9687D01*
X12906D01*
Y9747D01*
D02*
G37*
G36*
X12765D02*
X12705D01*
Y9687D01*
X12765D01*
Y9747D01*
D02*
G37*
G36*
X14155Y10793D02*
X14127D01*
Y10760D01*
X14155D01*
Y10793D01*
D02*
G37*
G36*
X14583Y10472D02*
X14547D01*
Y10442D01*
X14583D01*
Y10472D01*
D02*
G37*
G36*
X14467D02*
X14432D01*
Y10442D01*
X14467D01*
Y10472D01*
D02*
G37*
G36*
X14874Y10074D02*
X14858D01*
Y10016D01*
X14874D01*
Y10074D01*
D02*
G37*
G36*
X14848Y9722D02*
X14788D01*
Y9662D01*
X14848D01*
Y9722D01*
D02*
G37*
G36*
Y9582D02*
X14788D01*
Y9521D01*
X14848D01*
Y9582D01*
D02*
G37*
G36*
X10198Y9315D02*
X10170D01*
Y9283D01*
X10198D01*
Y9315D01*
D02*
G37*
G36*
Y9203D02*
X10170D01*
Y9170D01*
X10198D01*
Y9203D01*
D02*
G37*
G36*
X10608Y9073D02*
X10580D01*
Y9040D01*
X10608D01*
Y9073D01*
D02*
G37*
G36*
Y8960D02*
X10580D01*
Y8927D01*
X10608D01*
Y8960D01*
D02*
G37*
G36*
X12845Y9485D02*
Y9433D01*
X12897D01*
X12893Y9444D01*
X12877Y9465D01*
X12856Y9481D01*
X12845Y9485D01*
D02*
G37*
G36*
X12765Y9485D02*
X12755Y9481D01*
X12734Y9465D01*
X12718Y9444D01*
X12713Y9433D01*
X12765D01*
Y9485D01*
D02*
G37*
G36*
Y9353D02*
X12713D01*
X12718Y9342D01*
X12734Y9321D01*
X12755Y9305D01*
X12765Y9301D01*
Y9353D01*
D02*
G37*
G36*
X12897D02*
X12845D01*
Y9301D01*
X12856Y9305D01*
X12877Y9321D01*
X12893Y9342D01*
X12897Y9353D01*
D02*
G37*
G36*
X11340Y8218D02*
X11312D01*
Y8185D01*
X11340D01*
Y8218D01*
D02*
G37*
G36*
Y8105D02*
X11312D01*
Y8072D01*
X11340D01*
Y8105D01*
D02*
G37*
G36*
X11335Y7993D02*
X11307D01*
Y7960D01*
X11335D01*
Y7993D01*
D02*
G37*
G36*
Y7880D02*
X11307D01*
Y7847D01*
X11335D01*
Y7880D01*
D02*
G37*
G36*
X5502Y9244D02*
Y9210D01*
X5553D01*
X5542Y9224D01*
X5527Y9236D01*
X5508Y9244D01*
X5502Y9244D01*
D02*
G37*
G36*
X5422Y9244D02*
X5417Y9244D01*
X5398Y9236D01*
X5382Y9224D01*
X5372Y9210D01*
X5422D01*
Y9244D01*
D02*
G37*
G36*
X6022Y9197D02*
X5911D01*
Y9163D01*
X5846D01*
X5837Y9177D01*
X5819Y9188D01*
X5799Y9192D01*
X5778Y9188D01*
X5761Y9177D01*
X5749Y9159D01*
X5745Y9139D01*
X5748Y9124D01*
X5692Y9069D01*
X5293D01*
X5280Y9088D01*
X5259Y9102D01*
X5235Y9107D01*
X5182D01*
X5158Y9102D01*
X5137Y9088D01*
X5123Y9068D01*
X5118Y9043D01*
X5123Y9019D01*
X5137Y8998D01*
X5158Y8984D01*
X5182Y8979D01*
X5235D01*
X5259Y8984D01*
X5280Y8998D01*
X5293Y9017D01*
X5703D01*
X5713Y9019D01*
X5721Y9025D01*
X5784Y9088D01*
X5799Y9085D01*
X5819Y9089D01*
X5837Y9101D01*
X5844Y9111D01*
X5911D01*
Y9077D01*
X6022D01*
Y9197D01*
D02*
G37*
G36*
X5553Y9130D02*
X5502D01*
Y9096D01*
X5508Y9097D01*
X5527Y9104D01*
X5542Y9116D01*
X5553Y9130D01*
D02*
G37*
G36*
X5422D02*
X5372D01*
X5382Y9116D01*
X5398Y9104D01*
X5417Y9097D01*
X5422Y9096D01*
Y9130D01*
D02*
G37*
G36*
X5489Y8980D02*
X5436D01*
X5412Y8975D01*
X5391Y8961D01*
X5377Y8941D01*
X5372Y8916D01*
X5377Y8892D01*
X5391Y8871D01*
X5412Y8857D01*
X5436Y8852D01*
X5489D01*
X5513Y8857D01*
X5534Y8871D01*
X5547Y8890D01*
X5754D01*
X5761Y8880D01*
X5779Y8868D01*
X5799Y8864D01*
X5820Y8868D01*
X5837Y8880D01*
X5844Y8890D01*
X5911D01*
Y8856D01*
X6022D01*
Y8977D01*
X5911D01*
Y8942D01*
X5846D01*
X5837Y8956D01*
X5820Y8967D01*
X5799Y8972D01*
X5779Y8967D01*
X5761Y8956D01*
X5752Y8942D01*
X5547D01*
X5534Y8961D01*
X5513Y8975D01*
X5489Y8980D01*
D02*
G37*
G36*
X5232Y8853D02*
X5179D01*
X5155Y8848D01*
X5134Y8834D01*
X5120Y8814D01*
X5115Y8789D01*
X5120Y8765D01*
X5134Y8744D01*
X5155Y8730D01*
X5179Y8725D01*
X5232D01*
X5256Y8730D01*
X5277Y8744D01*
X5290Y8763D01*
X5600D01*
X5702Y8661D01*
X5710Y8656D01*
X5720Y8654D01*
X5759D01*
X5766Y8643D01*
X5784Y8632D01*
X5804Y8628D01*
X5825Y8632D01*
X5842Y8643D01*
X5849Y8654D01*
X5911D01*
Y8619D01*
X6022D01*
Y8740D01*
X5911D01*
Y8706D01*
X5851D01*
X5842Y8719D01*
X5825Y8731D01*
X5804Y8735D01*
X5784Y8731D01*
X5766Y8719D01*
X5757Y8706D01*
X5731D01*
X5629Y8807D01*
X5621Y8813D01*
X5611Y8815D01*
X5290D01*
X5277Y8834D01*
X5256Y8848D01*
X5232Y8853D01*
D02*
G37*
G36*
X5234Y8599D02*
X5182D01*
X5157Y8594D01*
X5137Y8580D01*
X5123Y8560D01*
X5118Y8535D01*
X5123Y8511D01*
X5137Y8490D01*
X5157Y8476D01*
X5182Y8471D01*
X5234D01*
X5259Y8476D01*
X5279Y8490D01*
X5293Y8511D01*
X5298Y8535D01*
X5293Y8560D01*
X5279Y8580D01*
X5259Y8594D01*
X5234Y8599D01*
D02*
G37*
G36*
X5489Y8726D02*
X5436D01*
X5412Y8721D01*
X5391Y8707D01*
X5377Y8687D01*
X5372Y8662D01*
X5377Y8638D01*
X5391Y8617D01*
X5412Y8603D01*
X5436Y8598D01*
X5489D01*
X5513Y8603D01*
X5675Y8441D01*
X5683Y8435D01*
X5693Y8433D01*
X5764D01*
X5771Y8423D01*
X5789Y8411D01*
X5809Y8407D01*
X5830Y8411D01*
X5847Y8423D01*
X5854Y8433D01*
X5912D01*
Y8399D01*
X6023D01*
Y8519D01*
X5912D01*
Y8485D01*
X5856D01*
X5847Y8499D01*
X5830Y8511D01*
X5809Y8515D01*
X5789Y8511D01*
X5771Y8499D01*
X5762Y8485D01*
X5704D01*
X5548Y8641D01*
X5553Y8662D01*
X5548Y8687D01*
X5534Y8707D01*
X5513Y8721D01*
X5489Y8726D01*
D02*
G37*
G36*
X5235Y9361D02*
X5182D01*
X5158Y9356D01*
X5137Y9342D01*
X5123Y9322D01*
X5118Y9297D01*
X5123Y9273D01*
X5137Y9252D01*
X5158Y9238D01*
X5182Y9233D01*
X5235D01*
X5259Y9238D01*
X5280Y9252D01*
X5293Y9271D01*
X6040D01*
X6093Y9218D01*
Y9197D01*
X6041D01*
Y9077D01*
X6093D01*
Y8977D01*
X6041D01*
Y8856D01*
X6093D01*
Y8740D01*
X6041D01*
Y8619D01*
X6093D01*
Y8519D01*
X6042D01*
Y8399D01*
X6153D01*
Y8519D01*
X6145D01*
Y8619D01*
X6152D01*
Y8740D01*
X6145D01*
Y8856D01*
X6152D01*
Y8977D01*
X6145D01*
Y9077D01*
X6152D01*
Y9085D01*
X6163Y9090D01*
X7201Y8052D01*
X7196Y8040D01*
X7193Y8020D01*
X7196Y8000D01*
X7201Y7988D01*
X6927Y7713D01*
X5356D01*
X5346Y7711D01*
X5338Y7706D01*
X5230Y7598D01*
X5230Y7599D01*
X5177D01*
X5153Y7594D01*
X5132Y7580D01*
X5118Y7559D01*
X5113Y7535D01*
X5118Y7510D01*
X5132Y7489D01*
X5153Y7476D01*
X5177Y7471D01*
X5230D01*
X5254Y7476D01*
X5275Y7489D01*
X5289Y7510D01*
X5293Y7535D01*
X5289Y7559D01*
X5279Y7574D01*
X5367Y7662D01*
X6064D01*
X6103Y7623D01*
Y7569D01*
X6051D01*
Y7449D01*
X6103D01*
Y7303D01*
X6051D01*
Y7182D01*
X6103D01*
Y7049D01*
X6051D01*
Y6928D01*
X6103D01*
Y6795D01*
X6051D01*
Y6674D01*
X6162D01*
Y6795D01*
X6155D01*
Y6928D01*
X6162D01*
Y7049D01*
X6155D01*
Y7182D01*
X6162D01*
Y7303D01*
X6155D01*
Y7449D01*
X6162D01*
Y7569D01*
X6155D01*
Y7633D01*
X6153Y7643D01*
X6149Y7649D01*
X6154Y7662D01*
X6938D01*
X6947Y7664D01*
X6956Y7669D01*
X7238Y7951D01*
X7250Y7946D01*
X7270Y7943D01*
X7290Y7946D01*
X7302Y7951D01*
X7559Y7694D01*
X7568Y7689D01*
X7578Y7687D01*
X7767D01*
Y7665D01*
X7878D01*
Y7785D01*
X7767D01*
Y7738D01*
X7588D01*
X7339Y7988D01*
X7344Y8000D01*
X7347Y8020D01*
X7344Y8040D01*
X7337Y8058D01*
X7324Y8074D01*
X7308Y8087D01*
X7290Y8094D01*
X7270Y8097D01*
X7250Y8094D01*
X7238Y8089D01*
X6171Y9155D01*
X6163Y9161D01*
X6153Y9163D01*
X6152D01*
Y9197D01*
X6145D01*
Y9229D01*
X6143Y9238D01*
X6137Y9247D01*
X6069Y9315D01*
X6060Y9321D01*
X6050Y9323D01*
X5293D01*
X5280Y9342D01*
X5259Y9356D01*
X5235Y9361D01*
D02*
G37*
G36*
X6032Y7569D02*
X5921D01*
Y7535D01*
X5867D01*
X5857Y7550D01*
X5840Y7561D01*
X5819Y7565D01*
X5799Y7561D01*
X5781Y7550D01*
X5770Y7532D01*
X5765Y7512D01*
X5766Y7508D01*
X5565Y7306D01*
X5288D01*
X5275Y7326D01*
X5254Y7340D01*
X5230Y7345D01*
X5177D01*
X5153Y7340D01*
X5132Y7326D01*
X5118Y7305D01*
X5113Y7281D01*
X5118Y7256D01*
X5132Y7235D01*
X5153Y7222D01*
X5177Y7217D01*
X5230D01*
X5254Y7222D01*
X5275Y7235D01*
X5288Y7255D01*
X5576D01*
X5586Y7257D01*
X5594Y7262D01*
X5796Y7464D01*
X5799Y7462D01*
X5819Y7458D01*
X5840Y7462D01*
X5857Y7474D01*
X5864Y7483D01*
X5921D01*
Y7449D01*
X6032D01*
Y7569D01*
D02*
G37*
G36*
X5497Y7482D02*
Y7448D01*
X5548D01*
X5537Y7461D01*
X5522Y7473D01*
X5503Y7481D01*
X5497Y7482D01*
D02*
G37*
G36*
X5417D02*
X5411Y7481D01*
X5393Y7473D01*
X5377Y7461D01*
X5367Y7448D01*
X5417D01*
Y7482D01*
D02*
G37*
G36*
X5548Y7368D02*
X5497D01*
Y7333D01*
X5503Y7334D01*
X5522Y7342D01*
X5537Y7354D01*
X5548Y7368D01*
D02*
G37*
G36*
X5417D02*
X5367D01*
X5377Y7354D01*
X5393Y7342D01*
X5411Y7334D01*
X5417Y7333D01*
Y7368D01*
D02*
G37*
G36*
X6032Y7303D02*
X5921D01*
Y7268D01*
X5860D01*
X5852Y7280D01*
X5835Y7291D01*
X5814Y7295D01*
X5794Y7291D01*
X5776Y7280D01*
X5768Y7268D01*
X5760Y7266D01*
X5752Y7261D01*
X5670Y7179D01*
X5542D01*
X5529Y7199D01*
X5508Y7213D01*
X5484Y7218D01*
X5431D01*
X5407Y7213D01*
X5386Y7199D01*
X5372Y7178D01*
X5367Y7154D01*
X5372Y7129D01*
X5386Y7108D01*
X5407Y7095D01*
X5431Y7090D01*
X5484D01*
X5508Y7095D01*
X5529Y7108D01*
X5542Y7128D01*
X5681D01*
X5691Y7130D01*
X5699Y7135D01*
X5769Y7204D01*
X5776Y7204D01*
X5794Y7192D01*
X5814Y7188D01*
X5835Y7192D01*
X5852Y7204D01*
X5861Y7217D01*
X5921D01*
Y7182D01*
X6032D01*
Y7303D01*
D02*
G37*
G36*
X8011Y7278D02*
X7983D01*
Y7245D01*
X8011D01*
Y7278D01*
D02*
G37*
G36*
Y7165D02*
X7983D01*
Y7132D01*
X8011D01*
Y7165D01*
D02*
G37*
G36*
X5227Y7091D02*
X5174D01*
X5150Y7086D01*
X5129Y7072D01*
X5115Y7051D01*
X5110Y7027D01*
X5115Y7002D01*
X5129Y6981D01*
X5150Y6968D01*
X5174Y6963D01*
X5227D01*
X5251Y6968D01*
X5272Y6981D01*
X5285Y7001D01*
X5685D01*
X5716Y6970D01*
X5724Y6965D01*
X5734Y6963D01*
X5769D01*
X5774Y6956D01*
X5791Y6945D01*
X5812Y6940D01*
X5832Y6945D01*
X5850Y6956D01*
X5854Y6963D01*
X5921D01*
Y6928D01*
X6032D01*
Y7049D01*
X5921D01*
Y7014D01*
X5861D01*
X5861Y7015D01*
X5850Y7032D01*
X5832Y7044D01*
X5812Y7048D01*
X5791Y7044D01*
X5774Y7032D01*
X5762Y7015D01*
X5762Y7014D01*
X5745D01*
X5714Y7045D01*
X5706Y7051D01*
X5696Y7052D01*
X5285D01*
X5272Y7072D01*
X5251Y7086D01*
X5227Y7091D01*
D02*
G37*
G36*
X5229Y6837D02*
X5177D01*
X5152Y6832D01*
X5131Y6818D01*
X5118Y6797D01*
X5113Y6773D01*
X5118Y6748D01*
X5131Y6727D01*
X5152Y6714D01*
X5177Y6709D01*
X5229D01*
X5253Y6714D01*
X5274Y6727D01*
X5288Y6748D01*
X5293Y6773D01*
X5288Y6797D01*
X5274Y6818D01*
X5253Y6832D01*
X5229Y6837D01*
D02*
G37*
G36*
X5484Y6964D02*
X5431D01*
X5407Y6959D01*
X5386Y6945D01*
X5372Y6924D01*
X5367Y6900D01*
X5372Y6875D01*
X5386Y6854D01*
X5407Y6841D01*
X5431Y6836D01*
X5484D01*
X5508Y6841D01*
X5529Y6854D01*
X5542Y6874D01*
X5635D01*
X5756Y6753D01*
X5753Y6739D01*
X5757Y6719D01*
X5769Y6701D01*
X5786Y6690D01*
X5807Y6685D01*
X5827Y6690D01*
X5845Y6701D01*
X5850Y6709D01*
X5921D01*
Y6674D01*
X6032D01*
Y6795D01*
X5921D01*
Y6760D01*
X5856D01*
X5845Y6777D01*
X5827Y6789D01*
X5807Y6793D01*
X5792Y6790D01*
X5664Y6918D01*
X5655Y6924D01*
X5645Y6925D01*
X5542D01*
X5529Y6945D01*
X5508Y6959D01*
X5484Y6964D01*
D02*
G37*
G36*
X6283Y8706D02*
X6262Y8702D01*
X6245Y8690D01*
X6233Y8673D01*
X6229Y8653D01*
X6233Y8632D01*
X6245Y8615D01*
X6257Y8606D01*
Y8391D01*
X6207Y8341D01*
X5588D01*
X5551Y8378D01*
Y8471D01*
X5374D01*
Y8345D01*
X5510D01*
X5559Y8297D01*
X5568Y8291D01*
X5578Y8289D01*
X6217D01*
X6227Y8291D01*
X6236Y8297D01*
X6301Y8362D01*
X6306Y8370D01*
X6308Y8380D01*
Y8480D01*
X6321Y8487D01*
X6327Y8484D01*
Y8336D01*
X6257Y8266D01*
X5145D01*
X5135Y8264D01*
X5127Y8258D01*
X5019Y8151D01*
X5014Y8142D01*
X5012Y8132D01*
Y6740D01*
X5014Y6730D01*
X5019Y6722D01*
X5114Y6627D01*
X5122Y6622D01*
X5132Y6620D01*
X5368D01*
Y6583D01*
X5546D01*
Y6708D01*
X5368D01*
Y6671D01*
X5143D01*
X5063Y6751D01*
Y8122D01*
X5156Y8214D01*
X6267D01*
X6277Y8216D01*
X6286Y8222D01*
X6371Y8307D01*
X6376Y8315D01*
X6378Y8325D01*
Y8491D01*
X6390Y8500D01*
X6402Y8517D01*
X6406Y8538D01*
X6402Y8558D01*
X6390Y8575D01*
X6373Y8587D01*
X6353Y8591D01*
X6332Y8587D01*
X6321Y8580D01*
X6308Y8587D01*
Y8606D01*
X6320Y8615D01*
X6332Y8632D01*
X6336Y8653D01*
X6332Y8673D01*
X6320Y8690D01*
X6303Y8702D01*
X6283Y8706D01*
D02*
G37*
G36*
X12535Y5540D02*
X12503D01*
Y5512D01*
X12535D01*
Y5540D01*
D02*
G37*
G36*
X12422D02*
X12390D01*
Y5512D01*
X12422D01*
Y5540D01*
D02*
G37*
G36*
X8402Y5806D02*
X8382Y5802D01*
X8364Y5791D01*
X8353Y5773D01*
X8348Y5753D01*
X8353Y5732D01*
X8364Y5715D01*
X8376Y5707D01*
Y5623D01*
X8342D01*
Y5512D01*
X8463D01*
Y5623D01*
X8428D01*
Y5707D01*
X8440Y5715D01*
X8452Y5732D01*
X8456Y5753D01*
X8452Y5773D01*
X8440Y5791D01*
X8423Y5802D01*
X8402Y5806D01*
D02*
G37*
G36*
X6993Y5804D02*
X6972Y5800D01*
X6955Y5788D01*
X6943Y5771D01*
X6939Y5750D01*
X6943Y5729D01*
X6955Y5712D01*
X6964Y5705D01*
Y5615D01*
X6930D01*
Y5505D01*
X7050D01*
Y5615D01*
X7016D01*
Y5702D01*
X7030Y5712D01*
X7042Y5729D01*
X7046Y5750D01*
X7042Y5771D01*
X7030Y5788D01*
X7013Y5800D01*
X6993Y5804D01*
D02*
G37*
G36*
X7457Y5809D02*
X7437Y5805D01*
X7420Y5793D01*
X7408Y5776D01*
X7404Y5755D01*
X7408Y5734D01*
X7420Y5717D01*
X7428Y5712D01*
Y5613D01*
X7393D01*
Y5502D01*
X7514D01*
Y5613D01*
X7479D01*
Y5706D01*
X7495Y5717D01*
X7507Y5734D01*
X7511Y5755D01*
X7507Y5776D01*
X7495Y5793D01*
X7478Y5805D01*
X7457Y5809D01*
D02*
G37*
G36*
X7050Y5485D02*
X6930D01*
Y5375D01*
X6964D01*
Y5073D01*
X6957Y5063D01*
X6952Y5063D01*
X6876D01*
X6821Y5119D01*
X6824Y5133D01*
X6819Y5153D01*
X6808Y5171D01*
X6796Y5179D01*
Y5375D01*
X6830D01*
Y5485D01*
X6710D01*
Y5375D01*
X6744D01*
Y5179D01*
X6732Y5171D01*
X6720Y5153D01*
X6716Y5133D01*
X6720Y5112D01*
X6732Y5095D01*
X6749Y5083D01*
X6770Y5079D01*
X6784Y5082D01*
X6842Y5024D01*
Y4943D01*
X6952D01*
X6957Y4943D01*
X6964Y4933D01*
Y4828D01*
X6937D01*
Y4708D01*
X7018D01*
X7129Y4597D01*
X7138Y4591D01*
X7148Y4589D01*
X7474D01*
X7578Y4485D01*
Y4419D01*
X7559Y4406D01*
X7545Y4385D01*
X7540Y4361D01*
Y4308D01*
X7545Y4284D01*
X7559Y4263D01*
X7580Y4249D01*
X7604Y4244D01*
X7628Y4249D01*
X7649Y4263D01*
X7663Y4284D01*
X7668Y4308D01*
Y4361D01*
X7663Y4385D01*
X7649Y4406D01*
X7630Y4419D01*
Y4496D01*
X7628Y4506D01*
X7622Y4514D01*
X7503Y4633D01*
X7495Y4639D01*
X7485Y4641D01*
X7158D01*
X7052Y4747D01*
Y4828D01*
X7016D01*
Y5375D01*
X7050D01*
Y5485D01*
D02*
G37*
G36*
X12236Y5098D02*
Y5045D01*
X12288D01*
X12284Y5056D01*
X12268Y5077D01*
X12247Y5093D01*
X12236Y5098D01*
D02*
G37*
G36*
X11006Y5098D02*
X10996Y5093D01*
X10975Y5077D01*
X10958Y5056D01*
X10954Y5045D01*
X11006D01*
Y5098D01*
D02*
G37*
G36*
X8340Y6026D02*
X6935D01*
X6925Y6024D01*
X6917Y6018D01*
X6751Y5853D01*
X6746Y5845D01*
X6744Y5835D01*
Y5615D01*
X6710D01*
Y5505D01*
X6830D01*
Y5615D01*
X6796D01*
Y5824D01*
X6946Y5974D01*
X7288D01*
X7293Y5962D01*
X7215Y5884D01*
X7209Y5876D01*
X7207Y5866D01*
Y5613D01*
X7173D01*
Y5592D01*
X7071Y5491D01*
X7066Y5482D01*
X7064Y5472D01*
Y5063D01*
X7032D01*
Y4943D01*
X7147D01*
Y5063D01*
X7116D01*
Y5461D01*
X7161Y5507D01*
X7173Y5502D01*
Y5502D01*
X7293D01*
Y5613D01*
X7259D01*
Y5855D01*
X7378Y5974D01*
X7761D01*
X7766Y5962D01*
X7696Y5893D01*
X7691Y5885D01*
X7689Y5875D01*
Y5613D01*
X7654D01*
Y5606D01*
X7645D01*
X7635Y5604D01*
X7627Y5598D01*
X7529Y5500D01*
X7523Y5492D01*
X7523Y5491D01*
X7514Y5483D01*
X7509Y5483D01*
X7393D01*
Y5372D01*
X7428D01*
Y4828D01*
X7394D01*
Y4708D01*
X7510D01*
Y4742D01*
X7591D01*
X7705Y4628D01*
Y4162D01*
X7686Y4149D01*
X7672Y4128D01*
X7667Y4104D01*
Y4051D01*
X7672Y4027D01*
X7686Y4006D01*
X7707Y3992D01*
X7731Y3987D01*
X7755Y3992D01*
X7776Y4006D01*
X7790Y4027D01*
X7795Y4051D01*
Y4104D01*
X7790Y4128D01*
X7776Y4149D01*
X7757Y4162D01*
Y4639D01*
X7755Y4649D01*
X7749Y4657D01*
X7620Y4786D01*
X7612Y4792D01*
X7602Y4794D01*
X7510D01*
Y4828D01*
X7479D01*
Y4936D01*
X7489Y4943D01*
X7492Y4943D01*
X7605D01*
Y5063D01*
X7573D01*
Y5471D01*
X7643Y5541D01*
X7654Y5536D01*
Y5502D01*
X7775D01*
Y5613D01*
X7741D01*
Y5864D01*
X7851Y5974D01*
X8198D01*
X8203Y5962D01*
X8164Y5923D01*
X8158Y5914D01*
X8156Y5904D01*
Y5623D01*
X8122D01*
Y5616D01*
X8113Y5614D01*
X8104Y5608D01*
X8011Y5515D01*
X8008Y5511D01*
X7995Y5515D01*
Y5613D01*
X7961D01*
Y5699D01*
X7973Y5707D01*
X7985Y5724D01*
X7989Y5745D01*
X7985Y5765D01*
X7973Y5783D01*
X7956Y5794D01*
X7935Y5799D01*
X7915Y5794D01*
X7897Y5783D01*
X7886Y5765D01*
X7881Y5745D01*
X7886Y5724D01*
X7897Y5707D01*
X7909Y5699D01*
Y5613D01*
X7875D01*
Y5502D01*
X7992D01*
X7995Y5501D01*
X7997Y5495D01*
X7994Y5488D01*
X7989Y5483D01*
X7875D01*
Y5372D01*
X7909D01*
Y5065D01*
X7897Y5063D01*
X7897Y5063D01*
X7816D01*
X7766Y5113D01*
X7768Y5128D01*
X7764Y5148D01*
X7753Y5166D01*
X7741Y5174D01*
Y5372D01*
X7775D01*
Y5483D01*
X7654D01*
Y5372D01*
X7689D01*
Y5174D01*
X7677Y5166D01*
X7665Y5148D01*
X7661Y5128D01*
X7665Y5107D01*
X7677Y5090D01*
X7694Y5078D01*
X7715Y5074D01*
X7729Y5077D01*
X7782Y5024D01*
Y4943D01*
X7897D01*
X7897Y4943D01*
X7909Y4941D01*
Y4828D01*
X7877D01*
Y4747D01*
X7840Y4710D01*
X7834Y4701D01*
X7832Y4691D01*
Y4419D01*
X7813Y4406D01*
X7799Y4385D01*
X7794Y4361D01*
Y4308D01*
X7799Y4284D01*
X7813Y4263D01*
X7834Y4249D01*
X7858Y4244D01*
X7882Y4249D01*
X7903Y4263D01*
X7917Y4284D01*
X7922Y4308D01*
Y4361D01*
X7917Y4385D01*
X7903Y4406D01*
X7884Y4419D01*
Y4681D01*
X7911Y4708D01*
X7992D01*
Y4828D01*
X7961D01*
Y4938D01*
X7972Y4943D01*
X7974Y4943D01*
X8087D01*
Y5063D01*
X8055D01*
Y5486D01*
X8110Y5541D01*
X8122Y5536D01*
Y5512D01*
X8242D01*
Y5623D01*
X8208D01*
Y5894D01*
X8288Y5974D01*
X8329D01*
X8567Y5737D01*
Y5000D01*
X8554Y4993D01*
X8554Y4994D01*
Y5063D01*
X8441D01*
X8438Y5063D01*
X8428Y5070D01*
Y5382D01*
X8463D01*
Y5493D01*
X8342D01*
Y5382D01*
X8376D01*
Y4828D01*
X8343D01*
Y4794D01*
X8250D01*
X8240Y4792D01*
X8232Y4786D01*
X7967Y4521D01*
X7961Y4512D01*
X7959Y4503D01*
Y4164D01*
X7940Y4151D01*
X7926Y4131D01*
X7921Y4106D01*
Y4054D01*
X7926Y4029D01*
X7940Y4009D01*
X7961Y3995D01*
X7985Y3990D01*
X8009Y3995D01*
X8030Y4009D01*
X8044Y4029D01*
X8049Y4054D01*
Y4106D01*
X8044Y4131D01*
X8030Y4151D01*
X8011Y4164D01*
Y4492D01*
X8261Y4742D01*
X8343D01*
Y4708D01*
X8459D01*
Y4828D01*
X8428D01*
Y4936D01*
X8438Y4943D01*
X8441Y4943D01*
X8519D01*
X8567Y4895D01*
Y4497D01*
X8554Y4492D01*
X8538Y4479D01*
X8526Y4463D01*
X8518Y4445D01*
X8516Y4425D01*
X8518Y4405D01*
X8526Y4387D01*
X8538Y4371D01*
X8554Y4358D01*
X8573Y4351D01*
X8593Y4348D01*
X8612Y4351D01*
X8631Y4358D01*
X8647Y4371D01*
X8659Y4387D01*
X8667Y4405D01*
X8669Y4425D01*
X8667Y4445D01*
X8659Y4463D01*
X8647Y4479D01*
X8631Y4492D01*
X8618Y4497D01*
Y4903D01*
X8619Y4906D01*
X8618Y4909D01*
Y5747D01*
X8616Y5757D01*
X8611Y5766D01*
X8358Y6018D01*
X8350Y6024D01*
X8340Y6026D01*
D02*
G37*
G36*
X9194Y5016D02*
X9174Y5012D01*
X9156Y5000D01*
X9148Y4988D01*
X9085D01*
Y5012D01*
X8960D01*
Y4912D01*
X9085D01*
Y4936D01*
X9148D01*
X9156Y4924D01*
X9174Y4912D01*
X9194Y4908D01*
X9215Y4912D01*
X9232Y4924D01*
X9244Y4941D01*
X9248Y4962D01*
X9244Y4982D01*
X9232Y5000D01*
X9215Y5012D01*
X9194Y5016D01*
D02*
G37*
G36*
X10007Y5011D02*
X9987Y5007D01*
X9970Y4995D01*
X9959Y4980D01*
X9903D01*
Y5005D01*
X9778D01*
Y4904D01*
X9903D01*
Y4929D01*
X9963D01*
X9970Y4920D01*
X9987Y4908D01*
X10007Y4904D01*
X10028Y4908D01*
X10045Y4920D01*
X10057Y4937D01*
X10061Y4958D01*
X10057Y4978D01*
X10045Y4995D01*
X10028Y5007D01*
X10007Y5011D01*
D02*
G37*
G36*
X8242Y5493D02*
X8122D01*
Y5382D01*
X8156D01*
Y5173D01*
X8144Y5165D01*
X8132Y5147D01*
X8128Y5127D01*
X8132Y5106D01*
X8144Y5089D01*
X8161Y5077D01*
X8182Y5073D01*
X8196Y5076D01*
X8248Y5024D01*
Y4943D01*
X8364D01*
Y5063D01*
X8282D01*
X8233Y5113D01*
X8236Y5127D01*
X8232Y5147D01*
X8220Y5165D01*
X8208Y5173D01*
Y5382D01*
X8242D01*
Y5493D01*
D02*
G37*
G36*
X7293Y5483D02*
X7173D01*
Y5372D01*
X7207D01*
Y5173D01*
X7195Y5165D01*
X7183Y5147D01*
X7179Y5127D01*
X7183Y5106D01*
X7195Y5089D01*
X7213Y5077D01*
X7233Y5073D01*
X7247Y5076D01*
X7299Y5024D01*
Y4943D01*
X7415D01*
Y5063D01*
X7333D01*
X7284Y5112D01*
X7287Y5127D01*
X7283Y5147D01*
X7271Y5165D01*
X7259Y5173D01*
Y5372D01*
X7293D01*
Y5483D01*
D02*
G37*
G36*
X11803Y5326D02*
X11782Y5322D01*
X11765Y5310D01*
X11753Y5293D01*
X11749Y5272D01*
X11753Y5252D01*
X11765Y5235D01*
X11775Y5227D01*
Y5018D01*
X11748D01*
Y4843D01*
X11854D01*
Y5018D01*
X11827D01*
Y5226D01*
X11840Y5235D01*
X11852Y5252D01*
X11856Y5272D01*
X11852Y5293D01*
X11840Y5310D01*
X11823Y5322D01*
X11803Y5326D01*
D02*
G37*
G36*
X11670Y5414D02*
X11649Y5410D01*
X11632Y5398D01*
X11620Y5381D01*
X11616Y5360D01*
X11620Y5339D01*
X11632Y5322D01*
X11649Y5310D01*
X11655Y5309D01*
Y5018D01*
X11628D01*
Y4843D01*
X11734D01*
Y5018D01*
X11707D01*
Y5321D01*
X11708Y5322D01*
X11720Y5339D01*
X11724Y5360D01*
X11720Y5381D01*
X11708Y5398D01*
X11691Y5410D01*
X11670Y5414D01*
D02*
G37*
G36*
X11614Y5018D02*
X11508D01*
Y4843D01*
X11614D01*
Y5018D01*
D02*
G37*
G36*
X11086Y5098D02*
Y5005D01*
X11046D01*
Y4965D01*
X10954D01*
X10958Y4955D01*
X10975Y4934D01*
X10996Y4918D01*
X11007Y4913D01*
Y4820D01*
X10999Y4808D01*
X10958D01*
Y4703D01*
X11134D01*
Y4807D01*
X11176D01*
X11186Y4811D01*
X11190Y4820D01*
Y5005D01*
X11186Y5015D01*
X11176Y5019D01*
X11146D01*
X11144Y5032D01*
X11134Y5056D01*
X11118Y5077D01*
X11097Y5093D01*
X11086Y5098D01*
D02*
G37*
G36*
X9505Y4897D02*
X9380D01*
Y4797D01*
X9411D01*
Y4720D01*
X9376D01*
Y4609D01*
X9497D01*
Y4720D01*
X9462D01*
Y4797D01*
X9505D01*
Y4897D01*
D02*
G37*
G36*
X9085D02*
X8960D01*
Y4797D01*
X8997D01*
Y4694D01*
X8962D01*
Y4584D01*
X9083D01*
Y4694D01*
X9048D01*
Y4797D01*
X9085D01*
Y4897D01*
D02*
G37*
G36*
X10020Y4689D02*
X10000Y4685D01*
X9982Y4673D01*
X9971Y4656D01*
X9967Y4635D01*
X9971Y4615D01*
X9982Y4597D01*
X10000Y4586D01*
X10020Y4582D01*
X10041Y4586D01*
X10058Y4597D01*
X10066Y4610D01*
X10958D01*
Y4583D01*
X11134D01*
Y4688D01*
X10958D01*
Y4661D01*
X10066D01*
X10058Y4673D01*
X10041Y4685D01*
X10020Y4689D01*
D02*
G37*
G36*
X9903Y4890D02*
X9778D01*
Y4789D01*
X9815D01*
Y4674D01*
X9780D01*
Y4564D01*
X9901D01*
Y4674D01*
X9867D01*
Y4789D01*
X9903D01*
Y4890D01*
D02*
G37*
G36*
X12455Y4569D02*
X12435Y4565D01*
X12417Y4553D01*
X12409Y4541D01*
X12284D01*
Y4568D01*
X12108D01*
Y4463D01*
X12284D01*
Y4490D01*
X12409D01*
X12417Y4477D01*
X12435Y4466D01*
X12455Y4462D01*
X12476Y4466D01*
X12493Y4477D01*
X12505Y4495D01*
X12509Y4515D01*
X12505Y4536D01*
X12493Y4553D01*
X12476Y4565D01*
X12455Y4569D01*
D02*
G37*
G36*
X11134Y4568D02*
X10958D01*
Y4463D01*
X11134D01*
Y4568D01*
D02*
G37*
G36*
X7390Y4425D02*
Y4374D01*
X7424D01*
X7423Y4380D01*
X7416Y4399D01*
X7404Y4414D01*
X7390Y4425D01*
D02*
G37*
G36*
X7310D02*
X7296Y4414D01*
X7284Y4399D01*
X7277Y4380D01*
X7276Y4374D01*
X7310D01*
Y4425D01*
D02*
G37*
G36*
X11134Y4448D02*
X10958D01*
Y4343D01*
X11134D01*
Y4448D01*
D02*
G37*
G36*
X8175Y4423D02*
X8049D01*
Y4246D01*
X8175D01*
Y4423D01*
D02*
G37*
G36*
X7424Y4294D02*
X7390D01*
Y4244D01*
X7404Y4255D01*
X7416Y4270D01*
X7423Y4289D01*
X7424Y4294D01*
D02*
G37*
G36*
X7310D02*
X7276D01*
X7277Y4289D01*
X7284Y4270D01*
X7296Y4255D01*
X7310Y4244D01*
Y4294D01*
D02*
G37*
G36*
X9497Y4590D02*
X9376D01*
Y4479D01*
X9411D01*
Y4346D01*
X9384D01*
Y4241D01*
X9489D01*
Y4346D01*
X9462D01*
Y4479D01*
X9497D01*
Y4590D01*
D02*
G37*
G36*
X9083Y4564D02*
X8962D01*
Y4454D01*
X8994D01*
Y4346D01*
X8967D01*
Y4241D01*
X9073D01*
Y4346D01*
X9046D01*
Y4454D01*
X9083D01*
Y4564D01*
D02*
G37*
G36*
X9901Y4544D02*
X9780D01*
Y4434D01*
X9818D01*
Y4329D01*
X9791D01*
Y4224D01*
X9897D01*
Y4329D01*
X9870D01*
Y4434D01*
X9901D01*
Y4544D01*
D02*
G37*
G36*
X12284Y4328D02*
X12108D01*
Y4223D01*
X12284D01*
Y4328D01*
D02*
G37*
G36*
X11134D02*
X10958D01*
Y4223D01*
X11134D01*
Y4328D01*
D02*
G37*
G36*
X9502Y4209D02*
X9476D01*
Y4184D01*
X9502D01*
Y4209D01*
D02*
G37*
G36*
X9396D02*
X9371D01*
Y4184D01*
X9396D01*
Y4209D01*
D02*
G37*
G36*
X9085D02*
X9060D01*
Y4184D01*
X9085D01*
Y4209D01*
D02*
G37*
G36*
X8980D02*
X8954D01*
Y4184D01*
X8980D01*
Y4209D01*
D02*
G37*
G36*
X9910Y4192D02*
X9884D01*
Y4167D01*
X9910D01*
Y4192D01*
D02*
G37*
G36*
X9804D02*
X9779D01*
Y4167D01*
X9804D01*
Y4192D01*
D02*
G37*
G36*
X12284Y4208D02*
X12108D01*
Y4103D01*
X12284D01*
Y4208D01*
D02*
G37*
G36*
X11134D02*
X10958D01*
Y4103D01*
X11134D01*
Y4208D01*
D02*
G37*
G36*
X9502Y4104D02*
X9476D01*
Y4078D01*
X9502D01*
Y4104D01*
D02*
G37*
G36*
X9396D02*
X9371D01*
Y4078D01*
X9396D01*
Y4104D01*
D02*
G37*
G36*
X9085D02*
X9060D01*
Y4078D01*
X9085D01*
Y4104D01*
D02*
G37*
G36*
X8980D02*
X8954D01*
Y4078D01*
X8980D01*
Y4104D01*
D02*
G37*
G36*
X9910Y4087D02*
X9884D01*
Y4061D01*
X9910D01*
Y4087D01*
D02*
G37*
G36*
X9804D02*
X9779D01*
Y4061D01*
X9804D01*
Y4087D01*
D02*
G37*
G36*
X7477Y4171D02*
X7453Y4166D01*
X7432Y4152D01*
X7418Y4131D01*
X7413Y4107D01*
Y4054D01*
X7418Y4030D01*
X7432Y4009D01*
X7453Y3995D01*
X7477Y3990D01*
X7501Y3995D01*
X7522Y4009D01*
X7536Y4030D01*
X7541Y4054D01*
Y4107D01*
X7536Y4131D01*
X7522Y4152D01*
X7501Y4166D01*
X7477Y4171D01*
D02*
G37*
G36*
X7223D02*
X7199Y4166D01*
X7178Y4152D01*
X7164Y4131D01*
X7159Y4107D01*
Y4054D01*
X7164Y4030D01*
X7178Y4009D01*
X7199Y3995D01*
X7223Y3990D01*
X7247Y3995D01*
X7268Y4009D01*
X7282Y4030D01*
X7287Y4054D01*
Y4107D01*
X7282Y4131D01*
X7268Y4152D01*
X7247Y4166D01*
X7223Y4171D01*
D02*
G37*
G36*
X10320Y4035D02*
X10245D01*
Y3985D01*
X10320D01*
Y4035D01*
D02*
G37*
G36*
X10165D02*
X10090D01*
Y3985D01*
X10165D01*
Y4035D01*
D02*
G37*
G36*
X10308Y4313D02*
X10102D01*
Y4157D01*
X10209D01*
X10296Y4071D01*
X10313Y4060D01*
X10332Y4056D01*
X10476D01*
X10485Y4047D01*
X10485Y4032D01*
X10475Y4025D01*
X10472D01*
Y3997D01*
X10618D01*
Y4025D01*
X10615D01*
X10605Y4032D01*
X10605Y4038D01*
Y4056D01*
X10731D01*
X10748Y4039D01*
X10748Y4035D01*
X10750Y4016D01*
X10758Y3997D01*
X10770Y3981D01*
X10786Y3969D01*
X10805Y3961D01*
X10825Y3959D01*
X10844Y3961D01*
X10863Y3969D01*
X10879Y3981D01*
X10881Y3984D01*
X10934D01*
X10946Y3981D01*
X10946Y3971D01*
Y3955D01*
X11046D01*
X11147D01*
Y3981D01*
X11146D01*
X11134Y3983D01*
X11134Y3994D01*
Y4088D01*
X10958D01*
Y4087D01*
X10881D01*
X10879Y4090D01*
X10863Y4102D01*
X10844Y4110D01*
X10825Y4112D01*
X10821Y4112D01*
X10789Y4144D01*
X10772Y4155D01*
X10753Y4159D01*
X10354D01*
X10308Y4206D01*
Y4313D01*
D02*
G37*
G36*
X12284Y4088D02*
X12108D01*
X12108Y3983D01*
X12097Y3981D01*
X12096D01*
Y3955D01*
X12196D01*
X12297D01*
Y3981D01*
X12296D01*
X12284Y3983D01*
X12284Y3994D01*
Y4088D01*
D02*
G37*
G36*
X10618Y3917D02*
X10585D01*
Y3890D01*
X10618D01*
Y3917D01*
D02*
G37*
G36*
X10505D02*
X10472D01*
Y3890D01*
X10505D01*
Y3917D01*
D02*
G37*
G36*
X6797Y4191D02*
X6766Y4188D01*
X6735Y4179D01*
X6707Y4163D01*
X6682Y4143D01*
X6662Y4118D01*
X6646Y4090D01*
X6637Y4059D01*
X6634Y4028D01*
X6637Y3996D01*
X6646Y3965D01*
X6662Y3937D01*
X6682Y3912D01*
X6707Y3892D01*
X6735Y3876D01*
X6766Y3867D01*
X6797Y3864D01*
X6829Y3867D01*
X6860Y3876D01*
X6888Y3892D01*
X6913Y3912D01*
X6933Y3937D01*
X6949Y3965D01*
X6958Y3996D01*
X6961Y4028D01*
X6958Y4059D01*
X6949Y4090D01*
X6933Y4118D01*
X6913Y4143D01*
X6888Y4163D01*
X6860Y4179D01*
X6829Y4188D01*
X6797Y4191D01*
D02*
G37*
G36*
X10320Y3905D02*
X10245D01*
Y3855D01*
X10320D01*
Y3905D01*
D02*
G37*
G36*
X10165D02*
X10090D01*
Y3855D01*
X10165D01*
Y3905D01*
D02*
G37*
G36*
X10442Y7538D02*
X10423Y7518D01*
X10446Y7495D01*
X10466Y7515D01*
X10442Y7538D01*
D02*
G37*
G36*
X10522Y7458D02*
X10503Y7438D01*
X10526Y7415D01*
X10546Y7435D01*
X10522Y7458D01*
D02*
G37*
G36*
X9743Y6947D02*
X9710D01*
Y6920D01*
X9743D01*
Y6947D01*
D02*
G37*
G36*
X9862Y6960D02*
X9842Y6940D01*
X9865Y6917D01*
X9885Y6937D01*
X9862Y6960D01*
D02*
G37*
G36*
X9942Y6880D02*
X9922Y6860D01*
X9945Y6837D01*
X9965Y6857D01*
X9942Y6880D01*
D02*
G37*
G36*
X4883Y5660D02*
X4855D01*
Y5627D01*
X4883D01*
Y5660D01*
D02*
G37*
G36*
X5327Y5666D02*
X5265D01*
X5254Y5661D01*
X5249Y5650D01*
Y5593D01*
X5253Y5584D01*
X5249Y5575D01*
Y5573D01*
X5126D01*
X5108Y5591D01*
Y5647D01*
X5004D01*
X4998Y5647D01*
X4991Y5657D01*
Y5660D01*
X4963D01*
Y5587D01*
Y5514D01*
X4991D01*
Y5517D01*
X4998Y5526D01*
X5004Y5526D01*
X5050D01*
Y5451D01*
X4981D01*
X4975Y5451D01*
X4968Y5461D01*
Y5464D01*
X4938D01*
Y5389D01*
Y5313D01*
X4968D01*
Y5316D01*
X4975Y5326D01*
X4981Y5326D01*
X5059D01*
X5070Y5316D01*
Y5288D01*
X5058Y5280D01*
X5046Y5262D01*
X5042Y5242D01*
X5046Y5221D01*
X5058Y5204D01*
X5075Y5192D01*
X5096Y5188D01*
X5116Y5192D01*
X5134Y5204D01*
X5145Y5221D01*
X5149Y5242D01*
X5145Y5262D01*
X5134Y5280D01*
X5121Y5288D01*
Y5326D01*
X5119Y5336D01*
X5114Y5345D01*
X5100Y5358D01*
X5106Y5371D01*
X5249D01*
Y5368D01*
X5253Y5359D01*
X5249Y5350D01*
Y5297D01*
X5245Y5295D01*
X5240Y5287D01*
X5252D01*
X5254Y5282D01*
X5265Y5278D01*
X5296D01*
X5327D01*
X5337Y5282D01*
X5339Y5287D01*
X5351D01*
X5346Y5295D01*
X5342Y5297D01*
Y5350D01*
X5338Y5359D01*
X5342Y5368D01*
Y5421D01*
X5346Y5424D01*
X5351Y5432D01*
X5339D01*
X5337Y5436D01*
X5327Y5441D01*
X5296D01*
Y5503D01*
X5327D01*
X5337Y5507D01*
X5339Y5512D01*
X5351D01*
X5346Y5520D01*
X5342Y5522D01*
Y5575D01*
X5338Y5584D01*
X5342Y5593D01*
Y5650D01*
X5337Y5661D01*
X5327Y5666D01*
D02*
G37*
G36*
X5547D02*
X5485D01*
X5474Y5661D01*
X5469Y5650D01*
Y5593D01*
X5473Y5584D01*
X5469Y5575D01*
Y5559D01*
X5385Y5475D01*
X5379Y5467D01*
X5377Y5457D01*
Y4705D01*
X5209Y4537D01*
X5204Y4529D01*
X5202Y4519D01*
Y4024D01*
X5182Y4011D01*
X5169Y3990D01*
X5164Y3966D01*
Y3913D01*
X5169Y3889D01*
X5182Y3868D01*
X5203Y3854D01*
X5228Y3850D01*
X5252Y3854D01*
X5273Y3868D01*
X5287Y3889D01*
X5292Y3913D01*
Y3966D01*
X5287Y3990D01*
X5273Y4011D01*
X5253Y4024D01*
Y4508D01*
X5421Y4676D01*
X5427Y4684D01*
X5429Y4694D01*
Y5446D01*
X5457Y5475D01*
X5469Y5470D01*
Y5443D01*
X5473Y5434D01*
X5469Y5425D01*
Y5368D01*
X5473Y5359D01*
X5469Y5350D01*
Y5293D01*
X5473Y5284D01*
X5469Y5275D01*
Y5218D01*
X5474Y5207D01*
X5485Y5203D01*
X5490D01*
Y4330D01*
X5463Y4304D01*
X5458Y4295D01*
X5456Y4285D01*
Y4024D01*
X5436Y4011D01*
X5423Y3990D01*
X5418Y3966D01*
Y3913D01*
X5423Y3889D01*
X5436Y3868D01*
X5457Y3854D01*
X5482Y3850D01*
X5506Y3854D01*
X5527Y3868D01*
X5541Y3889D01*
X5546Y3913D01*
Y3966D01*
X5541Y3990D01*
X5527Y4011D01*
X5507Y4024D01*
Y4274D01*
X5534Y4301D01*
X5539Y4309D01*
X5541Y4319D01*
Y4509D01*
X5544Y4511D01*
X5554Y4514D01*
X5583Y4485D01*
Y4278D01*
X5563Y4265D01*
X5550Y4244D01*
X5545Y4220D01*
Y4167D01*
X5550Y4143D01*
X5563Y4122D01*
X5584Y4108D01*
X5609Y4104D01*
X5633Y4108D01*
X5654Y4122D01*
X5668Y4143D01*
X5672Y4167D01*
Y4220D01*
X5668Y4244D01*
X5654Y4265D01*
X5634Y4278D01*
Y4496D01*
X5632Y4506D01*
X5627Y4515D01*
X5596Y4545D01*
Y5113D01*
X5684Y5201D01*
X5689Y5209D01*
X5691Y5219D01*
Y5422D01*
X5689Y5432D01*
X5684Y5440D01*
X5634Y5490D01*
X5625Y5496D01*
X5616Y5498D01*
X5562D01*
Y5500D01*
X5558Y5509D01*
X5562Y5518D01*
Y5575D01*
X5558Y5584D01*
X5562Y5593D01*
Y5596D01*
X5629D01*
X5637Y5586D01*
X5637Y5584D01*
X5641Y5564D01*
X5653Y5546D01*
X5670Y5535D01*
X5691Y5530D01*
X5711Y5535D01*
X5729Y5546D01*
X5740Y5564D01*
X5744Y5584D01*
X5740Y5605D01*
X5729Y5622D01*
X5711Y5634D01*
X5691Y5638D01*
X5676Y5635D01*
X5671Y5640D01*
X5663Y5646D01*
X5653Y5648D01*
X5562D01*
Y5650D01*
X5557Y5661D01*
X5547Y5666D01*
D02*
G37*
G36*
X4883Y5547D02*
X4855D01*
Y5514D01*
X4883D01*
Y5547D01*
D02*
G37*
G36*
X4858Y5464D02*
X4828D01*
Y5429D01*
X4858D01*
Y5464D01*
D02*
G37*
G36*
Y5349D02*
X4828D01*
Y5313D01*
X4858D01*
Y5349D01*
D02*
G37*
G36*
X5351Y5207D02*
X5336D01*
Y5193D01*
X5337Y5193D01*
X5346Y5199D01*
X5351Y5207D01*
D02*
G37*
G36*
X5256D02*
X5240D01*
X5245Y5199D01*
X5254Y5193D01*
X5256Y5193D01*
Y5207D01*
D02*
G37*
G36*
X5775Y5008D02*
X5743Y5005D01*
X5712Y4996D01*
X5684Y4981D01*
X5659Y4961D01*
X5639Y4936D01*
X5624Y4908D01*
X5615Y4877D01*
X5612Y4845D01*
X5615Y4813D01*
X5624Y4782D01*
X5639Y4754D01*
X5659Y4729D01*
X5684Y4709D01*
X5712Y4694D01*
X5743Y4685D01*
X5775Y4682D01*
X5807Y4685D01*
X5838Y4694D01*
X5866Y4709D01*
X5891Y4729D01*
X5911Y4754D01*
X5926Y4782D01*
X5935Y4813D01*
X5938Y4845D01*
X5935Y4877D01*
X5926Y4908D01*
X5911Y4936D01*
X5891Y4961D01*
X5866Y4981D01*
X5838Y4996D01*
X5807Y5005D01*
X5775Y5008D01*
D02*
G37*
G36*
X5100D02*
X5068Y5005D01*
X5037Y4996D01*
X5009Y4981D01*
X4984Y4961D01*
X4964Y4936D01*
X4949Y4908D01*
X4940Y4877D01*
X4937Y4845D01*
X4940Y4813D01*
X4949Y4782D01*
X4964Y4754D01*
X4984Y4729D01*
X5009Y4709D01*
X5037Y4694D01*
X5068Y4685D01*
X5100Y4682D01*
X5132Y4685D01*
X5163Y4694D01*
X5191Y4709D01*
X5216Y4729D01*
X5236Y4754D01*
X5251Y4782D01*
X5260Y4813D01*
X5263Y4845D01*
X5260Y4877D01*
X5251Y4908D01*
X5236Y4936D01*
X5216Y4961D01*
X5191Y4981D01*
X5163Y4996D01*
X5132Y5005D01*
X5100Y5008D01*
D02*
G37*
G36*
X5355Y4287D02*
X5330Y4282D01*
X5309Y4268D01*
X5296Y4247D01*
X5291Y4223D01*
Y4171D01*
X5296Y4146D01*
X5309Y4125D01*
X5330Y4111D01*
X5355Y4107D01*
X5379Y4111D01*
X5400Y4125D01*
X5414Y4146D01*
X5419Y4171D01*
Y4223D01*
X5414Y4247D01*
X5400Y4268D01*
X5379Y4282D01*
X5355Y4287D01*
D02*
G37*
G36*
X5101Y4284D02*
X5076Y4279D01*
X5055Y4266D01*
X5042Y4245D01*
X5037Y4220D01*
Y4168D01*
X5042Y4144D01*
X5055Y4123D01*
X5076Y4109D01*
X5101Y4104D01*
X5125Y4109D01*
X5146Y4123D01*
X5160Y4144D01*
X5165Y4168D01*
Y4220D01*
X5160Y4245D01*
X5146Y4266D01*
X5125Y4279D01*
X5101Y4284D01*
D02*
G37*
G36*
X5863Y4284D02*
X5838Y4279D01*
X5817Y4265D01*
X5804Y4244D01*
X5799Y4220D01*
Y4167D01*
X5804Y4143D01*
X5817Y4122D01*
X5838Y4108D01*
X5863Y4104D01*
X5887Y4108D01*
X5908Y4122D01*
X5922Y4143D01*
X5926Y4167D01*
Y4220D01*
X5922Y4244D01*
X5908Y4265D01*
X5887Y4279D01*
X5863Y4284D01*
D02*
G37*
G36*
X5776Y4030D02*
Y3980D01*
X5810D01*
X5809Y3986D01*
X5801Y4004D01*
X5789Y4020D01*
X5776Y4030D01*
D02*
G37*
G36*
X5696Y4030D02*
X5682Y4020D01*
X5670Y4004D01*
X5662Y3986D01*
X5661Y3980D01*
X5696D01*
Y4030D01*
D02*
G37*
G36*
X5036Y4029D02*
X4911D01*
Y3851D01*
X5036D01*
Y4029D01*
D02*
G37*
G36*
X5810Y3900D02*
X5776D01*
Y3849D01*
X5789Y3860D01*
X5801Y3875D01*
X5809Y3894D01*
X5810Y3900D01*
D02*
G37*
G36*
X5696D02*
X5661D01*
X5662Y3894D01*
X5670Y3875D01*
X5682Y3860D01*
X5696Y3849D01*
Y3900D01*
D02*
G37*
%LPD*%
G36*
X5640Y5411D02*
Y5230D01*
X5554Y5144D01*
X5544Y5147D01*
X5541Y5149D01*
Y5203D01*
X5547D01*
X5557Y5207D01*
X5562Y5218D01*
Y5275D01*
X5558Y5284D01*
X5562Y5293D01*
Y5350D01*
X5558Y5359D01*
X5562Y5368D01*
Y5425D01*
X5558Y5434D01*
X5562Y5443D01*
Y5446D01*
X5605D01*
X5640Y5411D01*
D02*
G37*
D10*
X13177Y10980D02*
D03*
Y10845D02*
D03*
X14507Y10647D02*
D03*
Y10512D02*
D03*
X12368Y9832D02*
D03*
Y9968D02*
D03*
X9327Y11054D02*
D03*
Y10919D02*
D03*
Y10674D02*
D03*
Y10539D02*
D03*
X12990Y10982D02*
D03*
Y10847D02*
D03*
D11*
X14913Y10114D02*
D03*
X14818Y10349D02*
D03*
X15009D02*
D03*
D12*
X9670Y7118D02*
D03*
Y6988D02*
D03*
X12462Y5342D02*
D03*
Y5472D02*
D03*
X9841Y4489D02*
D03*
Y4619D02*
D03*
X9022Y4509D02*
D03*
Y4639D02*
D03*
X9436Y4535D02*
D03*
Y4665D02*
D03*
X11665Y9822D02*
D03*
Y9953D02*
D03*
X12375Y10330D02*
D03*
Y10200D02*
D03*
X13432Y11347D02*
D03*
Y11218D02*
D03*
X12762Y11345D02*
D03*
Y11215D02*
D03*
X11078Y9588D02*
D03*
Y9718D02*
D03*
X11298Y9718D02*
D03*
Y9588D02*
D03*
X8402Y5438D02*
D03*
Y5568D02*
D03*
X8182Y5438D02*
D03*
Y5568D02*
D03*
X7454Y5428D02*
D03*
Y5558D02*
D03*
X7233Y5428D02*
D03*
Y5558D02*
D03*
X7935Y5428D02*
D03*
Y5558D02*
D03*
X7715Y5428D02*
D03*
Y5558D02*
D03*
X6990Y5430D02*
D03*
Y5560D02*
D03*
X6770Y5430D02*
D03*
Y5560D02*
D03*
X10545Y4088D02*
D03*
Y3958D02*
D03*
X8221Y7703D02*
D03*
Y7572D02*
D03*
D13*
X12196Y5005D02*
D03*
X11046D02*
D03*
X14888Y9368D02*
D03*
X6675Y10097D02*
D03*
Y10351D02*
D03*
Y10606D02*
D03*
Y10860D02*
D03*
Y11114D02*
D03*
X10061Y10003D02*
D03*
X9807D02*
D03*
X14748Y11285D02*
D03*
X8831Y11327D02*
D03*
X11418Y11325D02*
D03*
X9090Y10005D02*
D03*
X8836D02*
D03*
X12805Y9393D02*
D03*
D14*
X11321Y4930D02*
D03*
X11441D02*
D03*
X11921D02*
D03*
X11801D02*
D03*
X11681D02*
D03*
X11561D02*
D03*
D15*
X11046Y4755D02*
D03*
Y4635D02*
D03*
Y4515D02*
D03*
Y4275D02*
D03*
Y3915D02*
D03*
Y4035D02*
D03*
Y4155D02*
D03*
Y4395D02*
D03*
X12196D02*
D03*
Y4155D02*
D03*
Y4035D02*
D03*
Y3915D02*
D03*
Y4275D02*
D03*
Y4515D02*
D03*
Y4635D02*
D03*
Y4755D02*
D03*
D16*
X11217Y7263D02*
D03*
X10509Y6556D02*
D03*
D17*
X12532Y8845D02*
D03*
X12662D02*
D03*
X12532Y8618D02*
D03*
X12662D02*
D03*
X12531Y8402D02*
D03*
X12661D02*
D03*
X12755Y11510D02*
D03*
X12885D02*
D03*
X7822Y7725D02*
D03*
X7953D02*
D03*
X5977Y6989D02*
D03*
X6107D02*
D03*
X5977Y6735D02*
D03*
X6107D02*
D03*
X5977Y7509D02*
D03*
X6107D02*
D03*
X5977Y7243D02*
D03*
X6107D02*
D03*
X5966Y8680D02*
D03*
X6096D02*
D03*
X5967Y8459D02*
D03*
X6097D02*
D03*
X5966Y9137D02*
D03*
X6096D02*
D03*
X5966Y8916D02*
D03*
X6096D02*
D03*
X7970Y11060D02*
D03*
X7840D02*
D03*
X7840Y11338D02*
D03*
X7970D02*
D03*
X5053Y5587D02*
D03*
X4923D02*
D03*
X5832Y10463D02*
D03*
X5962D02*
D03*
X11143Y8145D02*
D03*
X11272D02*
D03*
X11138Y7920D02*
D03*
X11268D02*
D03*
X8181Y7205D02*
D03*
X8051D02*
D03*
X8390Y9120D02*
D03*
X8260D02*
D03*
X10368Y9243D02*
D03*
X10238D02*
D03*
X10410Y9000D02*
D03*
X10540D02*
D03*
X7312Y11315D02*
D03*
X7182D02*
D03*
X14202Y11047D02*
D03*
X14332D02*
D03*
X14195Y10832D02*
D03*
X14325D02*
D03*
X13150Y11153D02*
D03*
X13020D02*
D03*
D18*
X10354Y7347D02*
D03*
X10446Y7438D02*
D03*
X10033Y7028D02*
D03*
X9942Y6937D02*
D03*
D19*
X13418Y10555D02*
D03*
X13552D02*
D03*
X11146Y10817D02*
D03*
X11011D02*
D03*
X10765D02*
D03*
X10630D02*
D03*
X5994Y10669D02*
D03*
X5859D02*
D03*
X4898Y5389D02*
D03*
X5033D02*
D03*
X14193Y11222D02*
D03*
X14327D02*
D03*
D20*
X7452Y4768D02*
D03*
X7547Y5003D02*
D03*
X8401Y4768D02*
D03*
X8496Y5003D02*
D03*
X6995Y4768D02*
D03*
X7090Y5003D02*
D03*
X7935Y4768D02*
D03*
X8030Y5003D02*
D03*
D21*
X7357Y5003D02*
D03*
X8306D02*
D03*
X6900D02*
D03*
X7840D02*
D03*
D22*
X13227Y11515D02*
D03*
X13077D02*
D03*
D23*
X12575D02*
D03*
Y11400D02*
D03*
X9442Y4847D02*
D03*
Y4962D02*
D03*
X9841Y4840D02*
D03*
Y4955D02*
D03*
X9022Y4847D02*
D03*
Y4962D02*
D03*
D24*
X13360Y9922D02*
D03*
X13640D02*
D03*
D25*
X12920Y10528D02*
D03*
Y10097D02*
D03*
D26*
X9844Y4127D02*
D03*
Y4277D02*
D03*
X9020Y4144D02*
D03*
Y4294D02*
D03*
X9436Y4144D02*
D03*
Y4294D02*
D03*
D27*
X9399Y8847D02*
D03*
X9435Y8812D02*
D03*
X9470Y8776D02*
D03*
X9505Y8741D02*
D03*
X9541Y8706D02*
D03*
X9576Y8670D02*
D03*
X9612Y8635D02*
D03*
X9647Y8600D02*
D03*
X9682Y8564D02*
D03*
X9718Y8529D02*
D03*
X9753Y8494D02*
D03*
X9788Y8458D02*
D03*
X9824Y8423D02*
D03*
X9859Y8388D02*
D03*
X9894Y8352D02*
D03*
X9930Y8317D02*
D03*
X9124Y7511D02*
D03*
X9088Y7546D02*
D03*
X9053Y7581D02*
D03*
X9018Y7617D02*
D03*
X8982Y7652D02*
D03*
X8947Y7688D02*
D03*
X8911Y7723D02*
D03*
X8876Y7758D02*
D03*
X8841Y7794D02*
D03*
X8805Y7829D02*
D03*
X8770Y7864D02*
D03*
X8735Y7900D02*
D03*
X8699Y7935D02*
D03*
X8664Y7970D02*
D03*
X8629Y8006D02*
D03*
X8593Y8041D02*
D03*
D28*
X9930D02*
D03*
X9894Y8006D02*
D03*
X9859Y7970D02*
D03*
X9824Y7935D02*
D03*
X9788Y7900D02*
D03*
X9753Y7864D02*
D03*
X9718Y7829D02*
D03*
X9682Y7794D02*
D03*
X9647Y7758D02*
D03*
X9612Y7723D02*
D03*
X9576Y7688D02*
D03*
X9541Y7652D02*
D03*
X9505Y7617D02*
D03*
X9470Y7581D02*
D03*
X9435Y7546D02*
D03*
X9399Y7511D02*
D03*
X8593Y8317D02*
D03*
X8629Y8352D02*
D03*
X8664Y8388D02*
D03*
X8699Y8423D02*
D03*
X8735Y8458D02*
D03*
X8770Y8494D02*
D03*
X8805Y8529D02*
D03*
X8841Y8564D02*
D03*
X8876Y8600D02*
D03*
X8911Y8635D02*
D03*
X8947Y8670D02*
D03*
X8982Y8706D02*
D03*
X9018Y8741D02*
D03*
X9053Y8776D02*
D03*
X9088Y8812D02*
D03*
X9124Y8847D02*
D03*
D29*
X5612Y10811D02*
D03*
Y10736D02*
D03*
Y10661D02*
D03*
Y10586D02*
D03*
Y10511D02*
D03*
Y10436D02*
D03*
X5392D02*
D03*
Y10511D02*
D03*
Y10586D02*
D03*
Y10661D02*
D03*
Y10736D02*
D03*
Y10811D02*
D03*
X5296Y5247D02*
D03*
Y5322D02*
D03*
Y5397D02*
D03*
Y5472D02*
D03*
Y5547D02*
D03*
Y5622D02*
D03*
X5516D02*
D03*
Y5547D02*
D03*
Y5472D02*
D03*
Y5397D02*
D03*
Y5322D02*
D03*
Y5247D02*
D03*
D30*
X8956Y10792D02*
D03*
D31*
X9033Y10892D02*
D03*
X8983D02*
D03*
X8933D02*
D03*
X8883D02*
D03*
Y10692D02*
D03*
X8933D02*
D03*
X8983D02*
D03*
X9033D02*
D03*
D32*
X10906Y11213D02*
D03*
D33*
X11006Y11135D02*
D03*
Y11185D02*
D03*
Y11235D02*
D03*
Y11285D02*
D03*
X10806D02*
D03*
Y11235D02*
D03*
Y11185D02*
D03*
Y11135D02*
D03*
D34*
X7614Y11061D02*
D03*
X7164D02*
D03*
X7614Y10221D02*
D03*
X7164D02*
D03*
D35*
X12022Y8689D02*
D03*
Y8621D02*
D03*
Y8554D02*
D03*
X11897Y8689D02*
D03*
Y8621D02*
D03*
Y8554D02*
D03*
D36*
X12107Y9790D02*
D03*
Y9885D02*
D03*
Y9980D02*
D03*
X11892Y9790D02*
D03*
Y9980D02*
D03*
D37*
X10205Y3945D02*
D03*
Y4235D02*
D03*
D38*
X13427Y10968D02*
D03*
Y10842D02*
D03*
Y11096D02*
D03*
Y10714D02*
D03*
X13968Y10717D02*
D03*
Y11098D02*
D03*
Y10844D02*
D03*
Y10971D02*
D03*
D39*
X13645Y10240D02*
D03*
D40*
X13440D02*
D03*
D41*
X5266Y11469D02*
X5322Y11412D01*
Y10955D02*
Y11412D01*
X5266Y10899D02*
X5322Y10955D01*
X5570Y5124D02*
X5666Y5219D01*
X5570Y4535D02*
Y5124D01*
Y4535D02*
X5609Y4496D01*
X5266Y11469D02*
Y11754D01*
Y10614D02*
Y10899D01*
X13424Y10845D02*
X13424Y10845D01*
X13635D01*
X13424D02*
X13427Y10842D01*
X6575Y9470D02*
X8057Y7988D01*
X6575Y9470D02*
Y10251D01*
X8057Y7988D02*
X8540D01*
X8488Y7358D02*
X8705Y7575D01*
X8349Y7358D02*
X8488D01*
X8705Y7575D02*
X8764D01*
X5609Y4194D02*
Y4496D01*
X5616Y5472D02*
X5666Y5422D01*
Y5219D02*
Y5422D01*
X5033Y5389D02*
X5096Y5326D01*
Y5242D02*
Y5326D01*
X8998Y7880D02*
X9000D01*
X8876Y7758D02*
X8998Y7880D01*
X8747Y7625D02*
Y7630D01*
X8876Y7758D01*
X8738Y8668D02*
Y8672D01*
Y8668D02*
X8841Y8564D01*
X13427Y11096D02*
Y11225D01*
X13960Y10540D02*
Y10710D01*
X13177Y10980D02*
X13416D01*
X13177Y10845D02*
X13424D01*
X13968Y10971D02*
X14066D01*
X14143Y11047D01*
X13968Y11098D02*
X14068D01*
X12575Y11097D02*
X12693Y11215D01*
X12762D01*
X12575Y11097D02*
Y11400D01*
X12505Y11028D02*
X12575Y11097D01*
X12505Y10310D02*
Y11028D01*
X12718Y10097D02*
X12920D01*
X12505Y10310D02*
X12718Y10097D01*
X13073Y11510D02*
X13077Y11515D01*
X12885Y11510D02*
X13073D01*
X12750Y11515D02*
X12755Y11510D01*
X12575Y11515D02*
X12750D01*
X13097Y11225D02*
X13427D01*
X12977Y11345D02*
X13097Y11225D01*
X12762Y11345D02*
X12977D01*
X13416Y10980D02*
X13427Y10968D01*
X13150Y11153D02*
X13177Y11125D01*
Y10980D02*
Y11125D01*
X12990Y11122D02*
X13020Y11153D01*
X12990Y10982D02*
Y11122D01*
X14068Y11098D02*
X14193Y11222D01*
X14143Y11047D02*
X14202D01*
X13175Y10847D02*
X13177Y10845D01*
X12990Y10847D02*
X13175D01*
X13960Y10710D02*
X13968Y10717D01*
X13510Y10412D02*
X13552Y10455D01*
Y10555D01*
X14202Y10955D02*
Y11047D01*
Y10955D02*
X14223Y10935D01*
X14305D01*
X14325Y10915D01*
Y10832D02*
Y10915D01*
X10762Y7995D02*
X10838Y7920D01*
X10738Y7995D02*
X10762D01*
X10662Y7920D02*
X10738Y7995D01*
X9980Y7920D02*
X10662D01*
X8572Y7949D02*
X8629Y8006D01*
X6518Y9462D02*
X8031Y7949D01*
X8572D01*
X8540Y7988D02*
X8593Y8041D01*
X9399Y7511D02*
X9462Y7448D01*
Y7370D02*
Y7448D01*
X9085Y6993D02*
X9462Y7370D01*
X10430Y7968D02*
X10606Y8144D01*
X10003Y7968D02*
X10430D01*
X9930Y8041D02*
X10003Y7968D01*
X9906Y7858D02*
X10798D01*
X9903Y7855D02*
X9906Y7858D01*
X9844Y4277D02*
Y4493D01*
X9020Y4294D02*
Y4514D01*
X9436Y4535D02*
Y4542D01*
Y4294D02*
Y4535D01*
Y4665D02*
Y4841D01*
Y4657D02*
Y4665D01*
X9022Y4639D02*
Y4847D01*
Y4632D02*
Y4639D01*
X9841Y4619D02*
Y4840D01*
Y4612D02*
Y4619D01*
X9678Y8315D02*
Y8373D01*
X9655Y8396D02*
X9678Y8373D01*
X9900Y7793D02*
X10685D01*
X9902Y7715D02*
X10562D01*
X9753Y7864D02*
X9902Y7715D01*
X8055Y6443D02*
X9124Y7511D01*
X8697Y7650D02*
X8841Y7794D01*
X8565Y7650D02*
X8697D01*
X8520Y7605D02*
X8565Y7650D01*
X8843Y6745D02*
Y7109D01*
Y6745D02*
X8848Y6740D01*
Y6686D02*
Y6740D01*
X8843Y6681D02*
X8848Y6686D01*
X8843Y6389D02*
Y6681D01*
Y6389D02*
X9125Y6108D01*
X7990Y7712D02*
X8216D01*
X8221Y7718D01*
X8593Y4906D02*
X8593Y4906D01*
X8496Y5003D02*
X8593Y4906D01*
Y5747D01*
Y4425D02*
Y4906D01*
X10606Y8144D02*
X10886D01*
X10887Y8145D02*
X11120D01*
X10886Y8144D02*
X10887Y8145D01*
X9894Y8006D02*
X9980Y7920D01*
X9612Y7723D02*
X10049Y7285D01*
X10390Y7263D02*
X11217D01*
X10322Y7331D02*
X10338D01*
X8805Y8529D02*
X9168Y8167D01*
X9214D01*
X6770Y5133D02*
X6900Y5003D01*
X6770Y5133D02*
Y5408D01*
X6990Y4772D02*
Y5408D01*
Y4772D02*
X6995Y4768D01*
X7935Y4769D02*
Y5405D01*
X8402Y4769D02*
Y5415D01*
X7090Y5472D02*
X7197Y5580D01*
X7090Y5003D02*
Y5472D01*
X7547Y5482D02*
X7645Y5580D01*
X7547Y5003D02*
Y5482D01*
X8030Y5003D02*
Y5497D01*
X8122Y5590D01*
X7858Y4335D02*
Y4691D01*
X7935Y4768D01*
X7731Y4078D02*
Y4639D01*
X7602Y4768D02*
X7731Y4639D01*
X7985Y4080D02*
Y4503D01*
X8250Y4768D01*
X8401D01*
X7604Y4335D02*
Y4496D01*
X7485Y4615D02*
X7604Y4496D01*
X7148Y4615D02*
X7485D01*
X6995Y4768D02*
X7148Y4615D01*
X9803Y8027D02*
X9859Y7970D01*
X9809Y8034D02*
X9809Y8034D01*
X9809Y8034D02*
Y8109D01*
X10254Y8554D01*
X11897D01*
X10234Y8621D02*
X11897D01*
X10231Y8689D02*
X11897D01*
X12022Y8554D02*
X12144D01*
X12295Y8402D01*
X12509D01*
X9844Y4127D02*
X9847Y4124D01*
X12196Y4635D02*
X12333D01*
X11670Y9980D02*
X11892D01*
X11665Y9975D02*
X11670Y9980D01*
X11675Y9790D02*
X11892D01*
X11665Y9800D02*
X11675Y9790D01*
X12368Y9980D02*
X12368Y9980D01*
X10243Y11285D02*
X10806D01*
X10288Y11185D02*
X10806D01*
X10265Y11235D02*
X10806D01*
X5457Y6900D02*
X5645D01*
X5810Y6735D02*
X5954D01*
X5200Y7027D02*
X5696D01*
X5462Y8662D02*
X5490D01*
X5205Y8789D02*
X5611D01*
X5720Y8680D01*
X5944Y8916D02*
X5944Y8916D01*
X5208Y9043D02*
X5703D01*
X5797Y9137D01*
X9168Y7979D02*
Y8167D01*
X9250Y8084D01*
Y8014D02*
Y8084D01*
X9576Y7688D02*
X9678Y7586D01*
X11300Y9568D02*
X11665D01*
X11298Y9565D02*
X11300Y9568D01*
X8505Y8617D02*
X8507Y8620D01*
Y8690D01*
X11178Y9743D02*
Y9910D01*
Y9743D02*
X11180Y9740D01*
X6050Y9297D02*
X6119Y9229D01*
X9788Y7900D02*
X9898Y7790D01*
X8911Y7723D02*
X9168Y7979D01*
X8505Y8617D02*
X8699Y8423D01*
X6575Y10251D02*
X6675Y10351D01*
X6518Y10448D02*
X6675Y10606D01*
X9436Y4841D02*
X9442Y4847D01*
X9022Y4962D02*
X9194D01*
X9197Y4965D01*
X9442Y4962D02*
X9607D01*
X9607Y4962D01*
X9841Y4955D02*
X10005D01*
X10007Y4958D01*
X11930Y4939D02*
Y5660D01*
X8982Y7644D02*
Y7652D01*
X8757Y7497D02*
X8947Y7688D01*
X9250Y7740D02*
X9382D01*
X9505Y7617D01*
X9355Y7838D02*
X9541Y7652D01*
X9253Y7838D02*
X9355D01*
X11801Y4930D02*
Y5271D01*
X11803Y5272D01*
X12196Y4755D02*
X12293D01*
X12196Y4515D02*
X12455D01*
X8182Y5127D02*
X8306Y5003D01*
X8182Y5127D02*
Y5415D01*
X10020Y4635D02*
X11046D01*
X9470Y7581D02*
X9560Y7492D01*
X7233Y5127D02*
X7357Y5003D01*
X7233Y5127D02*
Y5405D01*
X12196Y4395D02*
X12198Y4397D01*
X12555D01*
X9435Y7546D02*
X9505Y7476D01*
X11317Y4930D02*
X11321D01*
X11441D02*
Y5081D01*
X11681Y4930D02*
Y5349D01*
X11380Y5142D02*
X11441Y5081D01*
X11321Y4930D02*
Y5041D01*
X11295Y5067D02*
X11321Y5041D01*
X8411Y7718D02*
X8664Y7970D01*
X10049Y7016D02*
X10509Y6556D01*
X11160Y5980D02*
X11295Y5845D01*
Y5067D02*
Y5845D01*
X9607Y4962D02*
X10222Y5578D01*
Y5938D01*
X10247Y5980D02*
X11160D01*
X9397Y6765D02*
X9530D01*
X10268Y6028D01*
X9522Y6832D02*
X9528Y6838D01*
X9788Y8458D02*
X9994Y8664D01*
X10120Y9002D02*
X10122Y9000D01*
X10388D01*
X9824Y8423D02*
X9911Y8510D01*
X9945D01*
X9682Y8564D02*
X10120Y9002D01*
X9716Y8529D02*
X9718D01*
X6770Y5583D02*
Y5835D01*
X6935Y6000D01*
X8402Y5590D02*
Y5752D01*
X7454Y5580D02*
Y5741D01*
X6990Y5583D02*
Y5748D01*
X7935Y5580D02*
Y5745D01*
X7233Y5580D02*
Y5866D01*
X7368Y6000D01*
X6935D02*
X7368D01*
X7715Y5580D02*
Y5875D01*
X7840Y6000D01*
X7368D02*
X7840D01*
X8182Y5590D02*
Y5904D01*
X8278Y6000D01*
X7840D02*
X8278D01*
X8340D01*
X8593Y5747D01*
X5462Y8408D02*
X5484D01*
X8408Y8572D02*
X8629Y8352D01*
X6990Y5748D02*
X6993Y5750D01*
X12333Y4635D02*
X12465Y4767D01*
Y5320D01*
X10268Y6028D02*
X11875D01*
X12022Y5880D01*
X10270Y6085D02*
X11893D01*
X12082Y5895D01*
X12293Y4755D02*
X12357Y4820D01*
X12082Y5400D02*
X12162Y5320D01*
X12082Y5400D02*
Y5895D01*
X12022Y5400D02*
Y5880D01*
Y5400D02*
X12357Y5065D01*
Y4820D02*
Y5065D01*
X6353Y8325D02*
Y8538D01*
X6217Y8315D02*
X6283Y8380D01*
Y8653D01*
X5038Y6740D02*
Y8132D01*
Y6740D02*
X5132Y6646D01*
X5457D01*
X5038Y8132D02*
X5145Y8240D01*
X6267D02*
X6353Y8325D01*
X5208Y9297D02*
X6050D01*
X5490Y8662D02*
X5693Y8459D01*
X5484Y8408D02*
X5578Y8315D01*
X6217D01*
X5145Y8240D02*
X6267D01*
X5203Y7535D02*
X5356Y7688D01*
X5457Y7154D02*
X5681D01*
X5770Y7243D01*
X5696Y7027D02*
X5734Y6989D01*
X8615Y8932D02*
X8911Y8635D01*
X8722Y9178D02*
Y9575D01*
Y9178D02*
X9088Y8812D01*
X8400Y8652D02*
X8664Y8388D01*
X8400Y8652D02*
X8400Y8653D01*
Y8822D01*
X12228Y10093D02*
X12340Y9980D01*
X12340Y9980D01*
X12107Y9980D02*
X12340D01*
X6675Y11368D02*
X6860D01*
X6975Y11253D01*
Y10975D02*
Y11253D01*
Y10975D02*
X7078Y10872D01*
X5992Y6512D02*
X8055D01*
X9088Y7546D01*
X5356Y7688D02*
X6075D01*
X6129Y7633D01*
X8497Y7160D02*
X8982Y7644D01*
X8722Y7497D02*
X8757D01*
X7890Y8572D02*
X8408D01*
X9214Y8167D02*
X9647Y8600D01*
X7270Y7970D02*
Y8020D01*
X6075Y7688D02*
X6938D01*
X7245Y7995D01*
X6119Y9137D02*
X6153D01*
X7270Y8020D01*
X7993Y11338D02*
X8128Y11203D01*
X8232D01*
X7452Y4768D02*
X7602D01*
X7454Y4770D02*
Y5405D01*
X10390Y9003D02*
Y9242D01*
X10388Y9000D02*
X10390Y9003D01*
X7715Y5128D02*
X7840Y5003D01*
X7715Y5128D02*
Y5405D01*
X8783Y6370D02*
Y6713D01*
Y6370D02*
X9103Y6050D01*
X10110D01*
X10222Y5938D01*
X10120Y6108D02*
X10247Y5980D01*
X9125Y6108D02*
X10120D01*
X9824Y7935D02*
X9903Y7855D01*
X9898Y7790D02*
X9900Y7793D01*
X10074Y7331D02*
X10322D01*
X9647Y7758D02*
X10074Y7331D01*
X6518Y9462D02*
Y10448D01*
X7982Y8497D02*
X8413D01*
X8593Y8317D01*
X8699Y7935D02*
X8775Y8011D01*
Y8062D01*
X8612Y7722D02*
X8699D01*
X8805Y7829D01*
X9682Y7794D02*
X9870Y7606D01*
X12753Y9699D02*
X12805Y9647D01*
X5203Y7281D02*
X5576D01*
X5804Y7509D01*
X10035Y8797D02*
X10072Y8760D01*
X9930Y8317D02*
X10234Y8621D01*
X9894Y8352D02*
X10231Y8689D01*
X10072Y8638D02*
Y8760D01*
X9945Y8510D02*
X10072Y8638D01*
X9994Y8664D02*
Y8664D01*
X8883Y10291D02*
Y10692D01*
X8615Y8932D02*
Y9478D01*
X7078Y10872D02*
X7900D01*
X7993Y10100D02*
X8615Y9478D01*
X7900Y10872D02*
X7982Y10790D01*
X9435Y8812D02*
X9525Y8902D01*
Y8970D01*
X8795Y9176D02*
X9124Y8847D01*
X8582Y9875D02*
Y9990D01*
Y9875D02*
X8795Y9662D01*
Y9176D02*
Y9662D01*
X8836Y9410D02*
X9399Y8847D01*
X9095Y9400D02*
X9525Y8970D01*
X8983Y10304D02*
Y10692D01*
Y10304D02*
X9095Y10193D01*
X8836Y10190D02*
X8933Y10287D01*
Y10692D01*
X9470Y8776D02*
X9625Y8931D01*
X9541Y8706D02*
X9707Y8872D01*
Y9630D02*
X10039Y9962D01*
X9707Y8872D02*
Y9630D01*
X9505Y8741D02*
X9668Y8903D01*
Y9653D01*
X9807Y9792D01*
X9553Y9720D02*
X9625Y9647D01*
Y8931D02*
Y9647D01*
X10061Y9962D02*
X10078Y9979D01*
Y10975D02*
X10288Y11185D01*
X10032Y11003D02*
X10265Y11235D01*
X9988Y11030D02*
X10243Y11285D01*
X9553Y9720D02*
Y10000D01*
X9988Y10435D02*
Y11030D01*
X9807Y10003D02*
Y10182D01*
X10032Y10407D01*
Y11003D01*
X9310Y6210D02*
Y7012D01*
X9560Y7262D01*
Y7492D01*
X5493Y5547D02*
X5516D01*
X5403Y5457D02*
X5493Y5547D01*
X5403Y4694D02*
Y5457D01*
X5228Y4519D02*
X5403Y4694D01*
X5228Y3940D02*
Y4519D01*
X5516Y5472D02*
X5616D01*
X5516Y4319D02*
Y5247D01*
X5482Y4285D02*
X5516Y4319D01*
X5482Y3940D02*
Y4285D01*
X5516Y5622D02*
X5653D01*
X5691Y5584D01*
X5041Y5397D02*
X5296D01*
X5767Y10511D02*
X5809Y10468D01*
X5612Y10511D02*
X5767D01*
X5620Y10669D02*
X5859D01*
X5612Y10661D02*
X5620Y10669D01*
X5819Y10468D02*
Y10629D01*
X5859Y10669D01*
X5232Y10436D02*
X5392D01*
X5202Y10466D02*
X5232Y10436D01*
X5392Y10511D02*
X5474D01*
X5512Y10548D01*
Y11298D01*
X5647Y11434D01*
Y12008D01*
X5294Y10586D02*
X5392D01*
X5266Y10614D02*
X5294Y10586D01*
X5392Y10811D02*
Y12006D01*
X5393Y12008D01*
X5859Y10669D02*
Y10818D01*
X12022Y8621D02*
X12506D01*
X12510Y8618D01*
X12022Y8689D02*
X12184D01*
X12340Y8845D01*
X12510D01*
X9085Y6358D02*
Y6993D01*
X9168Y6238D02*
Y6962D01*
X9505Y7300D01*
Y7476D01*
X7270Y8020D02*
X7578Y7712D01*
X10832Y9680D02*
X10925D01*
X11059Y9546D02*
X11078Y9565D01*
X5076Y5587D02*
X5116Y5547D01*
X5296D01*
X5033Y5389D02*
X5041Y5397D01*
X5076Y5431D01*
X9655Y8396D02*
X9753Y8494D01*
X9585Y8396D02*
X9718Y8529D01*
X9585Y8388D02*
Y8396D01*
X5809Y10468D02*
X5819D01*
X7578Y7712D02*
X7800D01*
X8196Y7205D02*
X8349Y7358D01*
X8803Y10892D02*
X8883D01*
X8770Y10925D02*
X8803Y10892D01*
X5645Y6900D02*
X5810Y6735D01*
X5910Y6443D02*
X8055D01*
X8836Y10005D02*
Y10190D01*
X5734Y6989D02*
X5954D01*
X10838Y7920D02*
X11115D01*
X8322Y7558D02*
X8699Y7935D01*
X12375Y10322D02*
Y10330D01*
X9250Y8014D02*
X9576Y7688D01*
X8420Y8914D02*
X8805Y8529D01*
X8764Y7575D02*
X8911Y7723D01*
X8836Y9410D02*
Y10005D01*
X9807Y9792D02*
Y10003D01*
X12340Y9980D02*
X12368D01*
X5720Y8680D02*
X5944D01*
X9553Y10000D02*
X9988Y10435D01*
X5797Y9137D02*
X5944D01*
X8582Y9990D02*
X8883Y10291D01*
X10039Y9962D02*
X10061D01*
X10078Y9979D02*
Y10975D01*
X9803Y8027D02*
X9809Y8034D01*
X9095Y9400D02*
Y10193D01*
X10049Y7016D02*
Y7285D01*
X5693Y8459D02*
X5945D01*
X9522Y6832D02*
X10270Y6085D01*
X12162Y5320D02*
X12462D01*
X5462Y8916D02*
X5944D01*
X10322Y7331D02*
X10390Y7263D01*
X7993Y10100D02*
Y11060D01*
X5804Y7509D02*
X5954D01*
X10925Y9680D02*
X11059Y9546D01*
X8221Y7718D02*
X8411D01*
X11078Y9740D02*
X11180D01*
X11298D01*
X5770Y7243D02*
X5954D01*
X5076Y5431D02*
Y5587D01*
X6129Y6735D02*
Y7633D01*
X7197Y5580D02*
X7233D01*
X7645D02*
X7715D01*
X7245Y7995D02*
X7270Y7970D01*
X6119Y8460D02*
Y9137D01*
Y9229D01*
X8122Y5590D02*
X8182D01*
X9673Y7113D02*
X9678Y7117D01*
Y7586D01*
X8420Y8914D02*
Y9120D01*
X8221Y7558D02*
X8322D01*
X7164Y11311D02*
X7180Y11328D01*
D42*
X8010Y8143D02*
X8695D01*
X7655Y8497D02*
X8010Y8143D01*
X7655Y8497D02*
Y8732D01*
X7860Y8938D01*
X8695Y8143D02*
X8775Y8062D01*
X14543Y11650D02*
X14748Y11444D01*
Y11285D02*
Y11444D01*
X7860Y8938D02*
X8262D01*
X12375Y10330D02*
Y11543D01*
X12482Y11650D01*
X14543D01*
D43*
X10205Y4235D02*
X10332Y4108D01*
X12715Y9303D02*
X12805Y9393D01*
X10753Y4108D02*
X10825Y4035D01*
X11046D01*
X9988Y9732D02*
X10135Y9585D01*
X10718D01*
X11000Y9303D01*
X12715D01*
X10332Y4108D02*
X10753D01*
D44*
X12144Y4913D02*
D03*
X11099D02*
D03*
D45*
X14888Y9622D02*
D03*
X6675Y11368D02*
D03*
X11418Y11071D02*
D03*
X12805Y9647D02*
D03*
D46*
X9553Y10003D02*
D03*
X15002Y11285D02*
D03*
X9085Y11327D02*
D03*
X8582Y10005D02*
D03*
D47*
X10886Y8144D02*
D03*
X10738Y7995D02*
D03*
D48*
X5457Y6646D02*
D03*
X5462Y8408D02*
D03*
D49*
X5457Y7154D02*
D03*
X5203Y6773D02*
D03*
X5203Y7281D02*
D03*
X5457Y6900D02*
D03*
Y7408D02*
D03*
X5200Y7027D02*
D03*
X5203Y7535D02*
D03*
X5462Y8916D02*
D03*
X5208Y8535D02*
D03*
X5208Y9043D02*
D03*
X5462Y8662D02*
D03*
Y9170D02*
D03*
X5205Y8789D02*
D03*
X5208Y9297D02*
D03*
D50*
X5901Y12008D02*
D03*
X4974Y3940D02*
D03*
X8112Y4335D02*
D03*
D51*
X5393Y12008D02*
D03*
X5774Y11753D02*
D03*
X5266Y11754D02*
D03*
X5647Y12008D02*
D03*
X5139D02*
D03*
X5520Y11751D02*
D03*
X5012Y11754D02*
D03*
X5482Y3940D02*
D03*
X5101Y4194D02*
D03*
X5609Y4194D02*
D03*
X5228Y3940D02*
D03*
X5736D02*
D03*
X5355Y4197D02*
D03*
X5863Y4194D02*
D03*
X7604Y4335D02*
D03*
X7985Y4080D02*
D03*
X7477Y4081D02*
D03*
X7858Y4335D02*
D03*
X7350D02*
D03*
X7731Y4078D02*
D03*
X7223Y4081D02*
D03*
D52*
X6375Y12153D02*
D03*
Y12238D02*
D03*
X6125Y12318D02*
D03*
X6122Y12238D02*
D03*
Y12150D02*
D03*
X6375Y12318D02*
D03*
Y3638D02*
D03*
Y3722D02*
D03*
X6125Y3803D02*
D03*
X6122Y3722D02*
D03*
Y3635D02*
D03*
X6375Y3803D02*
D03*
X6370Y4895D02*
D03*
X6117Y4728D02*
D03*
Y4815D02*
D03*
X6120Y4895D02*
D03*
X6370Y4815D02*
D03*
Y4730D02*
D03*
X6378Y11015D02*
D03*
Y11100D02*
D03*
X6122Y11180D02*
D03*
X6120Y11097D02*
D03*
Y11012D02*
D03*
X6378Y11180D02*
D03*
D53*
X5775Y11250D02*
D03*
X5100Y4845D02*
D03*
X5775D02*
D03*
X5100Y11250D02*
D03*
X6797Y12028D02*
D03*
Y4028D02*
D03*
X14798D02*
D03*
Y12028D02*
D03*
D54*
X13765Y10745D02*
D03*
X13638Y10738D02*
D03*
X13635Y10845D02*
D03*
X13632Y10953D02*
D03*
X13760D02*
D03*
X5096Y5242D02*
D03*
X5859Y10818D02*
D03*
X13677Y10412D02*
D03*
X13682Y11200D02*
D03*
X13760Y11062D02*
D03*
X13765Y10845D02*
D03*
X13630Y11060D02*
D03*
X9678Y8315D02*
D03*
X10685Y7793D02*
D03*
X10798Y7858D02*
D03*
X10562Y7715D02*
D03*
X8770Y10925D02*
D03*
Y10800D02*
D03*
X8772Y10668D02*
D03*
X9488Y10790D02*
D03*
X9490Y10662D02*
D03*
X9488Y10910D02*
D03*
X10778Y10657D02*
D03*
X10768Y11430D02*
D03*
X10900D02*
D03*
X11022D02*
D03*
X11005Y10660D02*
D03*
X8507Y8690D02*
D03*
X11178Y9910D02*
D03*
X11930Y5660D02*
D03*
X6770Y5133D02*
D03*
X9194Y4962D02*
D03*
X9607Y4962D02*
D03*
X10007Y4958D02*
D03*
X11803Y5272D02*
D03*
X9250Y7740D02*
D03*
X9253Y7838D02*
D03*
X8182Y5127D02*
D03*
X10020Y4635D02*
D03*
X12455Y4515D02*
D03*
X7233Y5127D02*
D03*
X12555Y4397D02*
D03*
X11670Y5360D02*
D03*
X11380Y5142D02*
D03*
X8497Y7160D02*
D03*
X9397Y6765D02*
D03*
X9528Y6838D02*
D03*
X5799Y9139D02*
D03*
X5799Y8918D02*
D03*
X5804Y8681D02*
D03*
X5809Y8461D02*
D03*
X5807Y6739D02*
D03*
X5812Y6994D02*
D03*
X5814Y7242D02*
D03*
X5819Y7512D02*
D03*
X5912Y6444D02*
D03*
X5992Y6512D02*
D03*
X8402Y5753D02*
D03*
X7935Y5745D02*
D03*
X7457Y5755D02*
D03*
X6353Y8538D02*
D03*
X6283Y8653D02*
D03*
X7857Y8572D02*
D03*
X6993Y5750D02*
D03*
X8722Y9575D02*
D03*
X8262Y8938D02*
D03*
X8400Y8822D02*
D03*
X12228Y10093D02*
D03*
X11893Y10130D02*
D03*
X11890Y9880D02*
D03*
X8722Y7497D02*
D03*
X7965Y8497D02*
D03*
X8232Y11203D02*
D03*
X8783Y6713D02*
D03*
X7715Y5128D02*
D03*
X9168Y6238D02*
D03*
X9310Y6210D02*
D03*
X9085Y6358D02*
D03*
X9893Y7285D02*
D03*
X10093Y7478D02*
D03*
X10935Y8030D02*
D03*
X8953Y5553D02*
D03*
X9470Y5428D02*
D03*
X9762D02*
D03*
X10332D02*
D03*
X10538D02*
D03*
X10728D02*
D03*
X10928D02*
D03*
X11153D02*
D03*
X11450D02*
D03*
X8612Y7722D02*
D03*
X10035Y8797D02*
D03*
X9994Y8664D02*
D03*
X8843Y7109D02*
D03*
X8520Y7605D02*
D03*
X5691Y5584D02*
D03*
X5202Y10466D02*
D03*
X10832Y9680D02*
D03*
X9585Y8388D02*
D03*
X13510Y10412D02*
D03*
X13960Y10540D02*
D03*
D55*
X13968Y11345D02*
D03*
X13682D02*
D03*
X13898Y10075D02*
D03*
Y9640D02*
D03*
X12925Y8220D02*
D03*
X11665Y9568D02*
D03*
X9168Y8167D02*
D03*
X8593Y4425D02*
D03*
X9988Y9732D02*
D03*
X13125Y8222D02*
D03*
X12725Y8210D02*
D03*
X7270Y8020D02*
D03*
X8007Y9360D02*
D03*
X7788Y9365D02*
D03*
Y9183D02*
D03*
X7962Y6662D02*
D03*
X7780D02*
D03*
X7785Y6882D02*
D03*
X9840Y9368D02*
D03*
X11500Y8038D02*
D03*
X12238Y5480D02*
D03*
X7357Y11580D02*
D03*
X10825Y4035D02*
D03*
X7630Y8122D02*
D03*
X13012Y8570D02*
D03*
X9318Y9828D02*
D03*
X10597Y9812D02*
D03*
M02*
